STARTFONT 2.1
COMMENT
COMMENT Converted from OpenType font "UbuntuMono-Italic.ttf" by "otf2bdf 3.0".
COMMENT
FONT -FreeType-Ubuntu Mono-Medium-I-Normal--33-240-100-100-P-156-ISO10646-1
SIZE 24 100 100
FONTBOUNDINGBOX 29 34 -7 -6
STARTPROPERTIES 19
FOUNDRY "FreeType"
FAMILY_NAME "Ubuntu Mono"
WEIGHT_NAME "Medium"
SLANT "I"
SETWIDTH_NAME "Normal"
ADD_STYLE_NAME ""
PIXEL_SIZE 33
POINT_SIZE 240
RESOLUTION_X 100
RESOLUTION_Y 100
SPACING "P"
AVERAGE_WIDTH 156
CHARSET_REGISTRY "ISO10646"
CHARSET_ENCODING "1"
FONT_ASCENT 27
FONT_DESCENT 5
COPYRIGHT "Copyright 2011 Canonical Ltd.  Licensed under the Ubuntu Font Licence 1.0"
_OTF_FONTFILE "UbuntuMono-Italic.ttf"
_OTF_PSNAME "UbuntuMono-Italic"
ENDPROPERTIES
CHARS 1224
STARTCHAR 0000
ENCODING 0
SWIDTH 480 0
DWIDTH 16 0
BBX 0 0 0 0
BITMAP
ENDCHAR
STARTCHAR 0008
ENCODING 8
SWIDTH 480 0
DWIDTH 16 0
BBX 0 0 0 0
BITMAP
ENDCHAR
STARTCHAR 0009
ENCODING 9
SWIDTH 480 0
DWIDTH 16 0
BBX 0 0 0 0
BITMAP
ENDCHAR
STARTCHAR 000D
ENCODING 13
SWIDTH 480 0
DWIDTH 16 0
BBX 0 0 0 0
BITMAP
ENDCHAR
STARTCHAR 001D
ENCODING 29
SWIDTH 480 0
DWIDTH 16 0
BBX 0 0 0 0
BITMAP
ENDCHAR
STARTCHAR 0020
ENCODING 32
SWIDTH 480 0
DWIDTH 16 0
BBX 0 0 0 0
BITMAP
ENDCHAR
STARTCHAR 0021
ENCODING 33
SWIDTH 480 0
DWIDTH 16 0
BBX 8 21 6 0
BITMAP
07
07
0E
0E
0E
0E
1C
1C
1C
1C
18
38
38
30
00
00
00
F0
F0
F0
F0
ENDCHAR
STARTCHAR 0022
ENCODING 34
SWIDTH 480 0
DWIDTH 16 0
BBX 10 9 7 14
BITMAP
31C0
31C0
7180
7180
6380
6300
6300
C300
C200
ENDCHAR
STARTCHAR 0023
ENCODING 35
SWIDTH 480 0
DWIDTH 16 0
BBX 17 21 2 0
BITMAP
00E380
00C300
01C300
018700
038600
038E00
3FFF80
7FFF00
061800
0E3800
0C3800
1C3000
1C7000
FFFE00
FFFE00
FFFC00
71C000
61C000
E18000
C38000
C30000
ENDCHAR
STARTCHAR 0024
ENCODING 36
SWIDTH 480 0
DWIDTH 16 0
BBX 15 26 3 -3
BITMAP
0070
0060
0060
00F0
07FE
0FFC
1C04
1C00
1C00
1C00
1E00
0F00
07C0
03E0
00F0
0070
0038
0038
0070
C0F0
FFE0
FFC0
0C00
0C00
1C00
1C00
ENDCHAR
STARTCHAR 0025
ENCODING 37
SWIDTH 480 0
DWIDTH 16 0
BBX 19 21 1 0
BITMAP
078060
0FC0C0
18C180
18C300
18C700
30CE00
319C00
319800
1B3000
1E6000
00E000
01DE00
03BF00
037300
066300
0C6300
186300
38E700
70E600
E06E00
C07C00
ENDCHAR
STARTCHAR 0026
ENCODING 38
SWIDTH 480 0
DWIDTH 16 0
BBX 14 21 2 0
BITMAP
01F0
03F8
0738
0E18
0E18
0C38
0C38
0C70
0FE0
0780
0F0C
3F8C
739C
61D8
E0F8
E0F0
E070
E0F0
F1F0
7FB8
3E38
ENDCHAR
STARTCHAR 0027
ENCODING 39
SWIDTH 480 0
DWIDTH 16 0
BBX 4 9 10 14
BITMAP
70
70
70
70
60
E0
E0
C0
C0
ENDCHAR
STARTCHAR 0028
ENCODING 40
SWIDTH 480 0
DWIDTH 16 0
BBX 12 29 5 -6
BITMAP
0030
0070
01E0
03C0
0780
0700
0E00
1C00
3800
3800
7000
7000
6000
E000
E000
E000
E000
E000
E000
E000
E000
E000
6000
7000
7000
3800
1C00
1C00
0800
ENDCHAR
STARTCHAR 0029
ENCODING 41
SWIDTH 480 0
DWIDTH 16 0
BBX 12 28 2 -6
BITMAP
0180
0380
01C0
00E0
00E0
0070
0070
0070
0030
0030
0030
0030
0030
0030
0070
0070
0060
00E0
00C0
01C0
0380
0780
0700
0E00
3C00
7800
F000
E000
ENDCHAR
STARTCHAR 002A
ENCODING 42
SWIDTH 480 0
DWIDTH 16 0
BBX 12 13 5 8
BITMAP
0600
0600
0600
8610
E670
FFF0
7FE0
0F00
1F80
39C0
79E0
30C0
1080
ENDCHAR
STARTCHAR 002B
ENCODING 43
SWIDTH 480 0
DWIDTH 16 0
BBX 14 15 3 1
BITMAP
01C0
01C0
0180
0180
0380
0380
FFFC
FFF8
0700
0700
0600
0600
0E00
0E00
0C00
ENDCHAR
STARTCHAR 002C
ENCODING 44
SWIDTH 480 0
DWIDTH 16 0
BBX 7 10 4 -5
BITMAP
08
3C
3E
3E
3E
0C
1C
F8
F0
80
ENDCHAR
STARTCHAR 002D
ENCODING 45
SWIDTH 480 0
DWIDTH 16 0
BBX 8 3 6 7
BITMAP
FF
FF
FE
ENDCHAR
STARTCHAR 002E
ENCODING 46
SWIDTH 480 0
DWIDTH 16 0
BBX 5 5 6 0
BITMAP
60
F0
F8
F8
F0
ENDCHAR
STARTCHAR 002F
ENCODING 47
SWIDTH 480 0
DWIDTH 16 0
BBX 19 29 -1 -6
BITMAP
0000E0
0000C0
0001C0
000180
000380
000700
000700
000E00
000C00
001C00
001800
003800
007000
007000
00E000
00E000
01C000
018000
038000
070000
070000
0E0000
0E0000
1C0000
180000
380000
300000
700000
E00000
ENDCHAR
STARTCHAR 0030
ENCODING 48
SWIDTH 480 0
DWIDTH 16 0
BBX 14 21 3 0
BITMAP
01F0
07F8
0FBC
1E1C
1C0C
380C
380C
700C
730C
679C
E79C
E79C
E018
E038
E038
E070
E070
E0E0
F1C0
7F80
3F00
ENDCHAR
STARTCHAR 0031
ENCODING 49
SWIDTH 480 0
DWIDTH 16 0
BBX 12 21 3 0
BITMAP
0030
0070
01F0
03E0
1FE0
1EE0
18E0
00E0
00C0
01C0
01C0
01C0
0180
0380
0380
0380
0300
0700
0700
FFF0
FFE0
ENDCHAR
STARTCHAR 0032
ENCODING 50
SWIDTH 480 0
DWIDTH 16 0
BBX 15 21 2 0
BITMAP
01F8
07FC
0F1E
040E
0006
0006
000E
000E
001C
003C
0078
01F0
03C0
0780
0F00
1C00
3800
7800
7000
7FF8
FFF0
ENDCHAR
STARTCHAR 0033
ENCODING 51
SWIDTH 480 0
DWIDTH 16 0
BBX 15 21 2 0
BITMAP
01F8
07FC
071E
000E
000E
000E
000E
001C
0078
03F0
03F0
0078
0038
001C
001C
001C
0038
0038
40F8
FFF0
7FC0
ENDCHAR
STARTCHAR 0034
ENCODING 52
SWIDTH 480 0
DWIDTH 16 0
BBX 15 21 2 0
BITMAP
000E
001E
003E
007C
00FC
01DC
039C
0718
0E38
1C38
3838
3030
7070
FFFC
FFFC
FFFC
00E0
00E0
00E0
00C0
00C0
ENDCHAR
STARTCHAR 0035
ENCODING 53
SWIDTH 480 0
DWIDTH 16 0
BBX 16 21 2 0
BITMAP
01FF
03FF
03FF
0300
0300
0700
0600
0E00
0F00
0FE0
07F0
0078
0038
001C
001C
001C
0038
0078
40F0
FFE0
FFC0
ENDCHAR
STARTCHAR 0036
ENCODING 54
SWIDTH 480 0
DWIDTH 16 0
BBX 15 21 3 0
BITMAP
0006
007E
01FE
03C0
0F00
0E00
1C00
3800
3980
7FF0
7FF8
7038
E018
E01C
E018
E038
E038
E078
70F0
7FE0
3FC0
ENDCHAR
STARTCHAR 0037
ENCODING 55
SWIDTH 480 0
DWIDTH 16 0
BBX 15 21 5 0
BITMAP
3FFE
7FFC
7FFC
0038
0070
00E0
00E0
01C0
0380
0700
0700
0E00
1C00
1C00
3800
3800
7000
7000
E000
E000
E000
ENDCHAR
STARTCHAR 0038
ENCODING 56
SWIDTH 480 0
DWIDTH 16 0
BBX 15 21 3 0
BITMAP
01F0
07FC
0F1C
1C0E
1C0E
180E
180E
1C1C
1C38
0F70
0FE0
3DF0
7070
6038
E038
C038
C038
E070
E0F0
FFE0
3FC0
ENDCHAR
STARTCHAR 0039
ENCODING 57
SWIDTH 480 0
DWIDTH 16 0
BBX 15 21 3 0
BITMAP
03F0
0FF8
1F1C
1C0C
380E
380E
300E
300E
300E
380C
3C7C
1FFC
0F9C
0038
0078
0070
01E0
03C0
1F80
FE00
F800
ENDCHAR
STARTCHAR 003A
ENCODING 58
SWIDTH 480 0
DWIDTH 16 0
BBX 7 15 6 0
BITMAP
1E
3E
3E
1E
08
00
00
00
00
00
60
F0
F8
F8
F0
ENDCHAR
STARTCHAR 003B
ENCODING 59
SWIDTH 480 0
DWIDTH 16 0
BBX 9 20 4 -5
BITMAP
0780
0F80
0F80
0780
0200
0000
0000
0000
0000
0000
0800
3C00
3E00
3E00
3E00
0C00
1C00
F800
F000
8000
ENDCHAR
STARTCHAR 003C
ENCODING 60
SWIDTH 480 0
DWIDTH 16 0
BBX 14 13 3 2
BITMAP
000C
003C
01FC
07E0
3F80
FC00
E000
F800
7E00
1F80
07E0
01F0
0060
ENDCHAR
STARTCHAR 003D
ENCODING 61
SWIDTH 480 0
DWIDTH 16 0
BBX 15 9 2 4
BITMAP
3FFE
3FFE
0000
0000
0000
0000
7FFC
FFFC
FFFC
ENDCHAR
STARTCHAR 003E
ENCODING 62
SWIDTH 480 0
DWIDTH 16 0
BBX 15 13 2 2
BITMAP
1800
3E00
1F80
07E0
01F8
007E
001C
00FC
03F0
1FC0
7E00
F000
C000
ENDCHAR
STARTCHAR 003F
ENCODING 63
SWIDTH 480 0
DWIDTH 16 0
BBX 12 21 5 0
BITMAP
0FC0
1FF0
18F0
0070
0030
0070
0070
00E0
01C0
0780
0E00
1C00
1C00
1800
0000
0000
0000
7000
7800
F800
7000
ENDCHAR
STARTCHAR 0040
ENCODING 64
SWIDTH 480 0
DWIDTH 16 0
BBX 17 25 2 -4
BITMAP
00FC00
01FE00
07C700
0F0300
0E0380
1C0380
180380
387F00
30FF00
71C700
738700
630600
670E00
E70E00
E70E00
E70C00
E30C00
E3FC00
E1FC00
602000
700000
700000
3C0000
1FC000
0FC000
ENDCHAR
STARTCHAR 0041
ENCODING 65
SWIDTH 480 0
DWIDTH 16 0
BBX 16 21 0 0
BITMAP
001C
003C
003C
006E
00EE
00CE
01CE
018E
038E
0306
0706
0E06
0C06
1FFE
1FFE
3FFE
3006
7007
7007
E007
E007
ENDCHAR
STARTCHAR 0042
ENCODING 66
SWIDTH 480 0
DWIDTH 16 0
BBX 15 21 2 0
BITMAP
07F0
0FFC
0FFE
0C0E
1C06
1C06
1C0E
180E
383C
3FF8
3FF0
3078
701C
701C
701C
601C
E01C
E038
E0F8
FFE0
FF80
ENDCHAR
STARTCHAR 0043
ENCODING 67
SWIDTH 480 0
DWIDTH 16 0
BBX 16 21 3 0
BITMAP
00FC
03FF
07CF
0E00
1C00
3800
3800
7000
7000
6000
E000
E000
E000
E000
E000
E000
E000
F000
7830
3FF0
1FE0
ENDCHAR
STARTCHAR 0044
ENCODING 68
SWIDTH 480 0
DWIDTH 16 0
BBX 16 21 1 0
BITMAP
03E0
07FC
07FE
0E0F
0E07
0E07
0C03
1C03
1C03
1C03
1807
3807
3807
3806
300E
701E
701C
7078
61F0
FFE0
FF80
ENDCHAR
STARTCHAR 0045
ENCODING 69
SWIDTH 480 0
DWIDTH 16 0
BBX 17 21 2 0
BITMAP
07FF80
07FF80
07FF00
060000
0E0000
0E0000
0E0000
0C0000
1C0000
1FFC00
1FF800
180000
380000
380000
380000
300000
700000
700000
700000
7FF800
FFF800
ENDCHAR
STARTCHAR 0046
ENCODING 70
SWIDTH 480 0
DWIDTH 16 0
BBX 17 21 2 0
BITMAP
07FF80
07FF80
07FF80
060000
0E0000
0E0000
0E0000
0C0000
1C0000
1FFC00
1FFC00
180000
380000
380000
380000
300000
700000
700000
700000
600000
E00000
ENDCHAR
STARTCHAR 0047
ENCODING 71
SWIDTH 480 0
DWIDTH 16 0
BBX 16 21 3 0
BITMAP
00FC
03FF
0F8E
1E00
1C00
3800
7000
7000
6000
E000
E000
E018
C038
C038
C038
E038
E030
E070
7870
7FF0
3FE0
ENDCHAR
STARTCHAR 0048
ENCODING 72
SWIDTH 480 0
DWIDTH 16 0
BBX 18 21 1 0
BITMAP
0701C0
0701C0
0601C0
0E0180
0E0380
0E0380
0C0380
1C0380
1C0300
1FFF00
1FFF00
380700
380600
380E00
380E00
300E00
700C00
701C00
701C00
601C00
E01800
ENDCHAR
STARTCHAR 0049
ENCODING 73
SWIDTH 480 0
DWIDTH 16 0
BBX 16 21 2 0
BITMAP
07FF
07FF
07FF
0060
00E0
00E0
00E0
00C0
01C0
01C0
01C0
0180
0380
0380
0380
0300
0700
0700
0700
7FE0
FFE0
ENDCHAR
STARTCHAR 004A
ENCODING 74
SWIDTH 480 0
DWIDTH 16 0
BBX 16 21 2 0
BITMAP
01FF
03FF
03FF
0007
0006
000E
000E
000E
000E
000C
001C
001C
001C
0018
0038
0038
0038
0070
60F0
FFE0
3FC0
ENDCHAR
STARTCHAR 004B
ENCODING 75
SWIDTH 480 0
DWIDTH 16 0
BBX 17 21 2 0
BITMAP
0E0380
0E0780
0E0F00
0C1E00
1C3C00
1C7800
1CF000
19C000
3B8000
3F0000
3F0000
370000
338000
71C000
71C000
70E000
607000
E07000
E03800
E03800
C03800
ENDCHAR
STARTCHAR 004C
ENCODING 76
SWIDTH 480 0
DWIDTH 16 0
BBX 12 21 2 0
BITMAP
0600
0E00
0E00
0E00
0E00
0C00
1C00
1C00
1C00
1800
3800
3800
3800
3000
7000
7000
7000
6000
E000
FFF0
FFF0
ENDCHAR
STARTCHAR 004D
ENCODING 77
SWIDTH 480 0
DWIDTH 16 0
BBX 18 21 1 0
BITMAP
0381C0
038380
078380
078780
078780
0D8D80
0D8D80
0D9B80
1D9B00
19B300
19E300
39E300
31C700
300700
700600
700600
600E00
600E00
E00E00
E00C00
C00C00
ENDCHAR
STARTCHAR 004E
ENCODING 78
SWIDTH 480 0
DWIDTH 16 0
BBX 18 21 1 0
BITMAP
0700C0
0700C0
0781C0
0781C0
0F8180
0FC180
0DC380
0CC380
1CC300
1CE300
186700
186700
386600
386600
307E00
303E00
703C00
703C00
603C00
603C00
E01800
ENDCHAR
STARTCHAR 004F
ENCODING 79
SWIDTH 480 0
DWIDTH 16 0
BBX 15 21 3 0
BITMAP
01F0
07FC
0F3C
1C0E
380E
380E
700E
700E
600E
E00E
E00E
E00C
E01C
C01C
C018
C038
E070
E070
F1E0
7FC0
3F80
ENDCHAR
STARTCHAR 0050
ENCODING 80
SWIDTH 480 0
DWIDTH 16 0
BBX 16 21 2 0
BITMAP
03F0
0FFC
0FFE
0E0F
0E07
1C07
1C07
1C07
1C06
180E
383C
3FF8
3FE0
3000
7000
7000
7000
6000
E000
E000
E000
ENDCHAR
STARTCHAR 0051
ENCODING 81
SWIDTH 480 0
DWIDTH 16 0
BBX 15 27 3 -6
BITMAP
01F0
07FC
0F3C
1C0E
380E
380E
700E
700E
600E
E00E
E00E
E00C
E01C
C01C
C018
C038
E070
E070
F1E0
7FC0
3F80
1C00
1C00
0F00
0FE0
03C0
0040
ENDCHAR
STARTCHAR 0052
ENCODING 82
SWIDTH 480 0
DWIDTH 16 0
BBX 16 21 2 0
BITMAP
07F0
0FFC
0FFE
0C0E
1C07
1C07
1C07
1806
380E
381C
38F8
3FF0
3FC0
70E0
70E0
7070
6070
E070
E030
E038
C038
ENDCHAR
STARTCHAR 0053
ENCODING 83
SWIDTH 480 0
DWIDTH 16 0
BBX 16 21 2 0
BITMAP
01FE
03FF
078E
0E00
0E00
0C00
0C00
0E00
0F00
07C0
03E0
00F0
0078
0038
001C
001C
0018
0038
6078
FFF0
7FC0
ENDCHAR
STARTCHAR 0054
ENCODING 84
SWIDTH 480 0
DWIDTH 16 0
BBX 15 21 5 0
BITMAP
7FFE
FFFC
FFFC
0700
0700
0700
0700
0600
0E00
0E00
0E00
0C00
1C00
1C00
1C00
1800
3800
3800
3800
3000
7000
ENDCHAR
STARTCHAR 0055
ENCODING 85
SWIDTH 480 0
DWIDTH 16 0
BBX 16 21 3 0
BITMAP
1C07
1C07
1807
3806
380E
380E
300E
700E
700C
701C
601C
E01C
E018
E038
E038
C038
C070
E070
F0E0
7FC0
3F80
ENDCHAR
STARTCHAR 0056
ENCODING 86
SWIDTH 480 0
DWIDTH 16 0
BBX 15 21 5 0
BITMAP
C00E
C00E
C01C
C01C
C018
C038
C030
E070
E060
E0E0
E1C0
E1C0
E380
E380
E700
E600
EE00
EC00
7C00
7800
7800
ENDCHAR
STARTCHAR 0057
ENCODING 87
SWIDTH 480 0
DWIDTH 16 0
BBX 18 21 2 0
BITMAP
1C01C0
1C01C0
1C0180
180180
180380
380380
380300
380700
31C700
31C600
73C600
73CE00
66CC00
66CC00
6CCC00
7C5800
787800
F07800
F07000
E07000
E07000
ENDCHAR
STARTCHAR 0058
ENCODING 88
SWIDTH 480 0
DWIDTH 16 0
BBX 19 21 1 0
BITMAP
0700E0
0701C0
0381C0
038380
038700
01CE00
01CE00
01DC00
00F800
00F000
00F000
01F000
03B000
07B800
073800
0E3800
1C1C00
381C00
781C00
700C00
E00E00
ENDCHAR
STARTCHAR 0059
ENCODING 89
SWIDTH 480 0
DWIDTH 16 0
BBX 16 21 5 0
BITMAP
E007
E00E
E01C
E01C
6038
7070
7070
70E0
31C0
3B80
3B00
1F00
1E00
1C00
1C00
1C00
1800
3800
3800
3800
3000
ENDCHAR
STARTCHAR 005A
ENCODING 90
SWIDTH 480 0
DWIDTH 16 0
BBX 18 21 1 0
BITMAP
07FFC0
07FFC0
07FFC0
000380
000700
000E00
001C00
003800
007000
00E000
01C000
01C000
038000
070000
0E0000
1C0000
380000
380000
700000
7FFC00
FFFC00
ENDCHAR
STARTCHAR 005B
ENCODING 91
SWIDTH 480 0
DWIDTH 16 0
BBX 15 29 3 -6
BITMAP
01FE
01FE
0180
0380
0380
0300
0300
0700
0700
0600
0600
0E00
0E00
0E00
0C00
1C00
1C00
1C00
1800
3800
3800
3800
3000
7000
7000
7000
7F80
FF80
FF00
ENDCHAR
STARTCHAR 005C
ENCODING 92
SWIDTH 480 0
DWIDTH 16 0
BBX 5 29 7 -6
BITMAP
E0
E0
60
60
60
70
70
70
70
70
70
70
70
70
70
30
30
30
38
38
38
38
38
38
38
38
38
38
18
ENDCHAR
STARTCHAR 005D
ENCODING 93
SWIDTH 480 0
DWIDTH 16 0
BBX 15 29 1 -6
BITMAP
01FE
03FC
000C
001C
001C
0018
0018
0038
0038
0030
0030
0070
0070
0060
0060
00E0
00E0
00C0
00C0
01C0
01C0
01C0
0180
0380
0380
0380
FF00
FF00
FF00
ENDCHAR
STARTCHAR 005E
ENCODING 94
SWIDTH 480 0
DWIDTH 16 0
BBX 13 11 4 9
BITMAP
01C0
01C0
03E0
07E0
0E60
1C70
1C70
3830
7038
E038
E018
ENDCHAR
STARTCHAR 005F
ENCODING 95
SWIDTH 480 0
DWIDTH 16 0
BBX 15 3 -1 -6
BITMAP
7FFE
FFFE
FFFE
ENDCHAR
STARTCHAR 0060
ENCODING 96
SWIDTH 480 0
DWIDTH 16 0
BBX 5 6 9 17
BITMAP
40
E0
70
78
38
18
ENDCHAR
STARTCHAR 0061
ENCODING 97
SWIDTH 480 0
DWIDTH 16 0
BBX 15 16 2 0
BITMAP
00FC
03FE
0FFE
1E0C
3C0C
381C
701C
701C
6018
E038
E038
E038
6030
70F0
7FF8
3FB8
ENDCHAR
STARTCHAR 0062
ENCODING 98
SWIDTH 480 0
DWIDTH 16 0
BBX 15 23 2 0
BITMAP
0700
0700
0700
0600
0E00
0E00
0E00
0CF0
1FF8
1FFC
1C1E
180E
380E
380E
380E
300C
701C
701C
7038
6078
61F0
FFE0
FF80
ENDCHAR
STARTCHAR 0063
ENCODING 99
SWIDTH 480 0
DWIDTH 16 0
BBX 15 16 2 0
BITMAP
00FC
07FE
0FDC
1E00
3800
7800
7000
7000
6000
E000
E000
E000
7000
7810
3FF0
1FF0
ENDCHAR
STARTCHAR 0064
ENCODING 100
SWIDTH 480 0
DWIDTH 16 0
BBX 16 23 3 0
BITMAP
0007
0007
0007
0006
000E
000E
000E
00FE
07FC
1FFC
3C1C
381C
7018
E038
E038
E038
E030
C070
C070
E070
E0F0
7FF0
3F30
ENDCHAR
STARTCHAR 0065
ENCODING 101
SWIDTH 480 0
DWIDTH 16 0
BBX 15 16 2 0
BITMAP
01F0
07FC
0FBC
1C0E
380E
700E
701C
70F8
7FF0
FF80
E000
E000
7000
7810
3FF0
1FF0
ENDCHAR
STARTCHAR 0066
ENCODING 102
SWIDTH 480 0
DWIDTH 16 0
BBX 20 29 0 -6
BITMAP
0007F0
000FE0
001E20
003800
003800
003000
007000
007000
03FFC0
07FFC0
006000
00E000
00E000
00E000
00C000
01C000
01C000
01C000
01C000
018000
038000
038000
038000
038000
070000
070000
7E0000
FC0000
200000
ENDCHAR
STARTCHAR 0067
ENCODING 103
SWIDTH 480 0
DWIDTH 16 0
BBX 17 22 1 -6
BITMAP
003E00
01FF80
03FF00
0F0700
0E0700
1C0700
1C0600
380E00
380E00
380E00
380C00
381C00
383C00
1FFC00
0FF800
003800
003800
007000
00F000
FFE000
FFC000
080000
ENDCHAR
STARTCHAR 0068
ENCODING 104
SWIDTH 480 0
DWIDTH 16 0
BBX 14 23 2 0
BITMAP
0700
0600
0E00
0E00
0E00
0C00
1C00
1DE0
1FF8
1FF8
381C
381C
381C
381C
301C
7018
7038
7038
6038
E030
E070
E070
C070
ENDCHAR
STARTCHAR 0069
ENCODING 105
SWIDTH 480 0
DWIDTH 16 0
BBX 9 22 5 0
BITMAP
0700
0F00
0F00
0F00
0000
0000
0000
FE00
FE00
0E00
0C00
1C00
1C00
1C00
1800
3800
3800
3800
3800
3C00
1F80
0F80
ENDCHAR
STARTCHAR 006A
ENCODING 106
SWIDTH 480 0
DWIDTH 16 0
BBX 16 28 1 -6
BITMAP
000E
001F
001F
000E
0000
0000
0000
03FE
07FC
001C
001C
001C
0018
0038
0038
0038
0038
0030
0070
0070
0070
0060
00E0
00E0
01C0
FFC0
FF00
1C00
ENDCHAR
STARTCHAR 006B
ENCODING 107
SWIDTH 480 0
DWIDTH 16 0
BBX 16 23 2 0
BITMAP
0700
0700
0700
0700
0600
0E00
0E00
0E00
0C0F
1C1C
1C78
1CF0
19C0
3F80
3F00
3F80
3380
71C0
70E0
70E0
6070
E078
E038
ENDCHAR
STARTCHAR 006C
ENCODING 108
SWIDTH 480 0
DWIDTH 16 0
BBX 9 23 6 0
BITMAP
FF00
FE00
0E00
0E00
0E00
0C00
1C00
1C00
1C00
1800
3800
3800
3800
3800
3000
7000
7000
7000
6000
6000
7080
7F80
3F80
ENDCHAR
STARTCHAR 006D
ENCODING 109
SWIDTH 480 0
DWIDTH 16 0
BBX 16 16 1 0
BITMAP
078E
1FFF
1FF7
1CE3
18E3
18E3
38C7
38C7
31C6
31C6
700E
700E
600C
600C
E01C
E01C
ENDCHAR
STARTCHAR 006E
ENCODING 110
SWIDTH 480 0
DWIDTH 16 0
BBX 14 16 2 0
BITMAP
03F0
0FF8
1FFC
1C1C
1C0C
180C
380C
381C
381C
301C
7018
7038
7038
6038
E030
E070
ENDCHAR
STARTCHAR 006F
ENCODING 111
SWIDTH 480 0
DWIDTH 16 0
BBX 14 16 3 0
BITMAP
03E0
0FF0
1FF8
3C3C
701C
701C
E01C
E01C
E01C
E038
C038
C070
E070
F1E0
7FC0
3F80
ENDCHAR
STARTCHAR 0070
ENCODING 112
SWIDTH 480 0
DWIDTH 16 0
BBX 16 22 1 -6
BITMAP
01F0
0FFC
0FFE
0E0F
0C07
1C07
1C07
1C07
1807
380E
380E
381C
383C
70F8
7FF0
7FC0
7000
6000
E000
E000
E000
C000
ENDCHAR
STARTCHAR 0071
ENCODING 113
SWIDTH 480 0
DWIDTH 16 0
BBX 14 22 3 -6
BITMAP
00F8
07FC
1FFC
3C1C
381C
7018
E038
E038
E038
E030
C070
C070
E070
E0E0
7FE0
3FE0
00E0
00C0
01C0
01C0
01C0
0180
ENDCHAR
STARTCHAR 0072
ENCODING 114
SWIDTH 480 0
DWIDTH 16 0
BBX 14 16 3 0
BITMAP
01FC
1FFC
1FFC
1C00
1800
3800
3800
3800
3800
3000
7000
7000
7000
6000
E000
E000
ENDCHAR
STARTCHAR 0073
ENCODING 115
SWIDTH 480 0
DWIDTH 16 0
BBX 13 16 3 0
BITMAP
03F0
0FF8
1FF8
1C00
1800
1800
1E00
0F80
07C0
01E0
0070
0070
0070
C0E0
FFE0
FF80
ENDCHAR
STARTCHAR 0074
ENCODING 116
SWIDTH 480 0
DWIDTH 16 0
BBX 12 20 5 0
BITMAP
0E00
0E00
0E00
0C00
1C00
FFF0
FFF0
1800
3800
3800
3800
3800
7000
7000
7000
7000
7000
7040
7FC0
3FC0
ENDCHAR
STARTCHAR 0075
ENCODING 117
SWIDTH 480 0
DWIDTH 16 0
BBX 14 15 3 0
BITMAP
381C
301C
7018
7038
7038
6038
E038
E070
E070
E070
E070
E0E0
E1E0
FFF0
7F70
ENDCHAR
STARTCHAR 0076
ENCODING 118
SWIDTH 480 0
DWIDTH 16 0
BBX 13 15 4 0
BITMAP
E018
6038
6038
6070
7070
70E0
70E0
71C0
7180
7380
3700
3700
3E00
3C00
3800
ENDCHAR
STARTCHAR 0077
ENCODING 119
SWIDTH 480 0
DWIDTH 16 0
BBX 16 15 3 0
BITMAP
6007
6007
E006
E18E
E38E
E38C
E79C
CF98
CD98
D9B8
D9B0
F1F0
F1E0
E0E0
C0C0
ENDCHAR
STARTCHAR 0078
ENCODING 120
SWIDTH 480 0
DWIDTH 16 0
BBX 17 15 1 0
BITMAP
0E0780
070E00
070E00
039C00
03B800
01F000
01E000
01E000
03E000
077000
0E7000
1C3800
383800
701800
E01C00
ENDCHAR
STARTCHAR 0079
ENCODING 121
SWIDTH 480 0
DWIDTH 16 0
BBX 18 21 0 -6
BITMAP
0601C0
060380
070380
070380
070700
070700
070E00
030E00
038C00
039C00
039800
03B800
01F000
01F000
01E000
01C000
038000
078000
FF0000
FC0000
600000
ENDCHAR
STARTCHAR 007A
ENCODING 122
SWIDTH 480 0
DWIDTH 16 0
BBX 15 15 2 0
BITMAP
0FFE
0FFC
0038
0070
00E0
01C0
0380
0700
0E00
1C00
3C00
3800
7000
FFF0
FFF0
ENDCHAR
STARTCHAR 007B
ENCODING 123
SWIDTH 480 0
DWIDTH 16 0
BBX 16 29 3 -6
BITMAP
007F
00FF
01C0
0180
0180
0380
0380
0300
0300
0700
0700
0600
0E00
FC00
F800
1C00
1C00
1C00
1C00
1C00
1800
3800
3800
3800
3000
3000
3FC0
1F80
0380
ENDCHAR
STARTCHAR 007C
ENCODING 124
SWIDTH 480 0
DWIDTH 16 0
BBX 9 29 5 -6
BITMAP
0180
0180
0380
0380
0300
0300
0700
0700
0700
0600
0E00
0E00
0E00
0C00
1C00
1C00
1C00
1800
3800
3800
3800
3000
3000
7000
7000
6000
6000
E000
E000
ENDCHAR
STARTCHAR 007D
ENCODING 125
SWIDTH 480 0
DWIDTH 16 0
BBX 16 29 0 -6
BITMAP
01F8
03FC
001C
000C
000C
001C
001C
0018
0018
0038
0038
0038
0038
001F
001F
0078
0070
0060
00E0
00E0
00C0
00C0
01C0
01C0
0180
0380
FF00
FE00
E000
ENDCHAR
STARTCHAR 007E
ENCODING 126
SWIDTH 480 0
DWIDTH 16 0
BBX 14 5 3 6
BITMAP
3E0C
7F1C
E7F8
C1F0
0040
ENDCHAR
STARTCHAR 00A0
ENCODING 160
SWIDTH 480 0
DWIDTH 16 0
BBX 0 0 0 0
BITMAP
ENDCHAR
STARTCHAR 00A1
ENCODING 161
SWIDTH 480 0
DWIDTH 16 0
BBX 8 21 5 -5
BITMAP
0F
0F
0F
0E
00
00
00
18
18
18
38
38
38
70
70
70
70
70
E0
E0
E0
ENDCHAR
STARTCHAR 00A2
ENCODING 162
SWIDTH 480 0
DWIDTH 16 0
BBX 14 24 3 -3
BITMAP
0070
0060
0060
0060
00E0
03FC
0FF8
1E00
3C00
7800
7000
6000
E000
E000
E000
E000
F000
7C60
3FE0
1FC0
0E00
0E00
0C00
0C00
ENDCHAR
STARTCHAR 00A3
ENCODING 163
SWIDTH 480 0
DWIDTH 16 0
BBX 16 21 3 0
BITMAP
007E
01FF
03EE
0780
0700
0600
0E00
0E00
0E00
0C00
7FF0
FFE0
1C00
1800
3800
3800
3000
7000
7000
FFF0
FFF0
ENDCHAR
STARTCHAR 00A4
ENCODING 164
SWIDTH 480 0
DWIDTH 16 0
BBX 14 14 3 3
BITMAP
6008
F7DC
7FF8
3870
3030
7038
7018
7018
3038
3870
3FF8
7FFC
E01C
4008
ENDCHAR
STARTCHAR 00A5
ENCODING 165
SWIDTH 480 0
DWIDTH 16 0
BBX 17 21 3 0
BITMAP
380380
380380
380700
1C0E00
1C1C00
1C1C00
0C3800
0E7000
0EE000
07C000
07C000
7FF800
7FF800
070000
070000
070000
FFF000
FFF000
0E0000
0E0000
0C0000
ENDCHAR
STARTCHAR 00A6
ENCODING 166
SWIDTH 480 0
DWIDTH 16 0
BBX 9 29 5 -6
BITMAP
0180
0180
0380
0380
0300
0300
0700
0700
0700
0600
0E00
0000
0000
0000
0000
0000
0000
1800
3800
3800
3800
3000
3000
7000
7000
6000
6000
E000
E000
ENDCHAR
STARTCHAR 00A7
ENCODING 167
SWIDTH 480 0
DWIDTH 16 0
BBX 15 24 2 -3
BITMAP
00FE
03FE
0786
0700
0600
0700
0780
07E0
0FF8
1C78
381C
381C
381C
3818
3E38
1FF0
07C0
01E0
00E0
0060
00E0
C1E0
FFC0
FF80
ENDCHAR
STARTCHAR 00A8
ENCODING 168
SWIDTH 480 0
DWIDTH 16 0
BBX 9 4 8 18
BITMAP
6100
E380
E380
4100
ENDCHAR
STARTCHAR 00A9
ENCODING 169
SWIDTH 480 0
DWIDTH 16 0
BBX 15 16 2 0
BITMAP
07C0
1FF0
3838
301C
63CC
67CC
CE06
CC06
CC06
CC06
6FC6
67CC
700C
3818
1EF0
0FE0
ENDCHAR
STARTCHAR 00AA
ENCODING 170
SWIDTH 480 0
DWIDTH 16 0
BBX 10 11 6 10
BITMAP
0FC0
1FC0
38C0
61C0
E180
C180
C180
C380
C300
FF80
7D80
ENDCHAR
STARTCHAR 00AB
ENCODING 171
SWIDTH 480 0
DWIDTH 16 0
BBX 12 11 4 4
BITMAP
0C30
1C70
38E0
71C0
E380
E380
E380
E380
6180
71C0
30C0
ENDCHAR
STARTCHAR 00AC
ENCODING 172
SWIDTH 480 0
DWIDTH 16 0
BBX 14 11 3 1
BITMAP
7FFC
FFFC
FFFC
001C
0018
0018
0038
0038
0030
0030
0070
ENDCHAR
STARTCHAR 00AD
ENCODING 173
SWIDTH 480 0
DWIDTH 16 0
BBX 8 3 6 7
BITMAP
FF
FF
FE
ENDCHAR
STARTCHAR 00AE
ENCODING 174
SWIDTH 480 0
DWIDTH 16 0
BBX 15 16 2 0
BITMAP
07C0
1FF0
3838
301C
678C
67CC
C666
C666
C7C6
C7C6
66C6
666C
700C
3818
1EF0
0FE0
ENDCHAR
STARTCHAR 00AF
ENCODING 175
SWIDTH 480 0
DWIDTH 16 0
BBX 9 2 8 19
BITMAP
FF80
FF00
ENDCHAR
STARTCHAR 00B0
ENCODING 176
SWIDTH 480 0
DWIDTH 16 0
BBX 9 8 7 15
BITMAP
3E00
7F00
6300
C180
C180
6380
7F00
3E00
ENDCHAR
STARTCHAR 00B1
ENCODING 177
SWIDTH 480 0
DWIDTH 16 0
BBX 16 18 1 0
BITMAP
0030
0030
0070
0070
0060
0060
1FFF
1FFF
00C0
00C0
01C0
01C0
0180
0180
0000
0000
FFFC
FFFC
ENDCHAR
STARTCHAR 00B2
ENCODING 178
SWIDTH 480 0
DWIDTH 16 0
BBX 9 12 6 9
BITMAP
1F00
3F80
0180
0180
0180
0700
0E00
3C00
7000
6000
FF00
FF00
ENDCHAR
STARTCHAR 00B3
ENCODING 179
SWIDTH 480 0
DWIDTH 16 0
BBX 10 12 6 9
BITMAP
1F80
1F80
01C0
0180
0380
0E00
0780
0180
0180
0380
FF00
7C00
ENDCHAR
STARTCHAR 00B4
ENCODING 180
SWIDTH 480 0
DWIDTH 16 0
BBX 6 6 10 17
BITMAP
08
1C
3C
78
E0
40
ENDCHAR
STARTCHAR 00B5
ENCODING 181
SWIDTH 480 0
DWIDTH 16 0
BBX 17 21 0 -6
BITMAP
070380
060380
0E0300
0E0700
0E0700
0C0700
1C0600
1C0E00
1C0E00
1C0E00
1C0E00
3C0C00
3C3E00
3FFF00
37E700
700000
700000
700000
600000
E00000
E00000
ENDCHAR
STARTCHAR 00B6
ENCODING 182
SWIDTH 480 0
DWIDTH 16 0
BBX 16 27 3 -6
BITMAP
00FE
07FF
1FCE
3FC6
7FC6
7FCE
FF8C
FF8C
FF8C
FF9C
FF18
7F18
3F18
0738
0630
0630
0630
0E70
0C60
0C60
0C60
1CE0
1CE0
18C0
18C0
39C0
39C0
ENDCHAR
STARTCHAR 00B7
ENCODING 183
SWIDTH 480 0
DWIDTH 16 0
BBX 5 5 7 6
BITMAP
78
F8
F8
F8
70
ENDCHAR
STARTCHAR 00B8
ENCODING 184
SWIDTH 480 0
DWIDTH 16 0
BBX 6 7 4 -6
BITMAP
0C
18
18
1C
1C
F8
60
ENDCHAR
STARTCHAR 00B9
ENCODING 185
SWIDTH 480 0
DWIDTH 16 0
BBX 8 12 6 9
BITMAP
03
0F
3E
36
06
06
0C
0C
0C
0C
FF
FF
ENDCHAR
STARTCHAR 00BA
ENCODING 186
SWIDTH 480 0
DWIDTH 16 0
BBX 11 11 6 10
BITMAP
0F80
1FC0
30E0
70E0
60E0
E0C0
C0C0
C1C0
E180
7F00
3E00
ENDCHAR
STARTCHAR 00BB
ENCODING 187
SWIDTH 480 0
DWIDTH 16 0
BBX 13 11 3 2
BITMAP
1860
1860
1C70
0C30
0E38
0E38
1C70
18E0
30C0
71C0
E380
ENDCHAR
STARTCHAR 00BC
ENCODING 188
SWIDTH 480 0
DWIDTH 16 0
BBX 19 21 1 0
BITMAP
0180E0
0781C0
0F0380
0B0300
030600
030E00
061C00
063800
003000
006000
00E000
01C000
018000
030600
071E00
0E3600
1C6600
18CC00
30FE00
700C00
E00C00
ENDCHAR
STARTCHAR 00BD
ENCODING 189
SWIDTH 480 0
DWIDTH 16 0
BBX 18 21 1 0
BITMAP
0180C0
078180
0F0380
0B0700
030E00
030C00
061C00
063800
007000
006000
00C000
01C000
038800
073E00
062600
0C0600
1C0E00
381C00
307000
607E00
E0FE00
ENDCHAR
STARTCHAR 00BE
ENCODING 190
SWIDTH 480 0
DWIDTH 16 0
BBX 19 21 1 0
BITMAP
0F80E0
0F81C0
018380
0F0300
0F0600
018E00
031C00
3F3800
1C3000
006000
00E000
01C000
018000
030600
071E00
0E3600
1C6600
18CC00
30FE00
700C00
E00C00
ENDCHAR
STARTCHAR 00BF
ENCODING 191
SWIDTH 480 0
DWIDTH 16 0
BBX 11 22 3 -6
BITMAP
0040
01E0
01E0
01E0
00E0
0000
0000
0000
0180
0380
0700
0E00
1C00
3800
7000
E000
C000
C000
E000
FF80
7F80
1C00
ENDCHAR
STARTCHAR 00C0
ENCODING 192
SWIDTH 480 0
DWIDTH 16 0
BBX 16 27 0 1
BITMAP
0038
003C
001C
000E
0006
0000
001C
003C
003C
006E
00EE
00CE
01CE
018E
038E
0306
0706
0E06
0C06
1FFE
1FFE
3FFE
3006
7007
7007
E007
E007
ENDCHAR
STARTCHAR 00C1
ENCODING 193
SWIDTH 480 0
DWIDTH 16 0
BBX 18 27 0 1
BITMAP
000180
0003C0
000700
000E00
000C00
000000
001C00
003C00
003C00
006E00
00EE00
00CE00
01CE00
018E00
038E00
030600
070600
0E0600
0C0600
1FFE00
1FFE00
3FFE00
300600
700700
700700
E00700
E00700
ENDCHAR
STARTCHAR 00C2
ENCODING 194
SWIDTH 480 0
DWIDTH 16 0
BBX 17 27 0 1
BITMAP
000600
000F00
001F00
007380
002180
000000
001C00
003C00
003C00
006E00
00EE00
00CE00
01CE00
018E00
038E00
030600
070600
0E0600
0C0600
1FFE00
1FFE00
3FFE00
300600
700700
700700
E00700
E00700
ENDCHAR
STARTCHAR 00C3
ENCODING 195
SWIDTH 480 0
DWIDTH 16 0
BBX 18 26 0 1
BITMAP
007CC0
007FC0
004700
000000
000000
001C00
003C00
003C00
006E00
00EE00
00CE00
01CE00
018E00
038E00
030600
070600
0E0600
0C0600
1FFE00
1FFE00
3FFE00
300600
700700
700700
E00700
E00700
ENDCHAR
STARTCHAR 00C4
ENCODING 196
SWIDTH 480 0
DWIDTH 16 0
BBX 18 26 0 0
BITMAP
0071C0
0079C0
0071C0
000000
000000
001C00
003C00
003C00
006E00
00EE00
00CE00
01CE00
018E00
038E00
030600
070600
0E0600
0C0600
1FFE00
1FFE00
3FFE00
300600
700700
700700
E00700
E00700
ENDCHAR
STARTCHAR 00C5
ENCODING 197
SWIDTH 480 0
DWIDTH 16 0
BBX 16 25 0 0
BITMAP
001C
0036
0023
0023
0036
003E
003C
006E
00EE
00CE
01CE
018E
038E
0306
0706
0E06
0C06
1FFE
1FFE
3FFE
3006
7006
7007
E007
E007
ENDCHAR
STARTCHAR 00C6
ENCODING 198
SWIDTH 480 0
DWIDTH 16 0
BBX 20 21 0 0
BITMAP
001FF0
001FF0
003FF0
003E00
006E00
00EE00
00CC00
01DC00
019C00
039F80
031F80
073800
063800
0FF800
0FF000
1FF000
387000
387000
706000
707F00
E0FF00
ENDCHAR
STARTCHAR 00C7
ENCODING 199
SWIDTH 480 0
DWIDTH 16 0
BBX 16 27 3 -6
BITMAP
00FC
03FF
07CF
0E00
1C00
3800
3800
7000
7000
6000
E000
E000
E000
E000
E000
E000
E000
F000
7830
3FF0
1FE0
0600
0E00
0600
0600
3E00
1800
ENDCHAR
STARTCHAR 00C8
ENCODING 200
SWIDTH 480 0
DWIDTH 16 0
BBX 17 27 2 1
BITMAP
007000
007800
003800
001C00
000C00
000000
07FF80
07FF80
07FF00
060000
0E0000
0E0000
0E0000
0C0000
1C0000
1FFC00
1FF800
180000
380000
380000
380000
300000
700000
700000
700000
7FF800
FFF800
ENDCHAR
STARTCHAR 00C9
ENCODING 201
SWIDTH 480 0
DWIDTH 16 0
BBX 17 27 2 1
BITMAP
000600
000F00
001C00
003800
003000
000000
07FF80
07FF80
07FF00
060000
0E0000
0E0000
0E0000
0C0000
1C0000
1FFC00
1FF800
180000
380000
380000
380000
300000
700000
700000
700000
7FF800
FFF800
ENDCHAR
STARTCHAR 00CA
ENCODING 202
SWIDTH 480 0
DWIDTH 16 0
BBX 17 27 2 1
BITMAP
000800
003C00
007E00
00E700
004200
000000
07FF80
07FF80
07FF00
060000
0E0000
0E0000
0E0000
0C0000
1C0000
1FFC00
1FF800
180000
380000
380000
380000
300000
700000
700000
700000
7FF800
FFF800
ENDCHAR
STARTCHAR 00CB
ENCODING 203
SWIDTH 480 0
DWIDTH 16 0
BBX 17 26 2 0
BITMAP
01E700
01E700
00C700
000000
000000
07FF80
07FF80
07FF00
060000
0E0000
0E0000
0E0000
0C0000
1C0000
1FFC00
1FF800
180000
380000
380000
380000
300000
700000
700000
700000
7FF800
FFF800
ENDCHAR
STARTCHAR 00CC
ENCODING 204
SWIDTH 480 0
DWIDTH 16 0
BBX 16 27 2 1
BITMAP
0060
00F0
0070
0038
0018
0000
07FF
07FF
07FF
0060
00E0
00E0
00E0
00C0
01C0
01C0
01C0
0180
0380
0380
0380
0300
0700
0700
0700
7FE0
FFE0
ENDCHAR
STARTCHAR 00CD
ENCODING 205
SWIDTH 480 0
DWIDTH 16 0
BBX 16 28 2 0
BITMAP
0004
000C
001E
003C
0070
0060
0000
07FF
07FF
07FF
0060
00E0
00E0
00E0
00C0
01C0
01C0
01C0
0180
0380
0380
0380
0300
0700
0700
0700
7FE0
FFE0
ENDCHAR
STARTCHAR 00CE
ENCODING 206
SWIDTH 480 0
DWIDTH 16 0
BBX 16 27 2 1
BITMAP
0018
003C
007C
01CE
0086
0000
07FF
07FF
07FF
0060
00E0
00E0
00E0
00C0
01C0
01C0
01C0
0180
0380
0380
0380
0300
0700
0700
0700
7FE0
FFE0
ENDCHAR
STARTCHAR 00CF
ENCODING 207
SWIDTH 480 0
DWIDTH 16 0
BBX 16 26 2 0
BITMAP
01E7
01E7
00C7
0000
0000
07FF
07FF
07FF
0060
00E0
00E0
00E0
00C0
01C0
01C0
01C0
0180
0380
0380
0380
0300
0700
0700
0700
7FE0
FFE0
ENDCHAR
STARTCHAR 00D0
ENCODING 208
SWIDTH 480 0
DWIDTH 16 0
BBX 15 21 2 0
BITMAP
03E0
07F8
07FC
0E1E
0E0E
0E0E
0C06
1C06
1C06
7F06
FF0E
380E
380E
380C
381C
301C
7038
7070
71E0
7FC0
FF00
ENDCHAR
STARTCHAR 00D1
ENCODING 209
SWIDTH 480 0
DWIDTH 16 0
BBX 18 26 1 1
BITMAP
007980
00FF80
008700
000000
000000
0700C0
0700C0
0781C0
0781C0
0F8180
0FC180
0DC380
0CC380
1CC300
1CE300
186700
186700
386600
386600
307E00
303E00
703C00
703C00
603C00
603C00
E01800
ENDCHAR
STARTCHAR 00D2
ENCODING 210
SWIDTH 480 0
DWIDTH 16 0
BBX 15 27 3 1
BITMAP
00C0
01E0
00F0
0070
0030
0000
01F0
07FC
0F3C
1C0E
380E
380E
700E
700E
600E
E00E
E00E
E00C
E01C
C01C
C018
C038
E070
E070
F1E0
7FC0
3F80
ENDCHAR
STARTCHAR 00D3
ENCODING 211
SWIDTH 480 0
DWIDTH 16 0
BBX 15 27 3 1
BITMAP
000C
001C
0038
0070
0040
0000
01F0
07FC
0F3C
1C0E
380E
380E
700E
700E
600E
E00E
E00E
E00C
E01C
C01C
C018
C038
E070
E070
F1E0
7FC0
3F80
ENDCHAR
STARTCHAR 00D4
ENCODING 212
SWIDTH 480 0
DWIDTH 16 0
BBX 15 27 3 1
BITMAP
0030
0078
00F8
018C
0104
0000
01F0
07FC
0F3C
1C0E
380E
380E
700E
700E
600E
E00E
E00E
E00C
E01C
C01C
C018
C038
E070
E070
F1E0
7FC0
3F80
ENDCHAR
STARTCHAR 00D5
ENCODING 213
SWIDTH 480 0
DWIDTH 16 0
BBX 16 26 3 1
BITMAP
01E7
03FE
021C
0000
0000
01F0
07FC
0F3C
1C0E
380E
380E
700E
700E
600E
E00E
E00E
E00C
E01C
C01C
C018
C038
E070
E070
F1E0
7FC0
3F80
ENDCHAR
STARTCHAR 00D6
ENCODING 214
SWIDTH 480 0
DWIDTH 16 0
BBX 15 26 3 0
BITMAP
01CE
03CE
018E
0000
0000
01F0
07FC
0F3C
1C0E
380E
380E
700E
700E
600E
E00E
E00E
E00C
E01C
C01C
C018
C038
E070
E070
F1E0
7FC0
3F80
ENDCHAR
STARTCHAR 00D7
ENCODING 215
SWIDTH 480 0
DWIDTH 16 0
BBX 14 12 3 3
BITMAP
0008
381C
1C38
1CF0
0FE0
07C0
0780
0F80
3DC0
78E0
E070
4060
ENDCHAR
STARTCHAR 00D8
ENCODING 216
SWIDTH 480 0
DWIDTH 16 0
BBX 17 22 2 0
BITMAP
01FB80
03FF00
079E00
0E0E00
1C1F00
183F00
383700
307700
70E700
70C600
718600
638E00
670E00
E60C00
EE1C00
FC1C00
F83800
707800
70F000
FFE000
DF8000
800000
ENDCHAR
STARTCHAR 00D9
ENCODING 217
SWIDTH 480 0
DWIDTH 16 0
BBX 16 27 3 1
BITMAP
0180
03C0
01E0
00E0
0060
0000
1C07
1C07
1807
3806
380E
380E
300E
700E
700C
701C
601C
E01C
E018
E038
E038
C038
C070
E070
F0E0
7FC0
3F80
ENDCHAR
STARTCHAR 00DA
ENCODING 218
SWIDTH 480 0
DWIDTH 16 0
BBX 16 27 3 1
BITMAP
000C
001E
0038
0070
0060
0000
1C07
1C07
1807
3806
380E
380E
300E
700E
700C
701C
601C
E01C
E018
E038
E038
C038
C070
E070
F0E0
7FC0
3F80
ENDCHAR
STARTCHAR 00DB
ENCODING 219
SWIDTH 480 0
DWIDTH 16 0
BBX 16 27 3 1
BITMAP
0030
0078
00F8
039C
010C
0000
1C07
1C07
1807
3806
380E
380E
300E
700E
700C
701C
601C
E01C
E018
E038
E038
C038
C070
E070
F0E0
7FC0
3F80
ENDCHAR
STARTCHAR 00DC
ENCODING 220
SWIDTH 480 0
DWIDTH 16 0
BBX 16 26 3 0
BITMAP
03CE
03CE
018E
0000
0000
1C07
1C07
1807
3806
380E
380E
300E
700E
700C
701C
601C
E01C
E018
E038
E038
C038
C070
E070
F0E0
7FC0
3F80
ENDCHAR
STARTCHAR 00DD
ENCODING 221
SWIDTH 480 0
DWIDTH 16 0
BBX 16 27 5 1
BITMAP
0030
0078
00F0
01C0
0180
0000
E007
E00E
E01C
E01C
6038
7070
7070
70E0
31C0
3B80
3B00
1F00
1E00
1C00
1C00
1C00
1800
3800
3800
3800
3000
ENDCHAR
STARTCHAR 00DE
ENCODING 222
SWIDTH 480 0
DWIDTH 16 0
BBX 15 21 2 0
BITMAP
0600
0E00
0E00
0E00
0FF8
1FFC
1C3E
1C0E
1C0E
180E
380E
380E
381C
303C
7FF8
7FE0
7F00
6000
E000
E000
E000
ENDCHAR
STARTCHAR 00DF
ENCODING 223
SWIDTH 480 0
DWIDTH 16 0
BBX 20 29 -3 -6
BITMAP
0007C0
001FE0
001EF0
003870
003870
007070
0070F0
0071E0
0063C0
00E780
00E700
00EE00
00EE00
00C700
01C7C0
01C1E0
01C0E0
018070
038070
038060
0380E0
03BFC0
033F80
070000
070000
0E0000
FE0000
FC0000
700000
ENDCHAR
STARTCHAR 00E0
ENCODING 224
SWIDTH 480 0
DWIDTH 16 0
BBX 15 23 2 0
BITMAP
0040
00E0
00E0
0070
0038
0010
0000
00FC
03FE
0FFE
1E0C
3C0C
381C
701C
701C
6018
E038
E038
E038
6030
70F0
7FF8
3FB8
ENDCHAR
STARTCHAR 00E1
ENCODING 225
SWIDTH 480 0
DWIDTH 16 0
BBX 15 23 2 0
BITMAP
0004
000E
001E
0038
0070
0020
0000
00FC
03FE
0FFE
1E0C
3C0C
381C
701C
701C
6018
E038
E038
E038
6030
70F0
7FF8
3FB8
ENDCHAR
STARTCHAR 00E2
ENCODING 226
SWIDTH 480 0
DWIDTH 16 0
BBX 15 23 2 0
BITMAP
0010
0038
0078
00FC
018E
0004
0000
00FC
03FE
0FFE
1E0C
3C0C
381C
701C
701C
6018
E038
E038
E038
6030
70F0
7FF8
3FB8
ENDCHAR
STARTCHAR 00E3
ENCODING 227
SWIDTH 480 0
DWIDTH 16 0
BBX 16 22 2 0
BITMAP
00E3
01FF
03BE
0108
0000
0000
00FC
03FE
0FFE
1E0C
3C0C
381C
701C
701C
6018
E038
E038
E038
6030
70F0
7FF8
3FB8
ENDCHAR
STARTCHAR 00E4
ENCODING 228
SWIDTH 480 0
DWIDTH 16 0
BBX 16 22 2 0
BITMAP
00C3
01C7
01C7
0082
0000
0000
00FC
03FE
0FFE
1E0C
3C0C
381C
701C
701C
6018
E038
E038
E038
6030
70F0
7FF8
3FB8
ENDCHAR
STARTCHAR 00E5
ENCODING 229
SWIDTH 480 0
DWIDTH 16 0
BBX 15 23 2 0
BITMAP
0078
00CC
00C4
00C4
007C
0038
0000
00FC
03FE
0FFE
1E0C
3C0C
381C
701C
701C
6018
E038
E038
E038
6030
70F0
7FF8
3FB8
ENDCHAR
STARTCHAR 00E6
ENCODING 230
SWIDTH 480 0
DWIDTH 16 0
BBX 16 16 2 0
BITMAP
1E0E
3F3F
3FFF
03E7
01C3
01C7
0186
1FBE
3FFC
73F0
E380
C380
C780
CFC4
FDF8
F8F8
ENDCHAR
STARTCHAR 00E7
ENCODING 231
SWIDTH 480 0
DWIDTH 16 0
BBX 15 22 2 -6
BITMAP
00FC
07FE
0FDC
1E00
3800
7800
7000
7000
6000
E000
E000
E000
7000
7810
3FF0
1FF0
0600
0600
0700
0700
3E00
1800
ENDCHAR
STARTCHAR 00E8
ENCODING 232
SWIDTH 480 0
DWIDTH 16 0
BBX 15 23 2 0
BITMAP
0040
00E0
00E0
0070
0038
0010
0000
01F0
07FC
0FBC
1C0E
380E
700E
701C
70F8
7FF0
FF80
E000
E000
7000
7810
3FF0
1FF0
ENDCHAR
STARTCHAR 00E9
ENCODING 233
SWIDTH 480 0
DWIDTH 16 0
BBX 15 23 2 0
BITMAP
0008
001C
003C
0078
00E0
0040
0000
01F0
07FC
0FBC
1C0E
380E
700E
701C
70F8
7FF0
FF80
E000
E000
7000
7810
3FF0
1FF0
ENDCHAR
STARTCHAR 00EA
ENCODING 234
SWIDTH 480 0
DWIDTH 16 0
BBX 15 23 2 0
BITMAP
0010
0030
00F8
01DC
018C
0100
0000
01F0
07FC
0FBC
1C0E
380E
700E
701C
70F8
7FF0
FF80
E000
E000
7000
7810
3FF0
1FF0
ENDCHAR
STARTCHAR 00EB
ENCODING 235
SWIDTH 480 0
DWIDTH 16 0
BBX 16 22 2 0
BITMAP
0086
01CF
01CF
0186
0000
0000
01F0
07FC
0FBC
1C0E
380E
700E
701C
70F8
7FF0
FF80
E000
E000
7000
7810
3FF0
1FF0
ENDCHAR
STARTCHAR 00EC
ENCODING 236
SWIDTH 480 0
DWIDTH 16 0
BBX 9 23 5 0
BITMAP
0800
1C00
1E00
0E00
0700
0300
0000
0000
FE00
FE00
0E00
0C00
1C00
1C00
1C00
1800
3800
3800
3800
3800
3C00
1F80
0F80
ENDCHAR
STARTCHAR 00ED
ENCODING 237
SWIDTH 480 0
DWIDTH 16 0
BBX 10 23 5 0
BITMAP
0080
01C0
03C0
0700
0E00
0400
0000
0000
FE00
FE00
0E00
0C00
1C00
1C00
1C00
1800
3800
3800
3800
3800
3C00
1F80
0F80
ENDCHAR
STARTCHAR 00EE
ENCODING 238
SWIDTH 480 0
DWIDTH 16 0
BBX 10 23 5 0
BITMAP
0200
0700
0F80
1D80
31C0
0080
0000
0000
FE00
FE00
0E00
0C00
1C00
1C00
1C00
1800
3800
3800
3800
3800
3C00
1F80
0F80
ENDCHAR
STARTCHAR 00EF
ENCODING 239
SWIDTH 480 0
DWIDTH 16 0
BBX 11 22 5 0
BITMAP
18C0
38E0
38E0
1040
0000
0000
0000
FE00
FE00
0E00
0C00
1C00
1C00
1C00
1800
3800
3800
3800
3800
3C00
1F80
0F80
ENDCHAR
STARTCHAR 00F0
ENCODING 240
SWIDTH 480 0
DWIDTH 16 0
BBX 16 23 3 0
BITMAP
00C0
01E0
00E7
007F
01F8
03F8
0038
0018
011C
0FFC
3FFC
783C
701C
E018
E038
E038
C038
C070
C070
E0E0
F1E0
7FC0
3F00
ENDCHAR
STARTCHAR 00F1
ENCODING 241
SWIDTH 480 0
DWIDTH 16 0
BBX 15 22 2 0
BITMAP
01C2
03FE
077C
0210
0000
0000
03F0
0FF8
1FFC
1C1C
1C0C
180C
380C
381C
381C
301C
7018
7038
7038
6038
E030
E070
ENDCHAR
STARTCHAR 00F2
ENCODING 242
SWIDTH 480 0
DWIDTH 16 0
BBX 14 23 3 0
BITMAP
0100
0380
01C0
00E0
0070
0020
0000
03E0
0FF0
1FF8
3C3C
701C
701C
E01C
E01C
E01C
E038
C038
C070
E070
F1E0
7FC0
3F80
ENDCHAR
STARTCHAR 00F3
ENCODING 243
SWIDTH 480 0
DWIDTH 16 0
BBX 14 23 3 0
BITMAP
0010
0038
0078
00F0
01C0
0080
0000
03E0
0FF0
1FF8
3C3C
701C
701C
E01C
E01C
E01C
E038
C038
C070
E070
F1E0
7FC0
3F80
ENDCHAR
STARTCHAR 00F4
ENCODING 244
SWIDTH 480 0
DWIDTH 16 0
BBX 14 23 3 0
BITMAP
0020
0060
01F0
03B8
0318
0200
0000
03E0
0FF0
1FF8
3C3C
701C
701C
E01C
E01C
E01C
E038
C038
C070
E070
F1E0
7FC0
3F80
ENDCHAR
STARTCHAR 00F5
ENCODING 245
SWIDTH 480 0
DWIDTH 16 0
BBX 14 22 3 0
BITMAP
0184
07FC
06FC
0400
0000
0000
03E0
0FF0
1FF8
3C3C
701C
701C
E01C
E01C
E01C
E038
C038
C070
E070
F1E0
7FC0
3F80
ENDCHAR
STARTCHAR 00F6
ENCODING 246
SWIDTH 480 0
DWIDTH 16 0
BBX 14 22 3 0
BITMAP
030C
079C
079C
0308
0000
0000
03E0
0FF0
1FF8
3C3C
701C
701C
E01C
E01C
E01C
E038
C038
C070
E070
F1E0
7FC0
3F80
ENDCHAR
STARTCHAR 00F7
ENCODING 247
SWIDTH 480 0
DWIDTH 16 0
BBX 14 15 3 1
BITMAP
03C0
03C0
03C0
0180
0000
0000
FFFC
FFF8
0000
0000
0000
0700
0F00
0F00
0600
ENDCHAR
STARTCHAR 00F8
ENCODING 248
SWIDTH 480 0
DWIDTH 16 0
BBX 17 17 1 0
BITMAP
00F980
03FF80
07FF00
0F0F00
1C1F00
1C3F00
387700
38E700
39C700
338E00
370E00
3E1C00
3C1C00
3C7800
7FF000
EFE000
400000
ENDCHAR
STARTCHAR 00F9
ENCODING 249
SWIDTH 480 0
DWIDTH 16 0
BBX 14 23 3 0
BITMAP
0100
0700
0380
01C0
00E0
0040
0000
0000
381C
301C
7018
7038
7038
6038
E038
E070
E070
E070
E070
E0E0
E1E0
FFF0
7F70
ENDCHAR
STARTCHAR 00FA
ENCODING 250
SWIDTH 480 0
DWIDTH 16 0
BBX 14 23 3 0
BITMAP
0010
0030
0070
00E0
01C0
0100
0000
0000
381C
301C
7018
7038
7038
6038
E038
E070
E070
E070
E070
E0E0
E1E0
FFF0
7F70
ENDCHAR
STARTCHAR 00FB
ENCODING 251
SWIDTH 480 0
DWIDTH 16 0
BBX 14 23 3 0
BITMAP
0040
00E0
01E0
03F0
0638
0010
0000
0000
381C
301C
7018
7038
7038
6038
E038
E070
E070
E070
E070
E0E0
E1E0
FFF0
7F70
ENDCHAR
STARTCHAR 00FC
ENCODING 252
SWIDTH 480 0
DWIDTH 16 0
BBX 14 22 3 0
BITMAP
0618
073C
0F38
0210
0000
0000
0000
381C
301C
7018
7038
7038
6038
E038
E070
E070
E070
E070
E0E0
E1E0
FFF0
7F70
ENDCHAR
STARTCHAR 00FD
ENCODING 253
SWIDTH 480 0
DWIDTH 16 0
BBX 18 29 0 -6
BITMAP
000200
000600
000E00
001C00
003800
002000
000000
000000
0601C0
060380
070380
070380
070700
070700
070E00
030E00
038C00
039C00
039800
03B800
01F000
01F000
01E000
01C000
038000
078000
FF0000
FC0000
600000
ENDCHAR
STARTCHAR 00FE
ENCODING 254
SWIDTH 480 0
DWIDTH 16 0
BBX 16 29 1 -6
BITMAP
0380
0380
0380
0300
0700
0700
0700
0678
0FFC
0FFE
0E0F
0C07
1C07
1C07
1C07
1806
380E
380E
381C
303C
30F8
7FF0
7FC0
7000
6000
E000
E000
E000
C000
ENDCHAR
STARTCHAR 00FF
ENCODING 255
SWIDTH 480 0
DWIDTH 16 0
BBX 18 28 0 -6
BITMAP
00C300
00E780
01E700
004200
000000
000000
000000
0601C0
060380
070380
070380
070700
070700
070E00
030E00
038C00
039C00
039800
03B800
01F000
01F000
01E000
01C000
038000
078000
FF0000
FC0000
600000
ENDCHAR
STARTCHAR 0100
ENCODING 256
SWIDTH 480 0
DWIDTH 16 0
BBX 18 26 0 0
BITMAP
007FC0
007FC0
000000
000000
000000
001C00
003C00
003C00
006E00
00EE00
00CE00
01CE00
018E00
038E00
030600
070600
0E0600
0C0600
1FFE00
1FFE00
3FFE00
300600
700700
700700
E00700
E00700
ENDCHAR
STARTCHAR 0101
ENCODING 257
SWIDTH 480 0
DWIDTH 16 0
BBX 16 21 2 0
BITMAP
01FF
01FE
0000
0000
0000
00FC
03FE
0FFE
1E0C
3C0C
381C
701C
701C
6018
E038
E038
E038
6030
70F0
7FF8
3FB8
ENDCHAR
STARTCHAR 0102
ENCODING 258
SWIDTH 480 0
DWIDTH 16 0
BBX 18 27 0 0
BITMAP
0030C0
0031C0
003F80
001F00
000000
000000
001C00
003C00
003C00
006E00
00EE00
00CE00
01CE00
018E00
038E00
030600
070600
0E0600
0C0600
1FFE00
1FFE00
3FFE00
300600
700700
700700
E00700
E00700
ENDCHAR
STARTCHAR 0103
ENCODING 259
SWIDTH 480 0
DWIDTH 16 0
BBX 16 22 2 0
BITMAP
00C3
00C6
00FE
0038
0000
0000
00FC
03FE
0FFE
1E0C
3C0C
381C
701C
701C
6018
E038
E038
E038
6030
70F0
7FF8
3FB8
ENDCHAR
STARTCHAR 0104
ENCODING 260
SWIDTH 480 0
DWIDTH 16 0
BBX 16 27 0 -6
BITMAP
001C
003C
003C
006E
00EE
00CE
01CE
018E
038E
0306
0706
0E06
0C06
1FFE
1FFE
3FFE
3006
7007
7007
E007
E007
000E
001C
0038
0038
003E
0008
ENDCHAR
STARTCHAR 0105
ENCODING 261
SWIDTH 480 0
DWIDTH 16 0
BBX 15 22 2 -6
BITMAP
00FC
03FE
0FFE
1E0C
3C0C
381C
701C
701C
6018
E038
E038
E038
6030
70F0
7FF8
3FB8
0070
00E0
01C0
01C0
01F0
0040
ENDCHAR
STARTCHAR 0106
ENCODING 262
SWIDTH 480 0
DWIDTH 16 0
BBX 16 27 3 1
BITMAP
000C
001E
003C
0070
0060
0000
00FC
03FF
07CF
0E00
1C00
3800
3800
7000
7000
6000
E000
E000
E000
E000
E000
E000
E000
F000
7830
3FF0
1FE0
ENDCHAR
STARTCHAR 0107
ENCODING 263
SWIDTH 480 0
DWIDTH 16 0
BBX 15 23 2 0
BITMAP
0004
000E
001E
0038
0070
0020
0000
00FC
07FE
0FDC
1E00
3800
7800
7000
7000
6000
E000
E000
E000
7000
7810
3FF0
1FF0
ENDCHAR
STARTCHAR 0108
ENCODING 264
SWIDTH 480 0
DWIDTH 16 0
BBX 16 27 3 1
BITMAP
0018
003C
007C
00C6
0082
0000
00FC
03FF
07CF
0E00
1C00
3800
3800
7000
7000
6000
E000
E000
E000
E000
E000
E000
E000
F000
7830
3FF0
1FE0
ENDCHAR
STARTCHAR 0109
ENCODING 265
SWIDTH 480 0
DWIDTH 16 0
BBX 15 23 2 0
BITMAP
0010
0038
0078
00FC
018E
0004
0000
00FC
07FE
0FDC
1E00
3800
7800
7000
7000
6000
E000
E000
E000
7000
7810
3FF0
1FF0
ENDCHAR
STARTCHAR 010A
ENCODING 266
SWIDTH 480 0
DWIDTH 16 0
BBX 16 26 3 1
BITMAP
0038
0078
0030
0000
0000
00FC
03FF
07CF
0E00
1C00
3800
3800
7000
7000
6000
E000
E000
E000
E000
E000
E000
E000
F000
7830
3FF0
1FE0
ENDCHAR
STARTCHAR 010B
ENCODING 267
SWIDTH 480 0
DWIDTH 16 0
BBX 15 22 2 0
BITMAP
0038
0038
0038
0010
0000
0000
00FC
07FE
0FDC
1E00
3800
7800
7000
7000
6000
E000
E000
E000
7000
7810
3FF0
1FF0
ENDCHAR
STARTCHAR 010C
ENCODING 268
SWIDTH 480 0
DWIDTH 16 0
BBX 16 27 3 1
BITMAP
00C7
006E
007C
0038
0010
0000
00FC
03FF
07CF
0E00
1C00
3800
3800
7000
7000
6000
E000
E000
E000
E000
E000
E000
E000
F000
7830
3FF0
1FE0
ENDCHAR
STARTCHAR 010D
ENCODING 269
SWIDTH 480 0
DWIDTH 16 0
BBX 15 23 2 0
BITMAP
0082
00C6
00FC
0078
0030
0000
0000
00FC
07FE
0FDC
1E00
3800
7800
7000
7000
6000
E000
E000
E000
7000
7810
3FF0
1FF0
ENDCHAR
STARTCHAR 010E
ENCODING 270
SWIDTH 480 0
DWIDTH 16 0
BBX 16 27 1 1
BITMAP
00C7
00EE
007C
0038
0010
0000
03E0
07FC
07FE
0E0F
0E07
0E07
0C03
1C03
1C03
1C03
1807
3807
3807
3806
300E
701E
701C
7078
61F0
FFE0
FF80
ENDCHAR
STARTCHAR 010F
ENCODING 271
SWIDTH 480 0
DWIDTH 16 0
BBX 19 23 2 0
BITMAP
000E60
000EE0
000CE0
001CC0
001CC0
001C80
001980
01F800
0FF800
1FF800
3C3000
787000
707000
E07000
E06000
E0E000
C0E000
C0E000
C0C000
E0C000
E3C000
FFE000
7EE000
ENDCHAR
STARTCHAR 0110
ENCODING 272
SWIDTH 480 0
DWIDTH 16 0
BBX 15 21 2 0
BITMAP
03E0
07F8
07FC
0E1E
0E0E
0E0E
0C06
1C06
1C06
7F06
FF0E
380E
380E
380C
381C
301C
7038
7070
71E0
7FC0
FF00
ENDCHAR
STARTCHAR 0111
ENCODING 273
SWIDTH 480 0
DWIDTH 16 0
BBX 17 23 3 0
BITMAP
000700
000600
000E00
01FF80
03FF80
000C00
001C00
01FC00
07FC00
1FF800
3C1800
783800
703800
E03000
E03000
E07000
E07000
C06000
C06000
E0E000
E1E000
7FE000
7F7000
ENDCHAR
STARTCHAR 0112
ENCODING 274
SWIDTH 480 0
DWIDTH 16 0
BBX 17 26 2 0
BITMAP
00FF00
00FF00
000000
000000
000000
07FF80
07FF80
07FF00
060000
0E0000
0E0000
0E0000
0C0000
1C0000
1FFC00
1FF800
180000
380000
380000
380000
300000
700000
700000
700000
7FF800
FFF800
ENDCHAR
STARTCHAR 0113
ENCODING 275
SWIDTH 480 0
DWIDTH 16 0
BBX 15 21 2 0
BITMAP
01FE
01FE
0000
0000
0000
01F0
07FC
0FBC
1C0E
380E
700E
701C
70F8
7FF0
FF80
E000
E000
7000
7810
3FF0
1FF0
ENDCHAR
STARTCHAR 0114
ENCODING 276
SWIDTH 480 0
DWIDTH 16 0
BBX 17 27 2 0
BITMAP
004180
006300
007F00
003E00
000000
000000
07FF80
07FF80
07FF00
060000
0E0000
0E0000
0E0000
0C0000
1C0000
1FFC00
1FF800
180000
380000
380000
380000
300000
700000
700000
700000
7FF800
FFF800
ENDCHAR
STARTCHAR 0115
ENCODING 277
SWIDTH 480 0
DWIDTH 16 0
BBX 15 22 2 0
BITMAP
0186
00CE
00FC
0078
0000
0000
01F0
07FC
0FBC
1C0E
380E
700E
701C
70F8
7FF0
FF80
E000
E000
7000
7810
3FF0
1FF0
ENDCHAR
STARTCHAR 0116
ENCODING 278
SWIDTH 480 0
DWIDTH 16 0
BBX 17 26 2 1
BITMAP
003C00
003C00
003800
000000
000000
07FF80
07FF80
07FF00
060000
0E0000
0E0000
0E0000
0C0000
1C0000
1FFC00
1FF800
180000
380000
380000
380000
300000
700000
700000
700000
7FF800
FFF800
ENDCHAR
STARTCHAR 0117
ENCODING 279
SWIDTH 480 0
DWIDTH 16 0
BBX 15 22 2 0
BITMAP
0030
0078
0070
0030
0000
0000
01F0
07FC
0FBC
1C0E
380E
700E
701C
70F8
7FF0
FF80
E000
E000
7000
7810
3FF0
1FF0
ENDCHAR
STARTCHAR 0118
ENCODING 280
SWIDTH 480 0
DWIDTH 16 0
BBX 17 27 2 -6
BITMAP
07FF80
07FF80
07FF00
060000
0E0000
0E0000
0E0000
0C0000
1C0000
1FFC00
1FF800
180000
380000
380000
380000
300000
700000
700000
700000
7FF800
FFF800
007000
00C000
01C000
01C000
01F000
004000
ENDCHAR
STARTCHAR 0119
ENCODING 281
SWIDTH 480 0
DWIDTH 16 0
BBX 15 22 2 -6
BITMAP
01F0
07FC
0FBC
1C0E
380E
700E
701C
70F8
7FF0
FF80
E000
E000
7000
7810
3FF0
1FF0
00E0
0180
0380
0380
03E0
0080
ENDCHAR
STARTCHAR 011A
ENCODING 282
SWIDTH 480 0
DWIDTH 16 0
BBX 17 27 2 1
BITMAP
006300
007700
003E00
001800
001000
000000
07FF80
07FF80
07FF00
060000
0E0000
0E0000
0E0000
0C0000
1C0000
1FFC00
1FF800
180000
380000
380000
380000
300000
700000
700000
700000
7FF800
FFF800
ENDCHAR
STARTCHAR 011B
ENCODING 283
SWIDTH 480 0
DWIDTH 16 0
BBX 15 23 2 0
BITMAP
0080
01CE
00FC
0078
0070
0000
0000
01F0
07FC
0FBC
1C0E
380E
700E
701C
70F8
7FF0
FF80
E000
E000
7000
7810
3FF0
1FF0
ENDCHAR
STARTCHAR 011C
ENCODING 284
SWIDTH 480 0
DWIDTH 16 0
BBX 16 27 3 1
BITMAP
0010
0078
00FC
01CE
0084
0000
00FC
03FF
0F8E
1E00
1C00
3800
7000
7000
6000
E000
E000
E018
C038
C038
C038
E038
E030
E070
7870
7FF0
3FE0
ENDCHAR
STARTCHAR 011D
ENCODING 285
SWIDTH 480 0
DWIDTH 16 0
BBX 17 29 1 -6
BITMAP
000800
001C00
003E00
007600
00E300
000000
000000
003E00
01FF80
03FF00
0F0700
0E0700
1C0700
1C0600
380E00
380E00
380E00
380C00
381C00
383C00
1FFC00
0FF800
003800
003800
007000
00F000
FFE000
FFC000
080000
ENDCHAR
STARTCHAR 011E
ENCODING 286
SWIDTH 480 0
DWIDTH 16 0
BBX 16 27 3 0
BITMAP
0083
00C6
00FE
007C
0000
0000
00FC
03FF
0F8E
1E00
1C00
3800
7000
7000
6000
E000
E000
E018
C038
C038
C038
E038
E030
E070
7870
7FF0
3FE0
ENDCHAR
STARTCHAR 011F
ENCODING 287
SWIDTH 480 0
DWIDTH 16 0
BBX 17 28 1 -6
BITMAP
006180
006300
007F00
003C00
000000
000000
003E00
01FF80
03FF00
0F0700
0E0700
1C0700
1C0600
380E00
380E00
380E00
380C00
381C00
383C00
1FFC00
0FF800
003800
003800
007000
00F000
FFE000
FFC000
080000
ENDCHAR
STARTCHAR 0120
ENCODING 288
SWIDTH 480 0
DWIDTH 16 0
BBX 16 26 3 1
BITMAP
0078
0078
0070
0000
0000
00FC
03FF
0F8E
1E00
1C00
3800
7000
7000
6000
E000
E000
E018
C038
C038
C038
E038
E030
E070
7870
7FF0
3FE0
ENDCHAR
STARTCHAR 0121
ENCODING 289
SWIDTH 480 0
DWIDTH 16 0
BBX 17 28 1 -6
BITMAP
001C00
001C00
001C00
000800
000000
000000
003E00
01FF80
03FF00
0F0700
0E0700
1C0700
1C0600
380E00
380E00
380E00
380C00
381C00
383C00
1FFC00
0FF800
003800
003800
007000
00F000
FFE000
FFC000
080000
ENDCHAR
STARTCHAR 0122
ENCODING 290
SWIDTH 480 0
DWIDTH 16 0
BBX 16 27 3 -6
BITMAP
00FC
03FF
0F8E
1E00
1C00
3800
7000
7000
6000
E000
E000
E018
C038
C038
C038
E038
E030
E070
7870
7FF0
3FE0
0000
0E00
0C00
1C00
7800
6000
ENDCHAR
STARTCHAR 0123
ENCODING 291
SWIDTH 480 0
DWIDTH 16 0
BBX 17 29 1 -6
BITMAP
000300
000F00
000E00
001C00
001C00
000000
000000
003E00
01FF80
03FF00
0F0700
0E0700
1C0700
1C0600
380E00
380E00
380E00
380C00
381C00
383C00
1FFC00
0FF800
003800
003800
007000
00F000
FFE000
FFC000
080000
ENDCHAR
STARTCHAR 0124
ENCODING 292
SWIDTH 480 0
DWIDTH 16 0
BBX 18 27 1 1
BITMAP
000C00
001E00
003E00
00E700
004300
000000
0701C0
0701C0
0601C0
0E0180
0E0380
0E0380
0C0380
1C0380
1C0300
1FFF00
1FFF00
380700
380600
380E00
380E00
300E00
700C00
701C00
701C00
601C00
E01800
ENDCHAR
STARTCHAR 0125
ENCODING 293
SWIDTH 480 0
DWIDTH 16 0
BBX 14 27 2 1
BITMAP
01C0
03E0
0670
0420
0300
0600
0E00
0E00
0E00
0C00
1C00
1DE0
1FF8
1FF8
381C
381C
381C
381C
301C
7018
7038
7038
6038
E030
E070
E070
C070
ENDCHAR
STARTCHAR 0126
ENCODING 294
SWIDTH 480 0
DWIDTH 16 0
BBX 18 21 2 0
BITMAP
070300
070700
0E0700
3FFFC0
3FFFC0
0E0E00
0C0E00
1C0E00
1C0C00
1FFC00
1FFC00
381C00
381800
383800
303800
703800
703000
707000
607000
E07000
E06000
ENDCHAR
STARTCHAR 0127
ENCODING 295
SWIDTH 480 0
DWIDTH 16 0
BBX 13 23 3 0
BITMAP
0700
0700
0600
3FF0
3FF0
0E00
0C00
1DE0
1FF0
1FF8
1838
3818
3818
3818
3038
7038
7038
7030
7070
6070
E070
E060
E0E0
ENDCHAR
STARTCHAR 0128
ENCODING 296
SWIDTH 480 0
DWIDTH 16 0
BBX 16 26 2 1
BITMAP
00F3
01FF
011C
0000
0000
07FF
07FF
07FF
0060
00E0
00E0
00E0
00C0
01C0
01C0
01C0
0180
0380
0380
0380
0300
0700
0700
0700
7FE0
FFE0
ENDCHAR
STARTCHAR 0129
ENCODING 297
SWIDTH 480 0
DWIDTH 16 0
BBX 11 22 5 0
BITMAP
0C20
3FE0
37E0
2000
0000
0000
0000
FE00
FE00
0E00
0C00
1C00
1C00
1C00
1800
3800
3800
3800
3800
3C00
1F80
0F80
ENDCHAR
STARTCHAR 012A
ENCODING 298
SWIDTH 480 0
DWIDTH 16 0
BBX 16 26 2 0
BITMAP
00FF
00FF
0000
0000
0000
07FF
07FF
07FF
0060
00E0
00E0
00E0
00C0
01C0
01C0
01C0
0180
0380
0380
0380
0300
0700
0700
0700
7FE0
FFE0
ENDCHAR
STARTCHAR 012B
ENCODING 299
SWIDTH 480 0
DWIDTH 16 0
BBX 11 21 5 0
BITMAP
1FE0
3FE0
0000
0000
0000
0000
FE00
FE00
0E00
0C00
1C00
1C00
1C00
1800
3800
3800
3800
3800
3C00
1F80
0F80
ENDCHAR
STARTCHAR 012C
ENCODING 300
SWIDTH 480 0
DWIDTH 16 0
BBX 16 27 2 0
BITMAP
00C3
00C7
00FE
007C
0000
0000
07FF
07FF
07FF
0060
00E0
00E0
00E0
00C0
01C0
01C0
01C0
0180
0380
0380
0380
0300
0700
0700
0700
7FE0
FFE0
ENDCHAR
STARTCHAR 012D
ENCODING 301
SWIDTH 480 0
DWIDTH 16 0
BBX 11 22 5 0
BITMAP
1860
1CE0
0FC0
0780
0000
0000
0000
FE00
FE00
0E00
0C00
1C00
1C00
1C00
1800
3800
3800
3800
3800
3C00
1F80
0F80
ENDCHAR
STARTCHAR 012E
ENCODING 302
SWIDTH 480 0
DWIDTH 16 0
BBX 16 27 2 -6
BITMAP
07FF
07FF
07FF
0060
00E0
00E0
00E0
00C0
01C0
01C0
01C0
0180
0380
0380
0380
0300
0700
0700
0700
7FE0
FFE0
0C00
1800
3000
7000
3C00
0800
ENDCHAR
STARTCHAR 012F
ENCODING 303
SWIDTH 480 0
DWIDTH 16 0
BBX 9 28 5 -6
BITMAP
0700
0F00
0F00
0F00
0000
0000
0000
FE00
FE00
0E00
0C00
1C00
1C00
1C00
1800
3800
3800
3800
3800
3C00
1F80
0F80
0700
0E00
1C00
1C00
1F00
0400
ENDCHAR
STARTCHAR 0130
ENCODING 304
SWIDTH 480 0
DWIDTH 16 0
BBX 16 27 2 0
BITMAP
0010
0038
0038
0038
0000
0000
07FF
07FF
07FF
0060
00E0
00E0
00E0
00C0
01C0
01C0
01C0
0180
0380
0380
0380
0300
0700
0700
0700
7FE0
FFE0
ENDCHAR
STARTCHAR 0131
ENCODING 305
SWIDTH 480 0
DWIDTH 16 0
BBX 9 15 5 0
BITMAP
FE00
FE00
0E00
0C00
1C00
1C00
1C00
1800
3800
3800
3800
3800
3C00
1F80
0F80
ENDCHAR
STARTCHAR 0132
ENCODING 306
SWIDTH 480 0
DWIDTH 16 0
BBX 19 21 1 0
BITMAP
0600E0
0E00E0
0E00C0
0E01C0
0C01C0
1C01C0
1C0180
1C0380
180380
380380
380300
380700
300700
700700
700700
700E00
600E00
600E00
E61C00
E7F800
E7F000
ENDCHAR
STARTCHAR 0133
ENCODING 307
SWIDTH 480 0
DWIDTH 16 0
BBX 15 28 3 -6
BITMAP
070E
0F1E
0F1E
060C
0000
0000
0000
0C38
1C38
1C38
1C38
1830
3870
3870
3870
3860
30E0
70E0
70E0
70C0
61C0
E1C0
01C0
0380
0380
3F00
3E00
3000
ENDCHAR
STARTCHAR 0134
ENCODING 308
SWIDTH 480 0
DWIDTH 16 0
BBX 16 27 2 1
BITMAP
000C
001E
003E
0063
0041
0000
01FF
03FF
03FF
0007
0006
000E
000E
000E
000E
000C
001C
001C
001C
0018
0038
0038
0038
0070
60F0
FFE0
3FC0
ENDCHAR
STARTCHAR 0135
ENCODING 309
SWIDTH 480 0
DWIDTH 16 0
BBX 16 29 1 -6
BITMAP
0008
001C
003C
007E
00C7
0002
0000
0000
03FE
07FC
001C
001C
001C
0018
0038
0038
0038
0038
0030
0070
0070
0070
0060
00E0
00E0
01C0
FFC0
FF00
1C00
ENDCHAR
STARTCHAR 0136
ENCODING 310
SWIDTH 480 0
DWIDTH 16 0
BBX 17 27 2 -6
BITMAP
0E0380
0E0780
0E0F00
0C1E00
1C3C00
1C7800
1CF000
19C000
3B8000
3F0000
3F0000
370000
338000
71C000
71C000
70E000
607000
E07000
E03800
E03800
C03800
000000
0E0000
0E0000
1C0000
7C0000
700000
ENDCHAR
STARTCHAR 0137
ENCODING 311
SWIDTH 480 0
DWIDTH 16 0
BBX 16 29 2 -6
BITMAP
0700
0700
0700
0700
0600
0E00
0E00
0E00
0C0F
1C1C
1C78
1CF0
19C0
3F80
3F00
3F80
3380
71C0
70E0
70E0
6070
E078
E038
0000
0700
0600
0E00
3C00
3000
ENDCHAR
STARTCHAR 0138
ENCODING 312
SWIDTH 480 0
DWIDTH 16 0
BBX 16 15 2 0
BITMAP
0C0F
1C1C
1C78
1CF0
19C0
3F80
3F00
3F00
3380
71C0
70E0
70F0
6070
E078
E038
ENDCHAR
STARTCHAR 0139
ENCODING 313
SWIDTH 480 0
DWIDTH 16 0
BBX 12 28 2 0
BITMAP
0020
0060
00F0
01E0
0380
0300
0000
0600
0E00
0E00
0E00
0E00
0C00
1C00
1C00
1C00
1800
3800
3800
3800
3000
7000
7000
7000
6000
E000
FFF0
FFF0
ENDCHAR
STARTCHAR 013A
ENCODING 314
SWIDTH 480 0
DWIDTH 16 0
BBX 9 28 6 0
BITMAP
0080
0380
0F80
0C00
0000
FF00
FE00
FE00
0E00
0E00
0C00
1C00
1C00
1C00
1800
3800
3800
3800
3800
3000
7000
7000
7000
6000
6000
7080
7F80
3F80
ENDCHAR
STARTCHAR 013B
ENCODING 315
SWIDTH 480 0
DWIDTH 16 0
BBX 12 27 2 -6
BITMAP
0600
0E00
0E00
0E00
0E00
0C00
1C00
1C00
1C00
1800
3800
3800
3800
3000
7000
7000
7000
6000
E000
FFF0
FFF0
0000
0700
0600
0E00
3C00
3000
ENDCHAR
STARTCHAR 013C
ENCODING 316
SWIDTH 480 0
DWIDTH 16 0
BBX 9 29 6 -6
BITMAP
FF00
FE00
0E00
0E00
0E00
0C00
1C00
1C00
1C00
1800
3800
3800
3800
3800
3000
7000
7000
7000
6000
6000
7080
7F80
3F80
0000
1800
3800
3800
F000
C000
ENDCHAR
STARTCHAR 013D
ENCODING 317
SWIDTH 480 0
DWIDTH 16 0
BBX 13 21 2 0
BITMAP
0638
0E30
0E30
0E70
0E60
0C60
1C60
1C00
1C00
1800
3800
3800
3800
3000
7000
7000
7000
6000
E000
FFF0
FFF0
ENDCHAR
STARTCHAR 013E
ENCODING 318
SWIDTH 480 0
DWIDTH 16 0
BBX 13 23 6 0
BITMAP
FF38
FE30
0E70
0E60
0E60
0C60
1C40
1C00
1C00
1800
3800
3800
3800
3800
3000
7000
7000
7000
6000
6000
7080
7F80
3F80
ENDCHAR
STARTCHAR 013F
ENCODING 319
SWIDTH 480 0
DWIDTH 16 0
BBX 13 21 2 0
BITMAP
0600
0E00
0E00
0E00
0E00
0C00
1C00
1C00
1C10
1838
3838
3838
3800
3000
7000
7000
7000
6000
E000
FFF0
FFF0
ENDCHAR
STARTCHAR 0140
ENCODING 320
SWIDTH 480 0
DWIDTH 16 0
BBX 13 23 6 0
BITMAP
FF00
FE00
0E00
0E00
0E00
0C00
1C00
1C00
1C00
1800
3810
3838
3838
3838
3000
7000
7000
7000
6000
6000
7080
7F80
3F80
ENDCHAR
STARTCHAR 0141
ENCODING 321
SWIDTH 480 0
DWIDTH 16 0
BBX 12 21 2 0
BITMAP
0700
0700
0600
0E00
0E00
0E00
0C00
1C40
1DC0
1F80
3E00
F800
F800
3800
3800
7000
7000
7000
7000
7FF0
FFF0
ENDCHAR
STARTCHAR 0142
ENCODING 322
SWIDTH 480 0
DWIDTH 16 0
BBX 10 23 5 0
BITMAP
7F80
7F00
0700
0700
0700
0600
0E00
0E00
0E80
0F80
1F00
7C00
FC00
5C00
1800
3800
3800
3800
3000
3000
3840
3FC0
1FC0
ENDCHAR
STARTCHAR 0143
ENCODING 323
SWIDTH 480 0
DWIDTH 16 0
BBX 18 27 1 1
BITMAP
000300
000780
000E00
001C00
001800
000000
0700C0
0700C0
0781C0
0781C0
0F8180
0FC180
0DC380
0CC380
1CC300
1CE300
186700
186700
386600
386600
307E00
303E00
703C00
703C00
603C00
603C00
E01800
ENDCHAR
STARTCHAR 0144
ENCODING 324
SWIDTH 480 0
DWIDTH 16 0
BBX 14 23 2 0
BITMAP
0008
001C
003C
0078
00E0
0040
0000
03F0
0FF8
1FFC
1C1C
1C0C
180C
380C
381C
381C
301C
7018
7038
7038
6038
E030
E070
ENDCHAR
STARTCHAR 0145
ENCODING 325
SWIDTH 480 0
DWIDTH 16 0
BBX 18 27 1 -6
BITMAP
0700C0
0700C0
0781C0
0781C0
0F8180
0FC180
0DC380
0CC380
1CC300
1CE300
186700
186700
386600
386600
307E00
303E00
703C00
703C00
603C00
603C00
E01800
000000
070000
070000
0E0000
3E0000
380000
ENDCHAR
STARTCHAR 0146
ENCODING 326
SWIDTH 480 0
DWIDTH 16 0
BBX 14 22 2 -6
BITMAP
03F0
0FF8
1FFC
1C1C
1C0C
180C
380C
381C
381C
301C
7018
7038
7038
6038
E030
E070
0000
0E00
0E00
1C00
7C00
7000
ENDCHAR
STARTCHAR 0147
ENCODING 327
SWIDTH 480 0
DWIDTH 16 0
BBX 18 27 1 1
BITMAP
006180
003700
003E00
001C00
000800
000000
0700C0
0700C0
0781C0
0781C0
0F8180
0FC180
0DC380
0CC380
1CC300
1CE300
186700
186700
386600
386600
307E00
303E00
703C00
703C00
603C00
603C00
E01800
ENDCHAR
STARTCHAR 0148
ENCODING 328
SWIDTH 480 0
DWIDTH 16 0
BBX 15 23 2 0
BITMAP
0184
018E
00DC
00F0
0060
0000
0000
03F0
0FF8
1FFC
1C1C
1C0C
180C
380C
381C
381C
301C
7018
7038
7038
6038
E030
E070
ENDCHAR
STARTCHAR 0149
ENCODING 329
SWIDTH 480 0
DWIDTH 16 0
BBX 14 23 2 0
BITMAP
0E00
0E00
0C00
1C00
1800
3000
0000
03F0
0FF8
1FFC
1C1C
1C0C
180C
380C
381C
381C
301C
7018
7038
7038
6038
E030
E070
ENDCHAR
STARTCHAR 014A
ENCODING 330
SWIDTH 480 0
DWIDTH 16 0
BBX 18 27 1 -6
BITMAP
0700C0
0700C0
0781C0
0781C0
0F8180
0FC180
0DC380
0CC380
1CE300
1CE300
186700
186700
387600
387600
303E00
303E00
703C00
703C00
601C00
601C00
E01800
001800
003800
003800
01F000
03E000
010000
ENDCHAR
STARTCHAR 014B
ENCODING 331
SWIDTH 480 0
DWIDTH 16 0
BBX 14 22 2 -6
BITMAP
03E0
0FF8
1FFC
1C1C
1C0C
180C
380C
381C
381C
301C
7018
7038
7038
6038
E030
E070
0070
0070
00E0
07E0
07C0
0600
ENDCHAR
STARTCHAR 014C
ENCODING 332
SWIDTH 480 0
DWIDTH 16 0
BBX 15 26 3 0
BITMAP
01FE
01FE
0000
0000
0000
01F0
07FC
0F3C
1C0E
380E
380E
700E
700E
600E
E00E
E00E
E00C
E01C
C01C
C018
C038
E070
E070
F1E0
7FC0
3F80
ENDCHAR
STARTCHAR 014D
ENCODING 333
SWIDTH 480 0
DWIDTH 16 0
BBX 14 21 3 0
BITMAP
03FC
03FC
0000
0000
0000
03E0
0FF0
1FF8
3C3C
701C
701C
E01C
E01C
E01C
E038
C038
C070
E070
F1E0
7FC0
3F80
ENDCHAR
STARTCHAR 014E
ENCODING 334
SWIDTH 480 0
DWIDTH 16 0
BBX 15 27 3 0
BITMAP
0186
0186
00FC
00F8
0000
0000
01F0
07FC
0F3C
1C0E
380E
380E
700E
700E
600E
E00E
E00E
E00C
E01C
C01C
C018
C038
E070
E070
F1E0
7FC0
3F80
ENDCHAR
STARTCHAR 014F
ENCODING 335
SWIDTH 480 0
DWIDTH 16 0
BBX 14 22 3 0
BITMAP
030C
039C
01F8
00F0
0000
0000
03E0
0FF0
1FF8
3C3C
701C
701C
E01C
E01C
E01C
E038
C038
C070
E070
F1E0
7FC0
3F80
ENDCHAR
STARTCHAR 0150
ENCODING 336
SWIDTH 480 0
DWIDTH 16 0
BBX 17 27 3 1
BITMAP
006300
00F780
01CE00
038C00
010800
000000
01F000
07FC00
0F3C00
1C0E00
380E00
380E00
700E00
700E00
600E00
E00E00
E00E00
E00C00
E01C00
C01C00
C01800
C03800
E07000
E07000
F1E000
7FC000
3F8000
ENDCHAR
STARTCHAR 0151
ENCODING 337
SWIDTH 480 0
DWIDTH 16 0
BBX 15 23 3 0
BITMAP
0084
01C6
01CE
039C
0630
0000
0000
03E0
0FF0
1FF8
3C3C
701C
701C
E01C
E01C
E01C
E038
C038
C070
E070
F1E0
7FC0
3F80
ENDCHAR
STARTCHAR 0152
ENCODING 338
SWIDTH 480 0
DWIDTH 16 0
BBX 18 21 2 0
BITMAP
00FFC0
03FFC0
0FFFC0
0E3800
1C3800
383800
383000
707000
707000
607E00
E07E00
E0E000
E0E000
E0E000
E0C000
E1C000
E1C000
E1C000
718000
7FFC00
3FFC00
ENDCHAR
STARTCHAR 0153
ENCODING 339
SWIDTH 480 0
DWIDTH 16 0
BBX 16 16 2 0
BITMAP
070E
1FBF
3FFF
39E3
71E3
71C3
E1C7
E1DE
E1FC
E1F0
E380
E380
E3C0
E7C4
FEFC
7CFC
ENDCHAR
STARTCHAR 0154
ENCODING 340
SWIDTH 480 0
DWIDTH 16 0
BBX 16 28 2 0
BITMAP
0004
000C
001E
003C
0070
0060
0000
07F0
0FFC
0FFE
0C0E
1C07
1C07
1C07
1806
380E
381C
38F8
3FF0
3FC0
70E0
70E0
7070
6070
E070
E030
E038
C038
ENDCHAR
STARTCHAR 0155
ENCODING 341
SWIDTH 480 0
DWIDTH 16 0
BBX 14 23 3 0
BITMAP
0008
001C
003C
0070
00E0
0040
0000
01FC
1FFC
1FFC
1C00
1800
3800
3800
3800
3800
3000
7000
7000
7000
6000
E000
E000
ENDCHAR
STARTCHAR 0156
ENCODING 342
SWIDTH 480 0
DWIDTH 16 0
BBX 16 27 2 -6
BITMAP
07F0
0FFC
0FFE
0C0E
1C07
1C07
1C07
1806
380E
381C
38F8
3FF0
3FC0
70E0
70E0
7070
6070
E070
E030
E038
C038
0000
0E00
0E00
1C00
7C00
7000
ENDCHAR
STARTCHAR 0157
ENCODING 343
SWIDTH 480 0
DWIDTH 16 0
BBX 17 22 0 -6
BITMAP
003F80
03FF80
03FF80
038000
030000
070000
070000
070000
070000
060000
0E0000
0E0000
0E0000
0C0000
1C0000
1C0000
000000
180000
380000
780000
F00000
C00000
ENDCHAR
STARTCHAR 0158
ENCODING 344
SWIDTH 480 0
DWIDTH 16 0
BBX 16 27 2 1
BITMAP
018E
01DC
00F8
0070
0020
0000
07F0
0FFC
0FFE
0C0E
1C07
1C07
1C07
1806
380E
381C
38F8
3FF0
3FC0
70E0
70E0
7070
6070
E070
E030
E038
C038
ENDCHAR
STARTCHAR 0159
ENCODING 345
SWIDTH 480 0
DWIDTH 16 0
BBX 15 23 3 0
BITMAP
0184
018E
00DC
00F0
0060
0000
0000
01FC
1FFC
1FFC
1C00
1800
3800
3800
3800
3800
3000
7000
7000
7000
6000
E000
E000
ENDCHAR
STARTCHAR 015A
ENCODING 346
SWIDTH 480 0
DWIDTH 16 0
BBX 16 28 2 0
BITMAP
0004
000C
001E
003C
0070
0060
0000
01FE
03FF
078E
0E00
0E00
0C00
0C00
0E00
0F00
07C0
03E0
00F0
0078
0038
001C
001C
0018
0038
6078
FFF0
7FC0
ENDCHAR
STARTCHAR 015B
ENCODING 347
SWIDTH 480 0
DWIDTH 16 0
BBX 13 23 3 0
BITMAP
0010
0038
0078
00F0
01C0
0080
0000
03F0
0FF8
1FF8
1C00
1800
1800
1E00
0F80
07C0
01E0
0070
0070
0070
C0E0
FFE0
FF80
ENDCHAR
STARTCHAR 015C
ENCODING 348
SWIDTH 480 0
DWIDTH 16 0
BBX 16 27 2 1
BITMAP
0018
003C
007C
01CE
0086
0000
01FE
03FF
078E
0E00
0E00
0C00
0C00
0E00
0F00
07C0
03E0
00F0
0078
0038
001C
001C
0018
0038
6078
FFF0
7FC0
ENDCHAR
STARTCHAR 015D
ENCODING 349
SWIDTH 480 0
DWIDTH 16 0
BBX 14 23 3 0
BITMAP
0020
0070
00F0
01F8
031C
0008
0000
03F0
0FF8
1FF8
1C00
1800
1800
1E00
0F80
07C0
01E0
0070
0070
0070
C0E0
FFE0
FF80
ENDCHAR
STARTCHAR 015E
ENCODING 350
SWIDTH 480 0
DWIDTH 16 0
BBX 16 27 2 -6
BITMAP
01FE
03FF
078E
0E00
0E00
0C00
0C00
0E00
0F00
07C0
03E0
00F0
0078
0038
001C
001C
0018
0038
6078
FFF0
7FC0
0400
0E00
0E00
0600
3E00
3800
ENDCHAR
STARTCHAR 015F
ENCODING 351
SWIDTH 480 0
DWIDTH 16 0
BBX 13 22 3 -6
BITMAP
03F0
0FF8
1FF8
1C00
1800
1800
1E00
0F80
07C0
01E0
0070
0070
0070
C0E0
FFE0
FF80
0C00
1C00
0C00
0C00
7C00
3000
ENDCHAR
STARTCHAR 0160
ENCODING 352
SWIDTH 480 0
DWIDTH 16 0
BBX 16 28 2 0
BITMAP
0040
00E3
006E
003C
0038
0010
0000
01FE
03FF
078E
0E00
0E00
0C00
0C00
0E00
0F00
07C0
03E0
00F0
0078
0038
001C
001C
0018
0038
6078
FFF0
7FC0
ENDCHAR
STARTCHAR 0161
ENCODING 353
SWIDTH 480 0
DWIDTH 16 0
BBX 15 23 3 0
BITMAP
0104
018E
00F8
00F0
0060
0000
0000
03F0
0FF8
1FF8
1C00
1800
1800
1E00
0F80
07C0
01E0
0070
0070
0070
C0E0
FFE0
FF80
ENDCHAR
STARTCHAR 0162
ENCODING 354
SWIDTH 480 0
DWIDTH 16 0
BBX 17 27 3 -6
BITMAP
1FFF80
3FFF00
3FFF00
01C000
01C000
01C000
01C000
018000
038000
038000
038000
030000
070000
070000
070000
060000
0E0000
0E0000
0E0000
0C0000
1C0000
180000
380000
1C0000
1C0000
F80000
600000
ENDCHAR
STARTCHAR 0163
ENCODING 355
SWIDTH 480 0
DWIDTH 16 0
BBX 12 26 4 -6
BITMAP
0700
0600
0E00
0E00
0E00
FFF0
FFF0
1C00
1C00
1C00
1800
3800
3800
3800
3000
7000
7000
3840
3FC0
1FC0
0C00
1C00
0E00
0E00
7C00
3000
ENDCHAR
STARTCHAR 0164
ENCODING 356
SWIDTH 480 0
DWIDTH 16 0
BBX 15 27 5 1
BITMAP
0618
0370
03E0
01C0
0080
0000
7FFE
FFFC
FFFC
0700
0700
0700
0700
0600
0E00
0E00
0E00
0C00
1C00
1C00
1C00
1800
3800
3800
3800
3000
7000
ENDCHAR
STARTCHAR 0165
ENCODING 357
SWIDTH 480 0
DWIDTH 16 0
BBX 13 23 5 0
BITMAP
0038
0030
0030
0E70
0E60
0E60
0C00
1C00
FFF0
FFF0
1800
3800
3800
3800
3800
7000
7000
7000
7000
7000
7040
7FC0
3FC0
ENDCHAR
STARTCHAR 0166
ENCODING 358
SWIDTH 480 0
DWIDTH 16 0
BBX 15 21 5 0
BITMAP
7FFE
FFFC
FFFC
0700
0700
0700
0700
0E00
0E00
7FC0
7FC0
FFC0
1C00
1C00
1C00
1800
3800
3800
3800
3000
7000
ENDCHAR
STARTCHAR 0167
ENCODING 359
SWIDTH 480 0
DWIDTH 16 0
BBX 14 20 3 0
BITMAP
0380
0380
0380
0300
0700
3FFC
3FFC
0600
0E00
0E00
0E00
FFF0
FFF0
1C00
1C00
1C00
1C00
1C10
1FF0
0FF0
ENDCHAR
STARTCHAR 0168
ENCODING 360
SWIDTH 480 0
DWIDTH 16 0
BBX 16 26 3 1
BITMAP
01E6
03FE
0238
0000
0000
1C07
1C07
1807
3806
380E
380E
300E
700E
700C
701C
601C
E01C
E018
E038
E038
C038
C070
E070
F0E0
7FC0
3F80
ENDCHAR
STARTCHAR 0169
ENCODING 361
SWIDTH 480 0
DWIDTH 16 0
BBX 14 22 3 0
BITMAP
0384
07FC
0EF8
0420
0000
0000
0000
381C
301C
7018
7038
7038
6038
E038
E070
E070
E070
E070
E0E0
E1E0
FFF0
7F70
ENDCHAR
STARTCHAR 016A
ENCODING 362
SWIDTH 480 0
DWIDTH 16 0
BBX 16 26 3 0
BITMAP
03FE
03FE
0000
0000
0000
1C07
1C07
1807
3806
380E
380E
300E
700E
700C
701C
601C
E01C
E018
E038
E038
C038
C070
E070
F0E0
7FC0
3F80
ENDCHAR
STARTCHAR 016B
ENCODING 363
SWIDTH 480 0
DWIDTH 16 0
BBX 14 21 3 0
BITMAP
07FC
07F8
0000
0000
0000
0000
381C
301C
7018
7038
7038
6038
E038
E070
E070
E070
E070
E0E0
E1E0
FFF0
7F70
ENDCHAR
STARTCHAR 016C
ENCODING 364
SWIDTH 480 0
DWIDTH 16 0
BBX 16 27 3 0
BITMAP
0186
018E
01FC
00F8
0000
0000
1C07
1C07
1807
3806
380E
380E
300E
700E
700C
701C
601C
E01C
E018
E038
E038
C038
C070
E070
F0E0
7FC0
3F80
ENDCHAR
STARTCHAR 016D
ENCODING 365
SWIDTH 480 0
DWIDTH 16 0
BBX 14 22 3 0
BITMAP
030C
0318
03F8
01E0
0000
0000
0000
381C
301C
7018
7038
7038
6038
E038
E070
E070
E070
E070
E0E0
E1E0
FFF0
7F70
ENDCHAR
STARTCHAR 016E
ENCODING 366
SWIDTH 480 0
DWIDTH 16 0
BBX 16 28 3 0
BITMAP
0070
00F8
0188
018C
0098
00F8
0000
1C07
1C07
1807
3806
380E
380E
300E
700E
700C
701C
601C
E01C
E018
E038
E038
C038
C070
E070
F0E0
7FC0
3F80
ENDCHAR
STARTCHAR 016F
ENCODING 367
SWIDTH 480 0
DWIDTH 16 0
BBX 14 23 3 0
BITMAP
01E0
0330
0310
0310
01F0
00E0
0000
0000
381C
301C
7018
7038
7038
6038
E038
E070
E070
E070
E070
E0E0
E1E0
FFF0
7F70
ENDCHAR
STARTCHAR 0170
ENCODING 368
SWIDTH 480 0
DWIDTH 16 0
BBX 16 27 3 1
BITMAP
0063
00E7
01CE
039C
0318
0000
1C07
1C07
1807
3806
380E
380E
300E
700E
700C
701C
601C
E01C
E018
E038
E038
C038
C070
E070
F0E0
7FC0
3F80
ENDCHAR
STARTCHAR 0171
ENCODING 369
SWIDTH 480 0
DWIDTH 16 0
BBX 14 23 3 0
BITMAP
0084
018C
039C
0738
0E70
0420
0000
0000
381C
301C
7018
7038
7038
6038
E038
E070
E070
E070
E070
E0E0
E1E0
FFF0
7F70
ENDCHAR
STARTCHAR 0172
ENCODING 370
SWIDTH 480 0
DWIDTH 16 0
BBX 16 27 3 -6
BITMAP
1C07
1C07
1807
3806
380E
380E
300E
700E
700C
701C
601C
E01C
E018
E038
E038
C038
C070
E070
F0E0
7FC0
3F80
0700
0E00
1C00
1C00
1F00
0400
ENDCHAR
STARTCHAR 0173
ENCODING 371
SWIDTH 480 0
DWIDTH 16 0
BBX 14 21 3 -6
BITMAP
381C
301C
7018
7038
7038
6038
E038
E070
E070
E070
E070
E0E0
E1E0
FFF0
7F70
00E0
01C0
0380
0380
03E0
0080
ENDCHAR
STARTCHAR 0174
ENCODING 372
SWIDTH 480 0
DWIDTH 16 0
BBX 18 27 2 1
BITMAP
001800
003C00
007C00
01CE00
008600
000000
1C01C0
1C01C0
1C0180
180180
180380
380380
380300
380700
31C700
31C600
73C600
73CE00
66CC00
66CC00
6CCC00
7C5800
787800
F07800
F07000
E07000
E07000
ENDCHAR
STARTCHAR 0175
ENCODING 373
SWIDTH 480 0
DWIDTH 16 0
BBX 16 23 3 0
BITMAP
0020
0070
00F0
01F8
031C
0008
0000
0000
6007
6007
E006
E18E
E38E
E38C
E79C
CF98
CD98
D9B8
D9B0
F1F0
F1E0
E0E0
C0C0
ENDCHAR
STARTCHAR 0176
ENCODING 374
SWIDTH 480 0
DWIDTH 16 0
BBX 16 27 5 1
BITMAP
00C0
01E0
03F0
0730
0410
0000
E007
E00E
E01C
E01C
6038
7070
7070
70E0
31C0
3B80
3B00
1F00
1E00
1C00
1C00
1C00
1800
3800
3800
3800
3000
ENDCHAR
STARTCHAR 0177
ENCODING 375
SWIDTH 480 0
DWIDTH 16 0
BBX 18 29 0 -6
BITMAP
000800
001C00
003C00
007E00
00C700
000200
000000
000000
0601C0
060380
070380
070380
070700
070700
070E00
030E00
038C00
039C00
039800
03B800
01F000
01F000
01E000
01C000
038000
078000
FF0000
FC0000
600000
ENDCHAR
STARTCHAR 0178
ENCODING 376
SWIDTH 480 0
DWIDTH 16 0
BBX 16 26 5 0
BITMAP
0E38
0E38
0E30
0000
0000
E007
E00E
E01C
E01C
6038
7070
7070
70E0
31C0
3B80
3B00
1F00
1E00
1C00
1C00
1C00
1800
3800
3800
3800
3000
ENDCHAR
STARTCHAR 0179
ENCODING 377
SWIDTH 480 0
DWIDTH 16 0
BBX 18 27 1 1
BITMAP
000300
000780
000E00
001C00
001800
000000
07FFC0
07FFC0
07FFC0
000380
000700
000E00
001C00
003800
007000
00E000
01C000
01C000
038000
070000
0E0000
1C0000
380000
380000
700000
7FFC00
FFFC00
ENDCHAR
STARTCHAR 017A
ENCODING 378
SWIDTH 480 0
DWIDTH 16 0
BBX 15 23 2 0
BITMAP
0008
001C
003C
0078
00E0
0040
0000
0000
0FFE
0FFC
0038
0070
00E0
01C0
0380
0700
0E00
1C00
3C00
3800
7000
FFF0
FFF0
ENDCHAR
STARTCHAR 017B
ENCODING 379
SWIDTH 480 0
DWIDTH 16 0
BBX 18 27 1 0
BITMAP
000800
001C00
001C00
001C00
000000
000000
07FFC0
07FFC0
07FFC0
000380
000700
000E00
001C00
003800
007000
00E000
01C000
01C000
038000
070000
0E0000
1C0000
380000
380000
700000
7FFC00
FFFC00
ENDCHAR
STARTCHAR 017C
ENCODING 380
SWIDTH 480 0
DWIDTH 16 0
BBX 15 22 2 0
BITMAP
0030
0078
0070
0020
0000
0000
0000
0FFE
0FFC
0038
0070
00E0
01C0
0380
0700
0E00
1C00
3C00
3800
7000
FFF0
FFF0
ENDCHAR
STARTCHAR 017D
ENCODING 381
SWIDTH 480 0
DWIDTH 16 0
BBX 18 27 1 1
BITMAP
006180
003700
003E00
001C00
000800
000000
07FFC0
07FFC0
07FFC0
000380
000700
000E00
001C00
003800
007000
00E000
01C000
01C000
038000
070000
0E0000
1C0000
380000
380000
700000
7FFC00
FFFC00
ENDCHAR
STARTCHAR 017E
ENCODING 382
SWIDTH 480 0
DWIDTH 16 0
BBX 15 23 2 0
BITMAP
0184
018E
00DC
00F0
0060
0000
0000
0000
0FFE
0FFC
0038
0070
00E0
01C0
0380
0700
0E00
1C00
3C00
3800
7000
FFF0
FFF0
ENDCHAR
STARTCHAR 017F
ENCODING 383
SWIDTH 480 0
DWIDTH 16 0
BBX 20 29 0 -6
BITMAP
0007F0
000FE0
001E20
003800
003800
003000
007000
007000
007000
007000
006000
00E000
00E000
00E000
00C000
01C000
01C000
01C000
01C000
018000
038000
038000
038000
038000
070000
070000
7E0000
FC0000
200000
ENDCHAR
STARTCHAR 0180
ENCODING 384
SWIDTH 480 0
DWIDTH 16 0
BBX 14 23 3 0
BITMAP
0600
0E00
0E00
3FF0
7FF0
1C00
1C00
1DE0
1FF8
3FF8
381C
381C
301C
701C
701C
701C
701C
6038
E078
E0F0
E1E0
FFC0
FF00
ENDCHAR
STARTCHAR 0181
ENCODING 385
SWIDTH 480 0
DWIDTH 16 0
BBX 15 21 3 0
BITMAP
07E0
3FF8
7FBC
630E
E70E
E70E
070E
061C
0E38
0FF0
0FF0
0C78
1C38
1C18
1C18
1818
3838
3838
38F0
3FE0
7F80
ENDCHAR
STARTCHAR 0182
ENCODING 386
SWIDTH 480 0
DWIDTH 16 0
BBX 15 21 2 0
BITMAP
07FE
0FFE
0FFE
0E00
0C00
1C00
1C00
1C00
1FC0
3FF8
39F8
381C
301C
701C
701C
701C
701C
6038
E0F0
FFE0
FFC0
ENDCHAR
STARTCHAR 0183
ENCODING 387
SWIDTH 480 0
DWIDTH 16 0
BBX 16 23 2 0
BITMAP
07FF
07FF
0700
0600
0E00
0E00
0E00
0CE0
1FF8
1FFC
1C1E
180E
380E
380E
380E
300E
701C
701C
7038
6078
61F0
FFE0
FF80
ENDCHAR
STARTCHAR 0184
ENCODING 388
SWIDTH 480 0
DWIDTH 16 0
BBX 14 23 3 0
BITMAP
0600
1E00
1E00
1E00
0C00
1C00
1C00
1DE0
1FF8
3FF8
381C
381C
301C
701C
701C
701C
701C
6038
E078
E0F0
E3E0
FFC0
FF00
ENDCHAR
STARTCHAR 0185
ENCODING 389
SWIDTH 480 0
DWIDTH 16 0
BBX 15 21 2 0
BITMAP
0100
0F00
1E00
0E00
0E00
0E00
0E00
1C00
1FF0
1FF8
1C3C
181E
380E
380E
380E
300C
701C
703C
70F8
7FF0
FFC0
ENDCHAR
STARTCHAR 0186
ENCODING 390
SWIDTH 480 0
DWIDTH 16 0
BBX 16 21 2 0
BITMAP
03F0
0FFC
0E3C
000E
000E
0007
0007
0007
0007
0007
0006
000E
000E
000E
001C
001C
0038
0078
41F0
FFC0
FF80
ENDCHAR
STARTCHAR 0187
ENCODING 391
SWIDTH 480 0
DWIDTH 16 0
BBX 18 23 3 0
BITMAP
0003C0
0007C0
00FE00
03FE00
07CC00
0E0000
1C0000
380000
380000
700000
700000
600000
E00000
E00000
E00000
E00000
E00000
E00000
E00000
700000
786000
3FE000
1FC000
ENDCHAR
STARTCHAR 0188
ENCODING 392
SWIDTH 480 0
DWIDTH 16 0
BBX 16 19 3 0
BITMAP
0007
000F
001D
03F8
0FF0
1FF0
3C00
7000
7000
E000
E000
E000
C000
C000
E000
E000
F040
7FC0
3FC0
ENDCHAR
STARTCHAR 0189
ENCODING 393
SWIDTH 480 0
DWIDTH 16 0
BBX 15 21 2 0
BITMAP
03E0
07F8
07FC
0E1E
0E0E
0E0E
0C06
1C06
1C06
7F06
FF0E
380E
380E
380C
381C
301C
7038
7070
71E0
7FC0
FF00
ENDCHAR
STARTCHAR 018A
ENCODING 394
SWIDTH 480 0
DWIDTH 16 0
BBX 15 21 3 0
BITMAP
07C0
3FF8
7FFC
631C
E70E
E70E
070E
060E
0E0E
0E0E
0E0E
0C0E
1C1C
1C1C
1C1C
1838
3838
3870
39E0
3FC0
7F00
ENDCHAR
STARTCHAR 018B
ENCODING 395
SWIDTH 480 0
DWIDTH 16 0
BBX 16 21 3 0
BITMAP
0FFF
0FFF
0FFF
0006
000E
000E
000E
000C
01FC
1FFC
3F1C
7018
E038
E038
C038
C030
C070
E070
F070
7FE0
3FE0
ENDCHAR
STARTCHAR 018C
ENCODING 396
SWIDTH 480 0
DWIDTH 16 0
BBX 16 23 3 0
BITMAP
03FF
07FF
0007
0007
0006
000E
000E
00FE
07FC
1FFC
3C1C
381C
7018
6038
E038
E038
E030
C070
C070
E070
E0F0
7FF0
3F30
ENDCHAR
STARTCHAR 018D
ENCODING 397
SWIDTH 480 0
DWIDTH 16 0
BBX 16 22 1 -6
BITMAP
00F0
03FC
07FE
0E0E
1C07
1C07
1807
3807
3806
380E
181C
1C3C
0EF8
07E0
03C0
01E0
00E0
0060
00E0
7FE0
FFC0
0C00
ENDCHAR
STARTCHAR 018E
ENCODING 398
SWIDTH 480 0
DWIDTH 16 0
BBX 17 21 1 0
BITMAP
03FF80
03FF80
07FF80
000380
000300
000700
000700
000700
000600
07FE00
0FFE00
000E00
000C00
001C00
001C00
001C00
001800
003800
003800
FFF800
FFF000
ENDCHAR
STARTCHAR 018F
ENCODING 399
SWIDTH 480 0
DWIDTH 16 0
BBX 16 21 2 0
BITMAP
03F0
0FFC
0E3E
000E
0006
0007
0007
0007
0007
0007
7FFF
7FFE
600E
600E
E00E
E01C
601C
7038
7070
3FE0
1FC0
ENDCHAR
STARTCHAR 0190
ENCODING 400
SWIDTH 480 0
DWIDTH 16 0
BBX 16 21 3 0
BITMAP
00FC
07FF
0F8E
1E00
1C00
1C00
1C00
1C00
1E00
0FF0
0FF0
3E00
7000
E000
E000
E000
C000
E000
F030
7FF8
3FF0
ENDCHAR
STARTCHAR 0191
ENCODING 401
SWIDTH 480 0
DWIDTH 16 0
BBX 21 27 -2 -6
BITMAP
007FF8
007FF8
007FF8
006000
00E000
00E000
00E000
00C000
01C000
01FFC0
01FFC0
018000
038000
038000
038000
030000
070000
070000
070000
060000
0E0000
0E0000
0E0000
1C0000
FC0000
F80000
400000
ENDCHAR
STARTCHAR 0192
ENCODING 402
SWIDTH 480 0
DWIDTH 16 0
BBX 20 29 0 -6
BITMAP
0007F0
000FE0
001E20
003800
003800
003000
007000
007000
03FFC0
07FFC0
006000
00E000
00E000
00E000
00C000
01C000
01C000
01C000
01C000
018000
038000
038000
038000
038000
070000
070000
7E0000
FC0000
600000
ENDCHAR
STARTCHAR 0193
ENCODING 403
SWIDTH 480 0
DWIDTH 16 0
BBX 18 23 3 0
BITMAP
0003C0
000780
01FE00
07FC00
0F9C00
1E0000
380000
380000
700000
600000
E00000
E00000
E00000
E01800
E03800
C03800
C03800
E03800
E03000
E07000
707000
7FF000
1FE000
ENDCHAR
STARTCHAR 0194
ENCODING 404
SWIDTH 480 0
DWIDTH 16 0
BBX 16 26 4 -5
BITMAP
7003
7007
700E
700E
701C
3018
3038
3870
3860
38E0
19C0
19C0
1F80
1F00
0F00
0E00
1E00
3E00
3E00
7700
E700
C700
C700
C700
FE00
FC00
ENDCHAR
STARTCHAR 0195
ENCODING 405
SWIDTH 480 0
DWIDTH 16 0
BBX 17 23 1 0
BITMAP
070000
070000
060000
060000
0E0000
0E0000
0C0000
0DC000
1FE180
1FE380
1CE380
18E380
38E300
38C700
38C700
31C700
718600
718E00
718E00
618E00
E19C00
E1FC00
E1F800
ENDCHAR
STARTCHAR 0196
ENCODING 406
SWIDTH 480 0
DWIDTH 16 0
BBX 12 21 6 0
BITMAP
7FF0
7FE0
FFE0
0E00
0C00
1C00
1C00
1C00
1800
3800
3800
3800
3000
7000
7000
7000
7000
6000
7000
7F80
3F80
ENDCHAR
STARTCHAR 0197
ENCODING 407
SWIDTH 480 0
DWIDTH 16 0
BBX 16 21 2 0
BITMAP
07FF
07FF
07FF
0060
00E0
00E0
00E0
00C0
01C0
0FF8
0FF8
0180
0380
0380
0380
0300
0700
0700
0700
7FE0
FFE0
ENDCHAR
STARTCHAR 0198
ENCODING 408
SWIDTH 480 0
DWIDTH 16 0
BBX 19 21 2 0
BITMAP
0E03C0
0E07E0
0E0EC0
0C1C00
1C3800
1C7000
1CE000
19C000
3B8000
3F0000
3F0000
370000
338000
71C000
71C000
70E000
607000
E07000
E03800
E03800
C03800
ENDCHAR
STARTCHAR 0199
ENCODING 409
SWIDTH 480 0
DWIDTH 16 0
BBX 16 23 2 0
BITMAP
01F0
03E0
0700
0700
0600
0E00
0E00
0E00
0C0F
1C1C
1C78
1CF0
19C0
3F80
3F00
3F80
3380
71C0
70E0
70E0
6070
E078
E038
ENDCHAR
STARTCHAR 019A
ENCODING 410
SWIDTH 480 0
DWIDTH 16 0
BBX 12 23 4 0
BITMAP
3FC0
3F80
0380
0380
0380
0300
0700
0700
0700
0600
FFF0
FFE0
0E00
0C00
0C00
1C00
1C00
1C00
1800
1800
1C20
1FE0
0FE0
ENDCHAR
STARTCHAR 019B
ENCODING 411
SWIDTH 480 0
DWIDTH 16 0
BBX 15 23 1 0
BITMAP
07C0
07E0
00E6
007E
01F8
03F0
0230
0030
0078
00F8
01F8
01B8
0398
0718
0618
0E18
1C1C
1C1C
381C
301C
701C
701C
E01C
ENDCHAR
STARTCHAR 019C
ENCODING 412
SWIDTH 480 0
DWIDTH 16 0
BBX 17 21 2 0
BITMAP
0C0180
0C0180
1C0380
1C0380
180300
180300
380700
380700
31C600
31C600
718E00
718E00
638C00
638C00
E31C00
E31C00
E31800
C71800
E71800
FFF800
FFF800
ENDCHAR
STARTCHAR 019D
ENCODING 413
SWIDTH 480 0
DWIDTH 16 0
BBX 22 27 -3 -6
BITMAP
00700C
00700C
00781C
00781C
00F818
00FC18
00DC38
00CC38
01CC30
01CE30
018670
018670
038760
038760
0303E0
0303E0
0703C0
0703C0
0603C0
0601C0
0E0180
0E0000
0C0000
1C0000
FC0000
F80000
600000
ENDCHAR
STARTCHAR 019E
ENCODING 414
SWIDTH 480 0
DWIDTH 16 0
BBX 14 22 2 -6
BITMAP
03F0
0FF8
1FFC
1C1C
1C0C
180C
380C
381C
381C
301C
7018
7038
7038
6038
E030
E070
0070
0070
0060
00E0
00E0
00E0
ENDCHAR
STARTCHAR 019F
ENCODING 415
SWIDTH 480 0
DWIDTH 16 0
BBX 15 21 3 0
BITMAP
01F0
07F8
0F3C
1C1E
380E
380E
700E
700E
600E
FFFE
FFFC
FFFC
C01C
C01C
C038
C038
C070
E070
F1E0
7FC0
3F80
ENDCHAR
STARTCHAR 01A0
ENCODING 416
SWIDTH 480 0
DWIDTH 16 0
BBX 18 24 3 0
BITMAP
0001C0
000180
000380
03F380
07FF00
0F3E00
1C1C00
381C00
380C00
700C00
700C00
600C00
E01C00
E01C00
E01C00
C01C00
C03800
C03800
C03000
C07000
E0E000
E1E000
7FC000
3F0000
ENDCHAR
STARTCHAR 01A1
ENCODING 417
SWIDTH 480 0
DWIDTH 16 0
BBX 17 19 3 0
BITMAP
000380
000300
000700
03C700
0FFE00
1FFC00
383800
703800
703800
E03800
E03800
E03800
E03800
C07000
C07000
E0E000
F1E000
7FC000
3F0000
ENDCHAR
STARTCHAR 01A2
ENCODING 418
SWIDTH 480 0
DWIDTH 16 0
BBX 17 21 2 0
BITMAP
03DF00
0FFF00
0EF780
1C6380
386300
386300
306700
706700
70E700
60E600
E0E600
E0EE00
E0CE00
E1CC00
E1CC00
C19C00
C39C00
C31800
E71800
FE3800
7C3800
ENDCHAR
STARTCHAR 01A3
ENCODING 419
SWIDTH 480 0
DWIDTH 16 0
BBX 15 22 2 -6
BITMAP
0F3C
1FFE
3FFE
31CE
71CE
61CE
E1CE
E18E
E18C
C19C
C39C
C31C
C718
E738
FE38
7C38
0030
0070
0070
0070
0060
0060
ENDCHAR
STARTCHAR 01A4
ENCODING 420
SWIDTH 480 0
DWIDTH 16 0
BBX 15 21 3 0
BITMAP
07F0
3FFC
7FFE
630E
E706
E706
0706
060E
0E0E
0E1C
0E3C
0FF8
1FE0
1C00
1C00
1800
3800
3800
3800
3000
7000
ENDCHAR
STARTCHAR 01A5
ENCODING 421
SWIDTH 480 0
DWIDTH 16 0
BBX 16 29 1 -6
BITMAP
00F0
01F0
0380
0300
0700
0700
0700
07F0
0FFC
0FFE
0E0F
0C07
1C07
1C07
1C07
1807
380E
380E
381C
383C
70F8
7FF0
7FC0
7000
6000
E000
E000
E000
C000
ENDCHAR
STARTCHAR 01A6
ENCODING 422
SWIDTH 480 0
DWIDTH 16 0
BBX 16 26 2 -3
BITMAP
0700
0600
0FF0
0FFC
0FFE
0C0E
1C07
1C07
1C07
1806
380E
381C
38F8
3FF0
3FC0
70E0
70E0
7070
6070
E070
E038
E038
C038
0018
001C
001C
ENDCHAR
STARTCHAR 01A7
ENCODING 423
SWIDTH 480 0
DWIDTH 16 0
BBX 15 21 3 0
BITMAP
07F0
0FFC
0E1C
000E
000E
000E
000E
001C
0078
03F0
0FE0
3F00
7800
F000
E000
C000
C000
C000
E030
FFF0
7FE0
ENDCHAR
STARTCHAR 01A8
ENCODING 424
SWIDTH 480 0
DWIDTH 16 0
BBX 13 16 3 0
BITMAP
0FC0
1FF0
1EF8
0038
0038
0038
00F0
07E0
3F80
7C00
F000
E000
C000
E020
FFE0
7FE0
ENDCHAR
STARTCHAR 01A9
ENCODING 425
SWIDTH 480 0
DWIDTH 16 0
BBX 18 21 1 0
BITMAP
07FFC0
07FFC0
07FFC0
070000
030000
038000
018000
01C000
00E000
00E000
00F000
01E000
03C000
078000
0F0000
1C0000
380000
700000
E00000
FFFC00
FFF800
ENDCHAR
STARTCHAR 01AA
ENCODING 426
SWIDTH 480 0
DWIDTH 16 0
BBX 10 29 5 -6
BITMAP
1F00
3F80
71C0
61C0
E1C0
63C0
7F80
7F80
0380
0380
0300
0700
0700
0700
0600
0E00
0E00
0E00
0C00
1C00
1C00
1C00
1800
1800
3800
1C00
1F80
0F80
0100
ENDCHAR
STARTCHAR 01AB
ENCODING 427
SWIDTH 480 0
DWIDTH 16 0
BBX 13 26 4 -6
BITMAP
0700
0600
0E00
0E00
0E00
FFF8
FFF8
1C00
1C00
1C00
1800
3800
3800
3800
3000
7000
7000
3800
3FE0
1FE0
00E0
00C0
01C0
0FC0
0F80
0E00
ENDCHAR
STARTCHAR 01AC
ENCODING 428
SWIDTH 480 0
DWIDTH 16 0
BBX 16 21 4 0
BITMAP
07FF
3FFF
7FFE
E1C0
E1C0
C180
0380
0380
0380
0300
0700
0700
0700
0600
0E00
0E00
0E00
0C00
1C00
1C00
1C00
ENDCHAR
STARTCHAR 01AD
ENCODING 429
SWIDTH 480 0
DWIDTH 16 0
BBX 15 23 4 0
BITMAP
00FE
01FE
03C0
0700
0700
0E00
0E00
0E00
FFF0
FFF0
1C00
1C00
1C00
1800
3800
3800
3800
3000
7000
7000
3840
3FC0
1FC0
ENDCHAR
STARTCHAR 01AE
ENCODING 430
SWIDTH 480 0
DWIDTH 16 0
BBX 15 27 5 -6
BITMAP
7FFE
FFFC
FFFC
0700
0700
0700
0700
0600
0E00
0E00
0E00
0C00
1C00
1C00
1C00
1800
3800
3800
3800
3000
7000
7000
7000
7000
7E00
3C00
0800
ENDCHAR
STARTCHAR 01AF
ENCODING 431
SWIDTH 480 0
DWIDTH 16 0
BBX 20 24 2 0
BITMAP
000070
000070
000070
1C07E0
1C07C0
1C0600
1C0E00
180E00
380E00
380C00
381C00
301C00
701C00
701800
703800
603800
E03800
E03000
E07000
E07000
E07000
70E000
7FC000
3F8000
ENDCHAR
STARTCHAR 01B0
ENCODING 432
SWIDTH 480 0
DWIDTH 16 0
BBX 18 19 2 0
BITMAP
0001C0
0001C0
0001C0
000780
181F00
381C00
381C00
381800
303800
703800
703800
703000
607000
607000
E07000
607000
71F000
7FF000
3F7000
ENDCHAR
STARTCHAR 01B1
ENCODING 433
SWIDTH 480 0
DWIDTH 16 0
BBX 18 21 2 0
BITMAP
1FCFC0
1F9FC0
3F8FC0
070E00
0E0E00
1C0600
1C0600
380700
380700
700700
700700
700600
E00E00
E00E00
E00E00
E01C00
E01C00
F03800
78F000
7FE000
1FC000
ENDCHAR
STARTCHAR 01B2
ENCODING 434
SWIDTH 480 0
DWIDTH 16 0
BBX 16 21 2 0
BITMAP
0E70
0C7C
1C7E
1C06
1C07
1807
3807
3807
3807
3006
7006
700E
700E
600C
601C
E01C
E038
E070
70E0
7FC0
3F80
ENDCHAR
STARTCHAR 01B3
ENCODING 435
SWIDTH 480 0
DWIDTH 16 0
BBX 17 21 4 0
BITMAP
E00700
E01F80
E01D00
603800
607000
707000
70E000
31C000
318000
3B8000
1F0000
1E0000
1E0000
1C0000
1C0000
1C0000
1C0000
380000
380000
380000
380000
ENDCHAR
STARTCHAR 01B4
ENCODING 436
SWIDTH 480 0
DWIDTH 16 0
BBX 20 22 -1 -6
BITMAP
0000F0
0701F0
0703D0
070380
070700
030700
030E00
030E00
030C00
039C00
039800
03B800
03B000
01F000
01E000
01E000
01C000
038000
078000
7F0000
FC0000
600000
ENDCHAR
STARTCHAR 01B5
ENCODING 437
SWIDTH 480 0
DWIDTH 16 0
BBX 18 21 1 0
BITMAP
07FFC0
07FFC0
07FFC0
000380
000700
000E00
001C00
003800
007000
0FFE00
0FFE00
01C000
038000
070000
0E0000
1C0000
380000
380000
700000
7FFC00
FFFC00
ENDCHAR
STARTCHAR 01B6
ENCODING 438
SWIDTH 480 0
DWIDTH 16 0
BBX 15 15 2 0
BITMAP
0FFE
0FFC
0038
0070
00E0
01C0
1FF8
1FF8
0E00
1C00
3C00
3800
7000
FFF0
FFF0
ENDCHAR
STARTCHAR 01B7
ENCODING 439
SWIDTH 480 0
DWIDTH 16 0
BBX 17 21 2 0
BITMAP
07FF80
0FFF80
0FFF00
000E00
001C00
003800
007000
00E000
01C000
03C000
03F800
003800
001C00
001C00
001C00
001C00
001C00
003800
C07800
FFF000
FFC000
ENDCHAR
STARTCHAR 01B8
ENCODING 440
SWIDTH 480 0
DWIDTH 16 0
BBX 16 21 3 0
BITMAP
0FFF
0FFF
0FFF
0600
0700
0300
0380
0180
01C0
03E0
1FC0
3E00
7800
F000
E000
E000
E000
E000
7010
7FF0
3FF0
ENDCHAR
STARTCHAR 01B9
ENCODING 441
SWIDTH 480 0
DWIDTH 16 0
BBX 16 21 2 -6
BITMAP
07FF
0FFE
0700
0700
0380
0380
01C0
00C0
03E0
0FE0
3F00
3800
7000
6000
E000
E000
E000
7010
7FF0
1FF0
0200
ENDCHAR
STARTCHAR 01BA
ENCODING 442
SWIDTH 480 0
DWIDTH 16 0
BBX 16 21 1 -6
BITMAP
07FF
0FFE
000C
0038
0070
00E0
03C0
03F0
0078
0018
001C
001C
0038
0078
07F0
3FC0
7E00
E000
C000
C000
8000
ENDCHAR
STARTCHAR 01BB
ENCODING 443
SWIDTH 480 0
DWIDTH 16 0
BBX 15 21 2 0
BITMAP
01F8
07FC
0F1E
0C0E
000E
000E
000E
000E
001C
0038
1FFE
1FFE
03C0
0700
0E00
1C00
3800
7000
7000
FFF0
FFF0
ENDCHAR
STARTCHAR 01BC
ENCODING 444
SWIDTH 480 0
DWIDTH 16 0
BBX 17 21 2 0
BITMAP
0FFF80
0FFF00
0FFF00
030000
030000
070000
070000
060000
0F8000
0FF000
07F800
003800
001C00
001C00
001C00
001C00
001C00
003800
40F800
FFF000
FFC000
ENDCHAR
STARTCHAR 01BD
ENCODING 445
SWIDTH 480 0
DWIDTH 16 0
BBX 14 15 3 0
BITMAP
3FFC
3FF8
0E00
0C00
1C00
1E00
1FE0
07F0
0070
0070
0070
0070
00E0
FFE0
FF80
ENDCHAR
STARTCHAR 01BE
ENCODING 446
SWIDTH 480 0
DWIDTH 16 0
BBX 13 20 3 0
BITMAP
0380
0300
0700
0700
0700
7FF8
7FF8
0E00
0E00
0E00
0F00
07C0
03F0
00F0
0038
0038
0030
4070
FFE0
7FC0
ENDCHAR
STARTCHAR 01BF
ENCODING 447
SWIDTH 480 0
DWIDTH 16 0
BBX 17 22 0 -6
BITMAP
007800
07FE00
07FF00
070700
060380
0E0380
0E0380
0E0380
0C0300
1C0700
1C0700
1C0E00
183C00
387800
39F000
3FC000
3F0000
780000
700000
700000
700000
E00000
ENDCHAR
STARTCHAR 01C0
ENCODING 448
SWIDTH 480 0
DWIDTH 16 0
BBX 9 29 5 -6
BITMAP
0180
0180
0380
0380
0300
0300
0700
0700
0700
0600
0E00
0E00
0E00
0C00
1C00
1C00
1C00
1800
3800
3800
3800
3000
3000
7000
7000
6000
6000
E000
E000
ENDCHAR
STARTCHAR 01C1
ENCODING 449
SWIDTH 480 0
DWIDTH 16 0
BBX 15 29 2 -6
BITMAP
0186
0186
038E
038E
030C
030C
071C
071C
0618
0618
0E38
0E38
0E38
0C30
1C70
1C70
1C70
1860
38E0
38E0
38E0
30C0
71C0
71C0
71C0
6180
6380
E380
E380
ENDCHAR
STARTCHAR 01C2
ENCODING 450
SWIDTH 480 0
DWIDTH 16 0
BBX 16 29 2 -6
BITMAP
0030
0030
0070
0070
0060
0060
00E0
00E0
00C0
00C0
7FFF
7FFF
0180
0180
0380
0380
FFFC
FFFC
0700
0700
0700
0600
0E00
0E00
0E00
0C00
0C00
1C00
1C00
ENDCHAR
STARTCHAR 01C3
ENCODING 451
SWIDTH 480 0
DWIDTH 16 0
BBX 8 21 6 0
BITMAP
07
07
0E
0E
0E
0E
1C
1C
1C
1C
18
38
38
30
00
00
00
F0
F0
F0
F0
ENDCHAR
STARTCHAR 01C4
ENCODING 452
SWIDTH 480 0
DWIDTH 16 0
BBX 21 27 1 0
BITMAP
000108
000198
0001B0
0000E0
000040
000000
0783F0
0FC3E0
0DE7E0
0CE0E0
0C60C0
1C61C0
1C6180
18E380
18E300
38E700
38C600
30CE00
31CC00
71DC00
719800
63B800
633000
E77000
EE6000
FC7E00
F8FE00
ENDCHAR
STARTCHAR 01C5
ENCODING 453
SWIDTH 480 0
DWIDTH 16 0
BBX 20 21 1 1
BITMAP
0F8330
0FC3E0
0DC180
0CE000
0C6000
1C6000
18E7C0
18E7C0
18E1C0
38C180
30C300
30C300
31C600
718E00
718C00
639C00
631800
E73800
EE3000
FC7F00
F87E00
ENDCHAR
STARTCHAR 01C6
ENCODING 454
SWIDTH 480 0
DWIDTH 16 0
BBX 20 23 1 0
BITMAP
003800
003000
003330
0071E0
0070C0
006000
006000
07E000
0FE7C0
1CCFC0
38C1C0
71C180
71C300
618300
E18600
E38E00
C38C00
C31C00
C31800
C73800
C73000
FE7F00
7E7E00
ENDCHAR
STARTCHAR 01C7
ENCODING 455
SWIDTH 480 0
DWIDTH 16 0
BBX 19 21 1 0
BITMAP
0E00E0
0E00E0
0E00C0
0C01C0
1C01C0
1C01C0
1C0180
180380
380380
380380
380300
300700
700700
700700
700700
600600
E00E00
E00E00
E03C00
FEF800
FEF000
ENDCHAR
STARTCHAR 01C8
ENCODING 456
SWIDTH 480 0
DWIDTH 16 0
BBX 18 28 1 -6
BITMAP
0001C0
0601C0
0E03C0
0E01C0
0E0000
0C0000
1C0000
1C0380
1C0300
180700
380700
380700
380600
300E00
700E00
700E00
700C00
701C00
601C00
E01C00
FF1800
FF3800
003800
003800
007000
07F000
07E000
030000
ENDCHAR
STARTCHAR 01C9
ENCODING 457
SWIDTH 480 0
DWIDTH 16 0
BBX 14 29 3 -6
BITMAP
0E00
0E1C
1C3C
1C3C
1C18
1C00
1800
3800
3870
3870
3070
7070
7060
70E0
60E0
E0E0
E0C0
E1C0
E1C0
E1C0
E180
F380
6380
0380
0700
0700
7E00
7C00
6000
ENDCHAR
STARTCHAR 01CA
ENCODING 458
SWIDTH 480 0
DWIDTH 16 0
BBX 19 21 1 0
BITMAP
0E30E0
0E30E0
0E30C0
0E70C0
1E60C0
1E61C0
1E6180
166180
36C180
36C380
36C300
36C300
778300
678700
678700
678600
670600
C70E00
C71C00
C77800
C67000
ENDCHAR
STARTCHAR 01CB
ENCODING 459
SWIDTH 480 0
DWIDTH 16 0
BBX 19 28 1 -6
BITMAP
0000E0
0639E0
0E31E0
0E30C0
0E3000
0E3000
1E6000
1E6180
1E6180
1E6380
36C380
36C300
36C300
36C700
768700
678600
678600
678E00
670E00
C70C00
C70C00
C71C00
001C00
001800
003800
03F000
03E000
010000
ENDCHAR
STARTCHAR 01CC
ENCODING 460
SWIDTH 480 0
DWIDTH 16 0
BBX 19 28 1 -6
BITMAP
0000E0
0001E0
0001E0
0000C0
000000
000000
078000
1FC180
1FE180
18E380
186380
38E300
38E300
30C700
30C700
71C600
71C600
618E00
618E00
E38C00
E38C00
C31C00
001C00
001800
003800
03F000
03E000
010000
ENDCHAR
STARTCHAR 01CD
ENCODING 461
SWIDTH 480 0
DWIDTH 16 0
BBX 17 28 0 0
BITMAP
000080
003180
003B80
001F00
000C00
000800
000000
001C00
003C00
003C00
006E00
00EE00
00CE00
01CE00
018E00
038E00
030600
070600
0E0600
0C0600
1FFE00
1FFE00
3FFE00
300600
700700
700700
E00700
E00700
ENDCHAR
STARTCHAR 01CE
ENCODING 462
SWIDTH 480 0
DWIDTH 16 0
BBX 15 23 2 0
BITMAP
0082
00C6
00FC
0078
0030
0000
0000
00FC
03FE
0FFE
1E0C
3C0C
381C
701C
701C
6018
E038
E038
E038
6030
70F0
7FF8
3FB8
ENDCHAR
STARTCHAR 01CF
ENCODING 463
SWIDTH 480 0
DWIDTH 16 0
BBX 16 27 2 1
BITMAP
00C6
00EE
007C
0038
0020
0000
07FF
07FF
07FF
0060
00E0
00E0
00E0
00C0
01C0
01C0
01C0
0180
0380
0380
0380
0300
0700
0700
0700
7FE0
FFE0
ENDCHAR
STARTCHAR 01D0
ENCODING 464
SWIDTH 480 0
DWIDTH 16 0
BBX 11 23 5 0
BITMAP
1040
18E0
0F80
0F00
0600
0000
0000
0000
FE00
FE00
0E00
0C00
1C00
1C00
1C00
1800
3800
3800
3800
3800
3C00
1F80
0F80
ENDCHAR
STARTCHAR 01D1
ENCODING 465
SWIDTH 480 0
DWIDTH 16 0
BBX 15 27 3 1
BITMAP
0186
00DC
00F8
0070
0020
0000
01F0
07FC
0F3C
1C0E
380E
380E
700E
700E
600E
E00E
E00E
E00C
E01C
C01C
C018
C038
E070
E070
F1E0
7FC0
3F80
ENDCHAR
STARTCHAR 01D2
ENCODING 466
SWIDTH 480 0
DWIDTH 16 0
BBX 14 23 3 0
BITMAP
0308
031C
01B8
01E0
00C0
0000
0000
03E0
0FF0
1FF8
3C3C
701C
701C
E01C
E01C
E01C
E038
C038
C070
E070
F1E0
7FC0
3F80
ENDCHAR
STARTCHAR 01D3
ENCODING 467
SWIDTH 480 0
DWIDTH 16 0
BBX 16 27 3 1
BITMAP
018C
01DC
00F8
0070
0000
0000
1C07
1C07
1807
3806
380E
380E
300E
700E
700C
701C
601C
E01C
E018
E038
E038
C038
C070
E070
F0E0
7FC0
3F80
ENDCHAR
STARTCHAR 01D4
ENCODING 468
SWIDTH 480 0
DWIDTH 16 0
BBX 14 23 3 0
BITMAP
0208
0318
03F0
01E0
00C0
0000
0000
0000
381C
301C
7018
7038
7038
6038
E038
E070
E070
E070
E070
E0E0
E1E0
FFF0
7F70
ENDCHAR
STARTCHAR 01D5
ENCODING 469
SWIDTH 480 0
DWIDTH 16 0
BBX 16 28 3 0
BITMAP
01FE
01FE
0000
030C
078E
070C
0000
0000
1C07
1807
3806
380E
380E
300E
700C
701C
701C
601C
E01C
E018
E038
E038
C038
C070
E070
F0E0
7FC0
3F80
ENDCHAR
STARTCHAR 01D6
ENCODING 470
SWIDTH 480 0
DWIDTH 16 0
BBX 14 24 3 0
BITMAP
03FC
03F8
0000
0618
0E38
0E38
0000
0000
0000
381C
301C
7018
7038
7038
6038
E038
E070
E070
E070
E070
E0E0
E1E0
FFF0
7F70
ENDCHAR
STARTCHAR 01D7
ENCODING 471
SWIDTH 480 0
DWIDTH 16 0
BBX 16 27 3 1
BITMAP
0030
0030
0667
0F47
0606
0000
1C07
1C07
1807
3806
380E
380E
300E
700E
700C
701C
601C
E01C
E018
E038
E038
C038
C070
E070
F0E0
7FC0
3F80
ENDCHAR
STARTCHAR 01D8
ENCODING 472
SWIDTH 480 0
DWIDTH 16 0
BBX 14 25 3 0
BITMAP
0030
0030
0060
00C0
0618
0E1C
0E1C
0000
0000
0000
381C
301C
7018
7038
7038
6038
E038
E070
E070
E070
E070
E0E0
E1E0
FFF0
7F70
ENDCHAR
STARTCHAR 01D9
ENCODING 473
SWIDTH 480 0
DWIDTH 16 0
BBX 16 27 3 1
BITMAP
00D8
0070
0667
0F07
0606
0000
1C07
1C07
1807
3806
380E
380E
300E
700E
700C
701C
601C
E01C
E018
E038
E038
C038
C070
E070
F0E0
7FC0
3F80
ENDCHAR
STARTCHAR 01DA
ENCODING 474
SWIDTH 480 0
DWIDTH 16 0
BBX 14 24 3 1
BITMAP
03B8
01F0
00E0
0618
0E1C
0E1C
0000
0000
0000
381C
301C
7018
7038
7038
6038
E038
E070
E070
E070
E070
E0E0
E1E0
FFF0
7F70
ENDCHAR
STARTCHAR 01DB
ENCODING 475
SWIDTH 480 0
DWIDTH 16 0
BBX 16 27 3 1
BITMAP
00C0
00E0
0667
0F27
0606
0000
1C07
1C07
1807
3806
380E
380E
300E
700E
700C
701C
601C
E01C
E018
E038
E038
C038
C070
E070
F0E0
7FC0
3F80
ENDCHAR
STARTCHAR 01DC
ENCODING 476
SWIDTH 480 0
DWIDTH 16 0
BBX 14 25 3 0
BITMAP
0180
0180
0180
00C0
0698
0E1C
0E3C
0000
0000
0000
381C
301C
7018
7038
7038
6038
E038
E070
E070
E070
E070
E0E0
E1E0
FFF0
7F70
ENDCHAR
STARTCHAR 01DD
ENCODING 477
SWIDTH 480 0
DWIDTH 16 0
BBX 14 16 3 0
BITMAP
07C0
3FF0
3FF8
003C
001C
001C
001C
0FFC
3FFC
781C
E038
E038
C070
E1E0
FFC0
7F80
ENDCHAR
STARTCHAR 01DE
ENCODING 478
SWIDTH 480 0
DWIDTH 16 0
BBX 18 28 0 0
BITMAP
003FC0
003F80
000000
006180
00E380
00E380
000000
000000
003C00
003C00
007C00
006C00
00EE00
01CE00
018E00
038E00
030E00
070600
060600
0C0600
1FFE00
1FFE00
3FFE00
300600
700600
700700
E00700
E00700
ENDCHAR
STARTCHAR 01DF
ENCODING 479
SWIDTH 480 0
DWIDTH 16 0
BBX 15 24 2 0
BITMAP
00FE
00FE
0000
0104
038E
038E
0104
0000
00FC
03FE
0FFE
1E0C
3C0C
381C
701C
701C
6018
E038
E038
E038
6030
70F0
7FF8
3FB8
ENDCHAR
STARTCHAR 01E0
ENCODING 480
SWIDTH 480 0
DWIDTH 16 0
BBX 18 28 0 0
BITMAP
003FC0
003FC0
000000
000C00
000E00
000C00
000000
000000
003C00
003C00
007C00
006C00
00EE00
01CE00
018E00
038E00
030E00
070600
060600
0C0600
1FFE00
1FFE00
3FFE00
300600
700600
700700
E00700
E00700
ENDCHAR
STARTCHAR 01E1
ENCODING 481
SWIDTH 480 0
DWIDTH 16 0
BBX 16 24 2 0
BITMAP
00FF
00FE
0000
0030
0070
0070
0000
0000
00FC
03FE
0FFE
1E0C
3C0C
381C
701C
701C
6018
E038
E038
E038
6030
70F0
7FF8
3FB8
ENDCHAR
STARTCHAR 01E2
ENCODING 482
SWIDTH 480 0
DWIDTH 16 0
BBX 21 26 0 0
BITMAP
000FF8
000FF8
000000
000000
000000
001FF0
001FF0
003FF0
003E00
006E00
00EE00
00CC00
01DC00
019C00
039F80
031F80
073800
063800
0FF800
0FF000
1FF000
387000
387000
706000
707F00
E0FF00
ENDCHAR
STARTCHAR 01E3
ENCODING 483
SWIDTH 480 0
DWIDTH 16 0
BBX 16 21 2 0
BITMAP
03FE
03FE
0000
0000
0000
1E0E
3F3F
3FFF
03E7
01C3
01C7
0186
1FBE
3FFC
73F0
E380
C380
C780
CFC4
FDF8
F8F8
ENDCHAR
STARTCHAR 01E4
ENCODING 484
SWIDTH 480 0
DWIDTH 16 0
BBX 15 21 3 0
BITMAP
01FC
07FE
0F9C
1E00
1C00
3800
7000
7000
6000
E000
E038
E038
C038
C1FC
C1FC
E070
E070
E060
70E0
7FE0
3FE0
ENDCHAR
STARTCHAR 01E5
ENCODING 485
SWIDTH 480 0
DWIDTH 16 0
BBX 17 22 1 -6
BITMAP
007E00
01FF00
07FF00
0F0600
0E0E00
1C0E00
1C0E00
387F80
387F00
381C00
381C00
381800
383800
1FF800
1FF800
003000
007000
007000
00E000
FFC000
FF8000
180000
ENDCHAR
STARTCHAR 01E6
ENCODING 486
SWIDTH 480 0
DWIDTH 16 0
BBX 16 27 3 1
BITMAP
00C7
006E
007C
0038
0010
0000
00FC
03FF
0F8E
1E00
1C00
3800
7000
7000
6000
E000
E000
E018
C038
C038
C038
E038
E030
E070
7870
7FF0
3FE0
ENDCHAR
STARTCHAR 01E7
ENCODING 487
SWIDTH 480 0
DWIDTH 16 0
BBX 17 29 1 -6
BITMAP
002080
007380
003F00
001E00
000C00
000800
000000
003E00
01FF80
03FF00
0F0700
0E0700
1C0700
1C0600
380E00
380E00
380E00
380C00
381C00
383C00
1FFC00
0FF800
003800
003800
007000
00F000
FFE000
FFC000
080000
ENDCHAR
STARTCHAR 01E8
ENCODING 488
SWIDTH 480 0
DWIDTH 16 0
BBX 17 27 2 1
BITMAP
01C600
00EE00
007800
003000
002000
000000
0E0380
0E0780
0E0F00
0C1E00
1C3C00
1C7800
1CF000
19C000
3B8000
3F0000
3F0000
370000
338000
71C000
71C000
70E000
607000
E07000
E03800
E03800
C03800
ENDCHAR
STARTCHAR 01E9
ENCODING 489
SWIDTH 480 0
DWIDTH 16 0
BBX 16 27 2 1
BITMAP
0330
01F0
01C0
0080
0000
0700
0700
0700
0600
0E00
0E00
0E00
0C0F
1C1C
1C78
1CF0
19C0
3F80
3F00
3F80
3380
71C0
70E0
70E0
6070
E078
E038
ENDCHAR
STARTCHAR 01EA
ENCODING 490
SWIDTH 480 0
DWIDTH 16 0
BBX 15 27 3 -6
BITMAP
01F0
07F8
0F3C
1C1E
380E
380E
700E
700E
600E
E00E
E00C
E01C
C01C
C01C
C038
C038
C070
E070
F1E0
7FC0
3F80
0E00
1800
3800
3800
3E00
0C00
ENDCHAR
STARTCHAR 01EB
ENCODING 491
SWIDTH 480 0
DWIDTH 16 0
BBX 14 22 3 -6
BITMAP
03E0
0FF0
1FF8
3C3C
701C
701C
E01C
E01C
E01C
E038
C038
C070
E070
F1E0
7FC0
3F80
0E00
1C00
1800
3800
3E00
0C00
ENDCHAR
STARTCHAR 01EC
ENCODING 492
SWIDTH 480 0
DWIDTH 16 0
BBX 15 32 3 -6
BITMAP
03FE
03FE
0000
0000
0000
01F0
07F8
0F3C
1C1E
380E
380E
700E
700E
600E
E00E
E00C
E01C
C01C
C01C
C038
C038
C070
E070
F1E0
7FC0
3F80
0E00
1800
3800
3800
3E00
0C00
ENDCHAR
STARTCHAR 01ED
ENCODING 493
SWIDTH 480 0
DWIDTH 16 0
BBX 14 27 3 -6
BITMAP
03FC
03FC
0000
0000
0000
03E0
0FF0
1FF8
3C3C
701C
701C
E01C
E01C
E01C
E038
C038
C070
E070
F1E0
7FC0
3F80
0E00
1C00
1800
3800
3E00
0C00
ENDCHAR
STARTCHAR 01EE
ENCODING 494
SWIDTH 480 0
DWIDTH 16 0
BBX 17 27 2 1
BITMAP
00C600
00EE00
007C00
003800
000000
000000
07FF80
0FFF80
0FFF00
000E00
001C00
003800
007000
00E000
01C000
03C000
03F800
003800
001C00
001C00
001C00
001C00
001C00
003800
C07800
FFF000
FFC000
ENDCHAR
STARTCHAR 01EF
ENCODING 495
SWIDTH 480 0
DWIDTH 16 0
BBX 16 29 1 -6
BITMAP
00C2
00C7
006E
0078
0030
0000
0000
0000
07FF
0FFE
000C
0018
0038
0060
00C0
0380
0780
07F0
00F0
0038
0038
0018
0038
0038
0078
40F0
FFE0
FFC0
0800
ENDCHAR
STARTCHAR 01F0
ENCODING 496
SWIDTH 480 0
DWIDTH 16 0
BBX 17 29 1 -6
BITMAP
002100
007380
003F00
001E00
001800
000000
000000
000000
03FE00
07FC00
001C00
001C00
001C00
001800
003800
003800
003800
003800
003000
007000
007000
007000
006000
00E000
00E000
01C000
FFC000
FF0000
1C0000
ENDCHAR
STARTCHAR 01F1
ENCODING 497
SWIDTH 480 0
DWIDTH 16 0
BBX 20 21 1 0
BITMAP
0783F0
0FC3E0
0DE7E0
0CE0E0
0C60C0
1C61C0
1C6180
18E380
18E300
38E700
38C600
30CE00
31CC00
71DC00
719800
63B800
633000
E77000
EE6000
FC7E00
F8FE00
ENDCHAR
STARTCHAR 01F2
ENCODING 498
SWIDTH 480 0
DWIDTH 16 0
BBX 18 21 1 0
BITMAP
0F8000
0FC000
0DC000
0CE000
0C6000
1C6000
18E7C0
18E7C0
18E1C0
38C180
30C300
30C300
31C600
718E00
718C00
639C00
631800
E73800
EE3000
FC7F00
F87E00
ENDCHAR
STARTCHAR 01F3
ENCODING 499
SWIDTH 480 0
DWIDTH 16 0
BBX 18 23 1 0
BITMAP
003800
003000
003000
007000
007000
006000
006000
07E000
0FE7C0
1CCFC0
38C1C0
71C180
71C300
618300
E18600
E38E00
C38C00
C31C00
C31800
C73800
C73000
FE7F00
7E7E00
ENDCHAR
STARTCHAR 01F4
ENCODING 500
SWIDTH 480 0
DWIDTH 16 0
BBX 16 28 3 0
BITMAP
0008
0018
003C
0078
00E0
00C0
0000
00FC
03FF
0F8E
1E00
1C00
3800
7000
7000
6000
E000
E000
E018
C038
C038
C038
E038
E030
E070
7870
7FF0
3FE0
ENDCHAR
STARTCHAR 01F5
ENCODING 501
SWIDTH 480 0
DWIDTH 16 0
BBX 17 29 1 -6
BITMAP
000200
000700
000E00
001C00
003800
001000
000000
003E00
01FF80
03FF00
0F0700
0E0700
1C0700
1C0600
380E00
380E00
380E00
380C00
381C00
383C00
1FFC00
0FF800
003800
003800
007000
00F000
FFE000
FFC000
080000
ENDCHAR
STARTCHAR 01F6
ENCODING 502
SWIDTH 480 0
DWIDTH 16 0
BBX 17 21 1 0
BITMAP
0E3800
0E3800
0E3800
0C3000
0C3000
1C7000
1C7180
186180
186380
3FE380
3FE300
30C300
30C700
71C700
71C600
71C600
618E00
E18E00
E19C00
E1FC00
C1F800
ENDCHAR
STARTCHAR 01F7
ENCODING 503
SWIDTH 480 0
DWIDTH 16 0
BBX 17 27 1 -6
BITMAP
007C00
03FF00
07FF00
070380
070380
060380
0E0380
0E0380
0E0380
0C0380
1C0700
1C0700
1C0E00
181E00
381C00
387800
38F000
33E000
7F8000
7E0000
780000
600000
600000
E00000
E00000
E00000
C00000
ENDCHAR
STARTCHAR 01F8
ENCODING 504
SWIDTH 480 0
DWIDTH 16 0
BBX 18 27 1 1
BITMAP
006000
007000
003800
001C00
000C00
000000
0700C0
0700C0
0781C0
0781C0
0F8180
0FC180
0DC380
0CC380
1CC300
1CE300
186700
186700
386600
386600
307E00
303E00
703C00
703C00
603C00
603C00
E01800
ENDCHAR
STARTCHAR 01F9
ENCODING 505
SWIDTH 480 0
DWIDTH 16 0
BBX 14 23 2 0
BITMAP
0080
01C0
00E0
00F0
0070
0030
0000
03F0
0FF8
1FFC
1C1C
1C0C
180C
380C
381C
381C
301C
7018
7038
7038
6038
E030
E070
ENDCHAR
STARTCHAR 01FA
ENCODING 506
SWIDTH 480 0
DWIDTH 16 0
BBX 16 28 0 0
BITMAP
0001
0007
001F
0018
0000
003E
0022
0022
0036
003C
003C
006C
00EE
00CE
018E
0186
0306
0706
0606
0E06
0FFE
1FFE
1FFE
3807
3007
7007
E007
E007
ENDCHAR
STARTCHAR 01FB
ENCODING 507
SWIDTH 480 0
DWIDTH 16 0
BBX 15 27 2 0
BITMAP
0004
001E
003C
0020
0030
0078
0044
00C4
006C
0038
0000
00FC
03FE
0FFE
1E0C
3C0C
381C
701C
701C
6018
E038
E038
E038
6030
70F0
7FF8
3FB8
ENDCHAR
STARTCHAR 01FC
ENCODING 508
SWIDTH 480 0
DWIDTH 16 0
BBX 20 27 0 1
BITMAP
000060
0000F0
0001C0
000380
000300
000000
001FF0
001FF0
003FF0
003E00
006E00
00EE00
00CC00
01DC00
019C00
039F80
031F80
073800
063800
0FF800
0FF000
1FF000
387000
387000
706000
707F00
E0FF00
ENDCHAR
STARTCHAR 01FD
ENCODING 509
SWIDTH 480 0
DWIDTH 16 0
BBX 16 23 2 0
BITMAP
0008
001C
003C
0078
00E0
0040
0000
1E0E
3F3F
3FFF
03E7
01C3
01C7
0186
1FBE
3FFC
73F0
E380
C380
C780
CFC4
FDF8
F8F8
ENDCHAR
STARTCHAR 01FE
ENCODING 510
SWIDTH 480 0
DWIDTH 16 0
BBX 17 28 2 0
BITMAP
001800
003C00
007000
00E000
00C000
000000
01FB80
03FF00
079E00
0E0E00
1C1F00
183F00
383700
307700
70E700
70C600
718600
638E00
670E00
E60C00
EE1C00
FC1C00
F83800
707800
70F000
FFE000
DF8000
800000
ENDCHAR
STARTCHAR 01FF
ENCODING 511
SWIDTH 480 0
DWIDTH 16 0
BBX 17 24 1 -1
BITMAP
000800
001C00
003C00
007800
00E000
004000
000000
00F980
03FF80
07FF00
0F0F00
1C1F00
1C3F00
387700
38E700
39C700
338E00
370E00
3E1C00
3C1C00
3C7800
7FF000
EFE000
400000
ENDCHAR
STARTCHAR 0200
ENCODING 512
SWIDTH 480 0
DWIDTH 16 0
BBX 17 27 0 1
BITMAP
00C600
00E700
006300
007380
003180
000000
001C00
003C00
003C00
006E00
00EE00
00CE00
01CE00
018E00
038E00
030600
070600
0E0600
0C0600
1FFE00
1FFE00
3FFE00
300600
700700
700700
E00700
E00700
ENDCHAR
STARTCHAR 0201
ENCODING 513
SWIDTH 480 0
DWIDTH 16 0
BBX 15 23 2 0
BITMAP
0210
0730
0738
039C
018C
0084
0000
00FC
03FE
0FFE
1E0C
3C0C
381C
701C
701C
6018
E038
E038
E038
6030
70F0
7FF8
3FB8
ENDCHAR
STARTCHAR 0202
ENCODING 514
SWIDTH 480 0
DWIDTH 16 0
BBX 17 27 0 0
BITMAP
001F00
003F80
007180
006180
000000
000000
001C00
003C00
003C00
006E00
00EE00
00CE00
01CE00
018E00
038E00
030600
070600
0E0600
0C0600
1FFE00
1FFE00
3FFE00
300600
700700
700700
E00700
E00700
ENDCHAR
STARTCHAR 0203
ENCODING 515
SWIDTH 480 0
DWIDTH 16 0
BBX 15 22 2 0
BITMAP
00F8
01FC
018C
0104
0000
0000
00FC
03FE
0FFE
1E0C
3C0C
381C
701C
701C
6018
E038
E038
E038
6030
70F0
7FF8
3FB8
ENDCHAR
STARTCHAR 0204
ENCODING 516
SWIDTH 480 0
DWIDTH 16 0
BBX 17 27 2 1
BITMAP
039C00
039C00
01CE00
00C600
006300
000000
07FF80
07FF80
07FF00
060000
0E0000
0E0000
0E0000
0C0000
1C0000
1FFC00
1FF800
180000
380000
380000
380000
300000
700000
700000
700000
7FF800
FFF800
ENDCHAR
STARTCHAR 0205
ENCODING 517
SWIDTH 480 0
DWIDTH 16 0
BBX 15 23 2 0
BITMAP
0210
0730
0738
039C
018C
0084
0000
01F0
07FC
0FBC
1C0E
380E
700E
701C
70F8
7FF0
FF80
E000
E000
7000
7810
3FF0
1FF0
ENDCHAR
STARTCHAR 0206
ENCODING 518
SWIDTH 480 0
DWIDTH 16 0
BBX 17 27 2 0
BITMAP
003C00
007E00
00C300
00C300
000000
000000
07FF80
07FF80
07FF00
060000
0E0000
0E0000
0E0000
0C0000
1C0000
1FFC00
1FF800
180000
380000
380000
380000
300000
700000
700000
700000
7FF800
FFF800
ENDCHAR
STARTCHAR 0207
ENCODING 519
SWIDTH 480 0
DWIDTH 16 0
BBX 15 22 2 0
BITMAP
00F8
01FC
018C
030C
0000
0000
01F0
07FC
0FBC
1C0E
380E
700E
701C
70F8
7FF0
FF80
E000
E000
7000
7810
3FF0
1FF0
ENDCHAR
STARTCHAR 0208
ENCODING 520
SWIDTH 480 0
DWIDTH 16 0
BBX 16 27 2 1
BITMAP
0318
039C
018C
01CE
00C6
0000
07FF
07FF
07FF
0060
00E0
00E0
00E0
00C0
01C0
01C0
01C0
0180
0380
0380
0380
0300
0700
0700
0700
7FE0
FFE0
ENDCHAR
STARTCHAR 0209
ENCODING 521
SWIDTH 480 0
DWIDTH 16 0
BBX 10 23 5 0
BITMAP
2100
6300
7380
3980
18C0
0840
0000
0000
FE00
FE00
0E00
0C00
1C00
1C00
1C00
1800
3800
3800
3800
3800
3C00
1F80
0F80
ENDCHAR
STARTCHAR 020A
ENCODING 522
SWIDTH 480 0
DWIDTH 16 0
BBX 16 27 2 0
BITMAP
007C
00FE
00C6
0186
0000
0000
07FF
07FF
07FF
0060
00E0
00E0
00E0
00C0
01C0
01C0
01C0
0180
0380
0380
0380
0300
0700
0700
0700
7FE0
FFE0
ENDCHAR
STARTCHAR 020B
ENCODING 523
SWIDTH 480 0
DWIDTH 16 0
BBX 10 22 5 0
BITMAP
0F80
1FC0
38C0
30C0
0000
0000
0000
FE00
FE00
0E00
0C00
1C00
1C00
1C00
1800
3800
3800
3800
3800
3C00
1F80
0F80
ENDCHAR
STARTCHAR 020C
ENCODING 524
SWIDTH 480 0
DWIDTH 16 0
BBX 15 28 3 0
BITMAP
0210
0630
0738
0398
018C
008C
0000
01F0
07FC
0F3C
1C0E
380E
380E
700E
700E
600E
E00E
E00E
E00C
E01C
C01C
C018
C038
E070
E070
F1E0
7FC0
3F80
ENDCHAR
STARTCHAR 020D
ENCODING 525
SWIDTH 480 0
DWIDTH 16 0
BBX 14 23 3 0
BITMAP
0420
0C60
0E70
0730
0318
0108
0000
03E0
0FF0
1FF8
3C3C
701C
701C
E01C
E01C
E01C
E038
C038
C070
E070
F1E0
7FC0
3F80
ENDCHAR
STARTCHAR 020E
ENCODING 526
SWIDTH 480 0
DWIDTH 16 0
BBX 15 27 3 0
BITMAP
0078
01FC
018C
0304
0000
0000
01F0
07FC
0F3C
1C0E
380E
380E
700E
700E
600E
E00E
E00E
E00C
E01C
C01C
C018
C038
E070
E070
F1E0
7FC0
3F80
ENDCHAR
STARTCHAR 020F
ENCODING 527
SWIDTH 480 0
DWIDTH 16 0
BBX 14 22 3 0
BITMAP
01F0
03F8
0318
0618
0000
0000
03E0
0FF0
1FF8
3C3C
701C
701C
E01C
E01C
E01C
E038
C038
C070
E070
F1E0
7FC0
3F80
ENDCHAR
STARTCHAR 0210
ENCODING 528
SWIDTH 480 0
DWIDTH 16 0
BBX 16 27 2 1
BITMAP
0630
0738
0398
018C
0084
0000
07F0
0FFC
0FFE
0C0E
1C07
1C07
1C07
1806
380E
381C
38F8
3FF0
3FC0
70E0
70E0
7070
6070
E070
E030
E038
C038
ENDCHAR
STARTCHAR 0211
ENCODING 529
SWIDTH 480 0
DWIDTH 16 0
BBX 14 23 3 0
BITMAP
0420
0E60
0E70
0738
0318
0108
0000
01FC
1FFC
1FFC
1C00
1800
3800
3800
3800
3800
3000
7000
7000
7000
6000
E000
E000
ENDCHAR
STARTCHAR 0212
ENCODING 530
SWIDTH 480 0
DWIDTH 16 0
BBX 16 27 2 0
BITMAP
007C
00FE
00C6
0186
0000
0000
07F0
0FFC
0FFE
0C0E
1C07
1C07
1C07
1806
380E
381C
38F8
3FF0
3FC0
70E0
70E0
7070
6070
E070
E030
E038
C038
ENDCHAR
STARTCHAR 0213
ENCODING 531
SWIDTH 480 0
DWIDTH 16 0
BBX 14 22 3 0
BITMAP
01F0
03F8
0318
0208
0000
0000
01FC
1FFC
1FFC
1C00
1800
3800
3800
3800
3800
3000
7000
7000
7000
6000
E000
E000
ENDCHAR
STARTCHAR 0214
ENCODING 532
SWIDTH 480 0
DWIDTH 16 0
BBX 16 27 3 1
BITMAP
0630
0738
0318
039C
018C
0000
1C07
1C07
1807
3806
380E
380E
300E
700E
700C
701C
601C
E01C
E018
E038
E038
C038
C070
E070
F0E0
7FC0
3F80
ENDCHAR
STARTCHAR 0215
ENCODING 533
SWIDTH 480 0
DWIDTH 16 0
BBX 14 23 3 0
BITMAP
0420
0C60
0E70
0730
0318
0108
0000
0000
381C
301C
7018
7038
7038
6038
E038
E070
E070
E070
E070
E0E0
E1E0
FFF0
7F70
ENDCHAR
STARTCHAR 0216
ENCODING 534
SWIDTH 480 0
DWIDTH 16 0
BBX 16 27 3 0
BITMAP
00F8
01FC
018C
030C
0000
0000
1C07
1C07
1807
3806
380E
380E
300E
700E
700C
701C
601C
E01C
E018
E038
E038
C038
C070
E070
F0E0
7FC0
3F80
ENDCHAR
STARTCHAR 0217
ENCODING 535
SWIDTH 480 0
DWIDTH 16 0
BBX 14 22 3 0
BITMAP
01F0
03F8
0318
0618
0000
0000
0000
381C
301C
7018
7038
7038
6038
E038
E070
E070
E070
E070
E0E0
E1E0
FFF0
7F70
ENDCHAR
STARTCHAR 0218
ENCODING 536
SWIDTH 480 0
DWIDTH 16 0
BBX 16 27 2 -6
BITMAP
01FE
03FF
078E
0E00
0E00
0C00
0C00
0E00
0F00
07C0
03E0
00F0
0078
0038
001C
001C
0018
0038
6078
FFF0
7FC0
0000
0C00
1C00
1C00
7800
6000
ENDCHAR
STARTCHAR 0219
ENCODING 537
SWIDTH 480 0
DWIDTH 16 0
BBX 13 22 3 -6
BITMAP
03F0
0FF8
1FF8
1C00
1800
1800
1E00
0F80
07C0
01E0
0070
0070
0070
C0E0
FFE0
FF80
0000
1C00
1C00
3800
F800
E000
ENDCHAR
STARTCHAR 021A
ENCODING 538
SWIDTH 480 0
DWIDTH 16 0
BBX 17 27 3 -6
BITMAP
1FFF80
3FFF00
3FFF00
01C000
01C000
01C000
01C000
018000
038000
038000
038000
030000
070000
070000
070000
060000
0E0000
0E0000
0E0000
0C0000
1C0000
000000
1C0000
180000
380000
F00000
C00000
ENDCHAR
STARTCHAR 021B
ENCODING 539
SWIDTH 480 0
DWIDTH 16 0
BBX 12 26 5 -6
BITMAP
0E00
0E00
0E00
0C00
1C00
FFF0
FFF0
1800
3800
3800
3800
3800
7000
7000
7000
7000
7000
7040
7FC0
3FC0
0000
1C00
1C00
3800
F800
E000
ENDCHAR
STARTCHAR 021C
ENCODING 540
SWIDTH 480 0
DWIDTH 16 0
BBX 19 27 -1 -6
BITMAP
00FE00
03FF80
0387C0
0001C0
0000E0
0000E0
0000C0
0001C0
0003C0
000780
001F00
01FC00
03FC00
003E00
000F00
000700
000300
000300
000300
000700
000700
000E00
001E00
00FC00
7FF000
FFC000
600000
ENDCHAR
STARTCHAR 021D
ENCODING 541
SWIDTH 480 0
DWIDTH 16 0
BBX 15 22 1 -6
BITMAP
03F0
0FFC
0F7E
000E
000E
000E
000E
001C
00F8
07F0
07F0
00F8
0038
001C
001C
0038
0038
0070
03E0
FFC0
FE00
8000
ENDCHAR
STARTCHAR 021E
ENCODING 542
SWIDTH 480 0
DWIDTH 16 0
BBX 18 27 1 1
BITMAP
006300
007700
003E00
001C00
001000
000000
0701C0
0701C0
0601C0
0E0180
0E0380
0E0380
0C0380
1C0380
1C0300
1FFF00
1FFF00
380700
380600
380E00
380E00
300E00
700C00
701C00
701C00
601C00
E01800
ENDCHAR
STARTCHAR 021F
ENCODING 543
SWIDTH 480 0
DWIDTH 16 0
BBX 14 27 2 1
BITMAP
0730
03E0
01C0
0000
0000
0600
0E00
0E00
0E00
0C00
1C00
1DE0
1FF8
1FF8
381C
381C
381C
381C
301C
7018
7038
7038
6038
E030
E070
E070
C070
ENDCHAR
STARTCHAR 0220
ENCODING 544
SWIDTH 480 0
DWIDTH 16 0
BBX 17 27 1 -6
BITMAP
03FC00
07FF00
070F80
0E0380
0E0380
0E0380
0C0380
1C0380
1C0300
1C0700
180700
380700
380600
380E00
380E00
300E00
700E00
700C00
701C00
601C00
E01C00
001800
003800
003800
003800
003000
007000
ENDCHAR
STARTCHAR 0221
ENCODING 545
SWIDTH 480 0
DWIDTH 16 0
BBX 14 29 2 -6
BITMAP
0018
0038
0038
0038
0038
0030
0070
03F0
0FF0
1FE0
38E0
70E0
60E0
E0C0
E1C0
E1C0
C1C0
C180
C380
E380
E3F8
FFFC
7F8C
070C
0F0C
1F0C
3BF8
33F0
0040
ENDCHAR
STARTCHAR 0222
ENCODING 546
SWIDTH 480 0
DWIDTH 16 0
BBX 16 21 2 0
BITMAP
0707
0707
0607
0E07
0E07
0E06
0C0E
0E1C
0F3C
07F8
1FF8
3C3C
700C
600E
E00E
E00C
E01C
E03C
78F8
7FF0
1FC0
ENDCHAR
STARTCHAR 0223
ENCODING 547
SWIDTH 480 0
DWIDTH 16 0
BBX 16 23 3 0
BITMAP
0607
0E07
0C06
1C06
1C0E
1C0E
1C0C
1C1C
0E78
0FF0
1FF0
3878
7038
E018
E018
E018
C038
C038
C038
E070
F1E0
7FE0
3F80
ENDCHAR
STARTCHAR 0224
ENCODING 548
SWIDTH 480 0
DWIDTH 16 0
BBX 18 27 1 -6
BITMAP
07FFC0
07FFC0
07FFC0
000380
000700
000E00
001C00
003800
007000
00E000
01C000
01C000
038000
070000
0E0000
1C0000
380000
380000
700000
7FFC00
FFFC00
001800
003800
003800
01F000
03F000
010000
ENDCHAR
STARTCHAR 0225
ENCODING 549
SWIDTH 480 0
DWIDTH 16 0
BBX 15 21 2 -6
BITMAP
0FFE
0FFC
0038
0070
00E0
01C0
0380
0700
0E00
1C00
3C00
3800
7000
FFF0
FFF0
0060
0060
00E0
07C0
0FC0
0200
ENDCHAR
STARTCHAR 0226
ENCODING 550
SWIDTH 480 0
DWIDTH 16 0
BBX 16 26 0 1
BITMAP
000E
001E
000C
0000
0000
001C
003C
003C
006E
00EE
00CE
01CE
018E
038E
0306
0706
0E06
0C06
1FFE
1FFE
3FFE
3006
7007
7007
E007
E007
ENDCHAR
STARTCHAR 0227
ENCODING 551
SWIDTH 480 0
DWIDTH 16 0
BBX 15 22 2 0
BITMAP
0030
0078
0078
0030
0000
0000
00FC
03FE
0FFE
1E0C
3C0C
381C
701C
701C
6018
E038
E038
E038
6030
70F0
7FF8
3FB8
ENDCHAR
STARTCHAR 0228
ENCODING 552
SWIDTH 480 0
DWIDTH 16 0
BBX 16 27 2 -6
BITMAP
07FF
0FFF
0FFF
0E00
0E00
0C00
1C00
1C00
1C00
1FF8
3FF8
3800
3800
3000
7000
7000
7000
6000
E000
FFF0
FFF0
0300
0700
0300
0300
1F00
1C00
ENDCHAR
STARTCHAR 0229
ENCODING 553
SWIDTH 480 0
DWIDTH 16 0
BBX 15 22 2 -6
BITMAP
01F0
07FC
0FBC
1C0E
380E
700E
701C
70F8
7FF0
FF80
E000
E000
7000
7810
3FF0
1FF0
0300
0700
0300
0300
1F00
1C00
ENDCHAR
STARTCHAR 022A
ENCODING 554
SWIDTH 480 0
DWIDTH 16 0
BBX 15 28 3 0
BITMAP
01FE
01FE
0000
030C
078E
070C
0000
0000
03F8
07FC
0E1C
1C0E
380E
380E
700E
700E
600E
E00E
E00C
E01C
E01C
C018
C038
E030
E070
F0E0
7FC0
3F80
ENDCHAR
STARTCHAR 022B
ENCODING 555
SWIDTH 480 0
DWIDTH 16 0
BBX 15 24 3 0
BITMAP
01FE
01FC
0000
020C
071C
071C
0208
0000
03E0
0FF0
1FF8
3C3C
701C
701C
E01C
E01C
E01C
E038
C038
C070
E070
F1E0
7FC0
3F80
ENDCHAR
STARTCHAR 022C
ENCODING 556
SWIDTH 480 0
DWIDTH 16 0
BBX 15 28 3 0
BITMAP
01FE
01FE
0000
00C4
03FE
077C
0000
0000
03F8
07FC
0E1C
1C0E
380E
380E
700E
700E
600E
E00E
E00C
E01C
E01C
C018
C038
E030
E070
F0E0
7FC0
3F80
ENDCHAR
STARTCHAR 022D
ENCODING 557
SWIDTH 480 0
DWIDTH 16 0
BBX 15 24 3 0
BITMAP
01FE
01FC
0000
0084
03EC
067C
0000
0000
03E0
0FF0
1FF8
3C3C
701C
701C
E01C
E01C
E01C
E038
C038
C070
E070
F1E0
7FC0
3F80
ENDCHAR
STARTCHAR 022E
ENCODING 558
SWIDTH 480 0
DWIDTH 16 0
BBX 15 26 3 1
BITMAP
0078
0078
0070
0000
0000
01F0
07FC
0F3C
1C0E
380E
380E
700E
700E
600E
E00E
E00E
E00C
E01C
C01C
C018
C038
E070
E070
F1E0
7FC0
3F80
ENDCHAR
STARTCHAR 022F
ENCODING 559
SWIDTH 480 0
DWIDTH 16 0
BBX 14 22 3 0
BITMAP
0060
00F0
00E0
0060
0000
0000
03E0
0FF0
1FF8
3C3C
701C
701C
E01C
E01C
E01C
E038
C038
C070
E070
F1E0
7FC0
3F80
ENDCHAR
STARTCHAR 0230
ENCODING 560
SWIDTH 480 0
DWIDTH 16 0
BBX 15 28 3 0
BITMAP
00FE
00FE
0000
0030
0070
0070
0000
0000
03F8
07FC
0E1C
1C0E
380E
380E
700E
700E
600E
E00E
E00C
E01C
E01C
C018
C038
E030
E070
F0E0
7FC0
3F80
ENDCHAR
STARTCHAR 0231
ENCODING 561
SWIDTH 480 0
DWIDTH 16 0
BBX 14 24 3 0
BITMAP
01FC
01FC
0000
0060
00E0
00E0
0040
0000
03E0
0FF0
1FF8
3C3C
701C
701C
E01C
E01C
E01C
E038
C038
C070
E070
F1E0
7FC0
3F80
ENDCHAR
STARTCHAR 0232
ENCODING 562
SWIDTH 480 0
DWIDTH 16 0
BBX 16 26 5 0
BITMAP
07F8
07F8
0000
0000
0000
E007
E00E
E01C
E01C
6038
7070
7070
70E0
31C0
3B80
3B00
1F00
1E00
1C00
1C00
1C00
1800
3800
3800
3800
3000
ENDCHAR
STARTCHAR 0233
ENCODING 563
SWIDTH 480 0
DWIDTH 16 0
BBX 18 27 0 -6
BITMAP
00FF80
00FF00
000000
000000
000000
000000
0601C0
060380
070380
070380
070700
070700
070E00
030E00
038C00
039C00
039800
03B800
01F000
01F000
01E000
01C000
038000
078000
FF0000
FC0000
600000
ENDCHAR
STARTCHAR 0234
ENCODING 564
SWIDTH 480 0
DWIDTH 16 0
BBX 13 29 2 -6
BITMAP
0FF0
0FE0
00E0
00E0
00E0
00C0
01C0
01C0
01C0
01C0
0380
0380
0380
0380
0300
0700
0700
0700
0600
0E00
0FE0
0FF0
0E30
1C38
3C30
7C30
EFF0
CFE0
0100
ENDCHAR
STARTCHAR 0235
ENCODING 565
SWIDTH 480 0
DWIDTH 16 0
BBX 15 22 1 -6
BITMAP
07C0
1FE0
1FE0
1870
3870
3870
3860
30E0
70E0
70E0
70C0
61C0
E1C0
E1FC
E1FE
C1C6
0386
0786
0F86
1DFC
19FC
0020
ENDCHAR
STARTCHAR 0236
ENCODING 566
SWIDTH 480 0
DWIDTH 16 0
BBX 16 26 1 -6
BITMAP
0060
00E0
00E0
00E0
00C0
0FFF
0FFF
01C0
0180
0380
0380
0380
0300
0700
0700
0700
0700
0EE0
0FF0
0F38
0E18
1C18
3C38
6FF0
C7E0
0100
ENDCHAR
STARTCHAR 0237
ENCODING 567
SWIDTH 480 0
DWIDTH 16 0
BBX 15 21 1 -6
BITMAP
03FE
07FC
001C
001C
001C
0018
0038
0038
0038
0038
0030
0070
0070
0070
0060
00E0
00E0
01C0
FFC0
FF00
1C00
ENDCHAR
STARTCHAR 0238
ENCODING 568
SWIDTH 480 0
DWIDTH 16 0
BBX 16 23 2 0
BITMAP
0030
0030
0070
0070
0060
0060
0060
07FC
1FFE
3CEE
38C6
71C7
61C7
E187
E186
E386
C38E
C30E
C30C
C71C
E738
FFF0
7FE0
ENDCHAR
STARTCHAR 0239
ENCODING 569
SWIDTH 480 0
DWIDTH 16 0
BBX 16 22 2 -6
BITMAP
071C
1FFE
1DEE
38C6
71C7
61C7
E187
E187
E386
C38E
C30E
C30C
C71C
C738
FFF8
7FE0
0E00
0E00
0C00
0C00
1C00
1C00
ENDCHAR
STARTCHAR 023A
ENCODING 570
SWIDTH 480 0
DWIDTH 16 0
BBX 18 26 0 -3
BITMAP
0000C0
0000C0
001DC0
003D80
003F80
007F00
006F00
00E600
01CE00
018E00
039E00
031E00
073E00
063600
0E7600
0FFF00
1FFF00
1FFF00
39C700
318700
738700
E30700
E70700
060000
0E0000
0C0000
ENDCHAR
STARTCHAR 023B
ENCODING 571
SWIDTH 480 0
DWIDTH 16 0
BBX 17 26 3 -3
BITMAP
000600
000600
00FE00
03FF80
07DF00
0F1900
1C3800
383000
387000
706000
70E000
60C000
E1C000
E18000
E38000
E30000
E70000
E60000
EE0000
FC0000
783000
3FF000
3FE000
300000
600000
200000
ENDCHAR
STARTCHAR 023C
ENCODING 572
SWIDTH 480 0
DWIDTH 16 0
BBX 14 20 3 -3
BITMAP
000C
0018
01F8
07FC
1FBC
3C60
7860
70C0
E0C0
E180
E180
C300
C300
E600
E600
FC30
7FF0
1FE0
3000
3000
ENDCHAR
STARTCHAR 023D
ENCODING 573
SWIDTH 480 0
DWIDTH 16 0
BBX 12 21 3 0
BITMAP
0700
0700
0600
0E00
0E00
0E00
0C00
1C00
1C00
FFC0
FFC0
3800
3800
3800
3000
7000
7000
7000
6000
FFF0
FFE0
ENDCHAR
STARTCHAR 023E
ENCODING 574
SWIDTH 480 0
DWIDTH 16 0
BBX 21 23 1 0
BITMAP
000038
07FFF0
0FFFE0
0FFFC0
007180
007300
007700
007E00
007C00
00F800
00F000
00E000
00C000
01C000
03C000
07C000
0F8000
1F8000
1B8000
338000
630000
E70000
C00000
ENDCHAR
STARTCHAR 023F
ENCODING 575
SWIDTH 480 0
DWIDTH 16 0
BBX 13 22 3 -6
BITMAP
03F0
0FF8
1F78
1C00
1800
1800
1C00
1F80
07C0
01E0
0070
0070
0070
C0E0
FFE0
FF80
7000
3000
3800
1F80
0F80
0100
ENDCHAR
STARTCHAR 0240
ENCODING 576
SWIDTH 480 0
DWIDTH 16 0
BBX 15 21 2 -6
BITMAP
0FFE
0FFE
0038
0070
00E0
01C0
0380
0700
0E00
1C00
3800
3800
7000
F000
FC00
1E00
0F00
0780
03F0
01E0
0040
ENDCHAR
STARTCHAR 0241
ENCODING 577
SWIDTH 480 0
DWIDTH 16 0
BBX 13 21 5 0
BITMAP
1FC0
7FF0
78F0
0038
0038
0038
0070
00F0
01E0
07C0
1F00
3C00
3800
7000
7000
6000
E000
E000
E000
E000
C000
ENDCHAR
STARTCHAR 0242
ENCODING 578
SWIDTH 480 0
DWIDTH 16 0
BBX 11 16 5 0
BITMAP
1F80
7FC0
7BE0
0060
0060
00E0
01E0
07C0
1F00
3C00
3800
7000
7000
6000
E000
E000
ENDCHAR
STARTCHAR 0243
ENCODING 579
SWIDTH 480 0
DWIDTH 16 0
BBX 16 21 2 0
BITMAP
03F8
07FE
07FE
0607
0E07
0E07
0E07
0C0E
1C1C
1FF8
1FF8
187C
381C
380E
FF0E
FF0E
701C
703C
7078
7FF0
7FC0
ENDCHAR
STARTCHAR 0244
ENCODING 580
SWIDTH 480 0
DWIDTH 16 0
BBX 16 21 3 0
BITMAP
0E07
0C06
1C0E
1C0E
1C0E
180C
381C
381C
381C
FFFE
FFFE
7038
7038
6038
E030
E070
E070
E0E0
F0E0
7FC0
3F80
ENDCHAR
STARTCHAR 0245
ENCODING 581
SWIDTH 480 0
DWIDTH 16 0
BBX 16 21 0 0
BITMAP
001C
003C
003C
006E
00EE
00CE
01CE
018E
038E
030E
0706
0E06
0C06
1C06
1806
3806
3006
7007
6007
E007
E007
ENDCHAR
STARTCHAR 0246
ENCODING 582
SWIDTH 480 0
DWIDTH 16 0
BBX 18 26 2 -4
BITMAP
000080
0000C0
07FFC0
0FFF80
0FFF00
0E0700
0E0600
0C0E00
1C1C00
1C1800
1C3800
1FFC00
3FFC00
38E000
38C000
31C000
738000
730000
770000
6E0000
EC0000
FFF800
FFF800
300000
700000
600000
ENDCHAR
STARTCHAR 0247
ENCODING 583
SWIDTH 480 0
DWIDTH 16 0
BBX 14 21 3 -2
BITMAP
0030
0060
01E0
0FF8
1FFC
3CDC
719C
719C
E338
E3F8
FFE0
FF00
C600
CC00
EC00
F830
7FF0
3FE0
3000
3000
2000
ENDCHAR
STARTCHAR 0248
ENCODING 584
SWIDTH 480 0
DWIDTH 16 0
BBX 16 21 2 0
BITMAP
03FF
03FF
03FE
000E
000E
000E
000C
001C
001C
01FF
01FF
0038
0038
0038
0038
0070
0070
00F0
E1E0
FFC0
7F80
ENDCHAR
STARTCHAR 0249
ENCODING 585
SWIDTH 480 0
DWIDTH 16 0
BBX 16 28 0 -6
BITMAP
000F
000F
000F
000E
0000
0000
0000
03FE
03FE
000E
000C
001C
001C
07FF
0FFF
0038
0038
0038
0030
0070
0070
0070
0060
00E0
41E0
7FC0
FF80
0800
ENDCHAR
STARTCHAR 024A
ENCODING 586
SWIDTH 480 0
DWIDTH 16 0
BBX 14 27 3 -6
BITMAP
03F0
07F8
0F3C
1C1C
381C
381C
700C
701C
601C
E01C
E01C
E01C
C018
C038
C038
C078
C070
E0F0
E1F0
7FF0
3F60
00E0
00E0
00E0
00F8
0078
0010
ENDCHAR
STARTCHAR 024B
ENCODING 587
SWIDTH 480 0
DWIDTH 16 0
BBX 14 22 3 -6
BITMAP
00F8
07FC
1FFC
3C1C
381C
7018
E038
E038
E038
E030
C070
C070
E070
E0E0
7FE0
3FE0
00E0
00C0
00C0
00F8
00F8
0020
ENDCHAR
STARTCHAR 024C
ENCODING 588
SWIDTH 480 0
DWIDTH 16 0
BBX 16 21 2 0
BITMAP
03F0
07FC
0FFE
0E0E
0E07
0E07
0C07
1C06
1C0E
1C1C
18FC
FFF0
FFE0
38E0
3060
7070
7070
7070
6030
E038
E038
ENDCHAR
STARTCHAR 024D
ENCODING 589
SWIDTH 480 0
DWIDTH 16 0
BBX 15 16 2 0
BITMAP
00FE
0FFE
0FFE
0E00
0C00
1C00
1C00
1C00
FFE0
FFC0
3800
3800
3800
3000
7000
7000
ENDCHAR
STARTCHAR 024E
ENCODING 590
SWIDTH 480 0
DWIDTH 16 0
BBX 18 21 3 0
BITMAP
3801C0
380380
380700
380700
180E00
FFFF80
FFFF80
1C3800
0C7000
0EE000
0EC000
07C000
078000
070000
070000
070000
060000
0E0000
0E0000
0E0000
0C0000
ENDCHAR
STARTCHAR 024F
ENCODING 591
SWIDTH 480 0
DWIDTH 16 0
BBX 18 21 0 -6
BITMAP
0601C0
070380
070380
070300
070700
070700
1FFFC0
1FFF80
038C00
039C00
039800
03B800
01F000
01F000
01E000
01C000
038000
078000
FF0000
FC0000
600000
ENDCHAR
STARTCHAR 0292
ENCODING 658
SWIDTH 480 0
DWIDTH 16 0
BBX 16 21 1 -6
BITMAP
07FF
0FFE
000C
0018
0038
0060
00C0
0380
0780
07F0
00F0
0038
0038
0018
0038
0038
0078
40F0
FFE0
FFC0
0800
ENDCHAR
STARTCHAR 02BC
ENCODING 700
SWIDTH 480 0
DWIDTH 16 0
BBX 5 6 9 17
BITMAP
38
38
30
70
60
C0
ENDCHAR
STARTCHAR 02C6
ENCODING 710
SWIDTH 480 0
DWIDTH 16 0
BBX 8 5 8 17
BITMAP
08
1C
3E
76
E3
ENDCHAR
STARTCHAR 02C7
ENCODING 711
SWIDTH 480 0
DWIDTH 16 0
BBX 8 5 9 17
BITMAP
C2
C7
6E
78
30
ENDCHAR
STARTCHAR 02C9
ENCODING 713
SWIDTH 480 0
DWIDTH 16 0
BBX 9 2 8 19
BITMAP
FF80
FF00
ENDCHAR
STARTCHAR 02D8
ENCODING 728
SWIDTH 480 0
DWIDTH 16 0
BBX 8 4 9 18
BITMAP
C3
C6
FE
78
ENDCHAR
STARTCHAR 02D9
ENCODING 729
SWIDTH 480 0
DWIDTH 16 0
BBX 4 4 10 18
BITMAP
60
F0
F0
60
ENDCHAR
STARTCHAR 02DA
ENCODING 730
SWIDTH 480 0
DWIDTH 16 0
BBX 6 6 9 17
BITMAP
78
CC
C4
C4
7C
38
ENDCHAR
STARTCHAR 02DB
ENCODING 731
SWIDTH 480 0
DWIDTH 16 0
BBX 5 6 4 -6
BITMAP
38
70
E0
E0
F8
20
ENDCHAR
STARTCHAR 02DC
ENCODING 732
SWIDTH 480 0
DWIDTH 16 0
BBX 10 4 7 18
BITMAP
3840
7FC0
EF80
4200
ENDCHAR
STARTCHAR 02DD
ENCODING 733
SWIDTH 480 0
DWIDTH 16 0
BBX 10 5 7 17
BITMAP
1000
18C0
39C0
7380
C600
ENDCHAR
STARTCHAR 0311
ENCODING 785
SWIDTH 480 0
DWIDTH 16 0
BBX 8 4 8 18
BITMAP
3E
7F
C3
C3
ENDCHAR
STARTCHAR 0384
ENCODING 900
SWIDTH 480 0
DWIDTH 16 0
BBX 5 6 10 17
BITMAP
18
38
70
E0
C0
C0
ENDCHAR
STARTCHAR 0385
ENCODING 901
SWIDTH 480 0
DWIDTH 16 0
BBX 12 5 6 17
BITMAP
0300
6330
F770
E670
4C00
ENDCHAR
STARTCHAR 0386
ENCODING 902
SWIDTH 480 0
DWIDTH 16 0
BBX 16 21 0 0
BITMAP
031C
033E
073E
067E
0E6E
0CEE
01C6
0186
0386
0306
0706
0606
0E06
0FFF
1FFF
1FFF
3807
3007
7007
6007
E007
ENDCHAR
STARTCHAR 0388
ENCODING 904
SWIDTH 480 0
DWIDTH 16 0
BBX 18 21 0 0
BITMAP
33FFC0
3BFFC0
73FFC0
730000
670000
C70000
070000
070000
060000
0FFE00
0FFE00
0E0000
0C0000
1C0000
1C0000
1C0000
180000
380000
380000
3FFC00
3FFC00
ENDCHAR
STARTCHAR 0389
ENCODING 905
SWIDTH 480 0
DWIDTH 16 0
BBX 19 21 0 0
BITMAP
3380E0
7380E0
7300E0
6700C0
E701C0
C701C0
0601C0
0E01C0
0E0180
0FFF80
0FFF80
1C0380
1C0300
1C0700
1C0700
180700
380600
380E00
380E00
300E00
700C00
ENDCHAR
STARTCHAR 038A
ENCODING 906
SWIDTH 480 0
DWIDTH 16 0
BBX 17 21 1 0
BITMAP
33FF80
33FF80
73FF80
603000
E07000
C07000
007000
006000
00E000
00E000
00E000
00C000
01C000
01C000
01C000
018000
038000
038000
038000
3FF000
7FF000
ENDCHAR
STARTCHAR 038C
ENCODING 908
SWIDTH 480 0
DWIDTH 16 0
BBX 17 21 1 0
BITMAP
30FC00
39FE00
73CF00
670700
EE0380
CE0380
1C0380
1C0380
380380
380380
380300
300700
300700
700600
700E00
700E00
301C00
383C00
387800
1FF000
0FC000
ENDCHAR
STARTCHAR 038E
ENCODING 910
SWIDTH 480 0
DWIDTH 16 0
BBX 21 21 -1 0
BITMAP
330038
730038
738070
6380E0
E380E0
C181C0
018380
01C300
01C700
00CE00
00FC00
00F800
007000
007000
007000
006000
00E000
00E000
00E000
00C000
01C000
ENDCHAR
STARTCHAR 038F
ENCODING 911
SWIDTH 480 0
DWIDTH 16 0
BBX 18 21 0 0
BITMAP
183E00
38FF80
39FF80
7383C0
6701C0
6E01C0
0E01C0
1C01C0
1C01C0
1C01C0
1C0380
1C0380
180380
180700
180700
1C0E00
1C0C00
1C1C00
0C3800
FE7F00
FE7E00
ENDCHAR
STARTCHAR 0390
ENCODING 912
SWIDTH 480 0
DWIDTH 16 0
BBX 12 23 5 0
BITMAP
0300
6320
F770
E670
0C00
0000
0000
0000
FE00
FE00
0E00
0C00
1C00
1C00
1C00
1800
3800
3800
3800
3800
3C00
1F80
0F80
ENDCHAR
STARTCHAR 0391
ENCODING 913
SWIDTH 480 0
DWIDTH 16 0
BBX 16 21 0 0
BITMAP
001C
003C
003C
006E
00EE
00CE
01CE
018E
038E
0306
0706
0E06
0C06
1FFE
1FFE
3FFE
3006
7007
7007
E007
E007
ENDCHAR
STARTCHAR 0392
ENCODING 914
SWIDTH 480 0
DWIDTH 16 0
BBX 15 21 2 0
BITMAP
07F0
0FFC
0FFE
0C0E
1C06
1C06
1C0E
180E
383C
3FF8
3FF0
3078
701C
701C
701C
601C
E01C
E038
E0F8
FFE0
FF80
ENDCHAR
STARTCHAR 0393
ENCODING 915
SWIDTH 480 0
DWIDTH 16 0
BBX 18 21 1 0
BITMAP
00FFC0
00FFC0
01FFC0
01C000
01C000
018000
038000
038000
038000
030000
070000
070000
070000
060000
0E0000
0E0000
0E0000
0C0000
1C0000
FFC000
FFC000
ENDCHAR
STARTCHAR 0394
ENCODING 916
SWIDTH 480 0
DWIDTH 16 0
BBX 16 21 0 0
BITMAP
001C
003C
003C
006E
00EE
00CE
01CE
018E
038E
030E
0706
0E06
0C06
1C06
1806
3806
3006
7007
7007
FFFF
FFFF
ENDCHAR
STARTCHAR 0395
ENCODING 917
SWIDTH 480 0
DWIDTH 16 0
BBX 17 21 2 0
BITMAP
07FF80
07FF80
07FF00
060000
0E0000
0E0000
0E0000
0C0000
1C0000
1FFC00
1FF800
180000
380000
380000
380000
300000
700000
700000
700000
7FF800
FFF800
ENDCHAR
STARTCHAR 0396
ENCODING 918
SWIDTH 480 0
DWIDTH 16 0
BBX 18 21 1 0
BITMAP
07FFC0
07FFC0
07FFC0
000380
000700
000E00
001C00
003800
007000
00E000
01C000
01C000
038000
070000
0E0000
1C0000
380000
380000
700000
7FFC00
FFFC00
ENDCHAR
STARTCHAR 0397
ENCODING 919
SWIDTH 480 0
DWIDTH 16 0
BBX 18 21 1 0
BITMAP
0701C0
0701C0
0601C0
0E0180
0E0380
0E0380
0C0380
1C0380
1C0300
1FFF00
1FFF00
380700
380600
380E00
380E00
300E00
700C00
701C00
701C00
601C00
E01800
ENDCHAR
STARTCHAR 0398
ENCODING 920
SWIDTH 480 0
DWIDTH 16 0
BBX 15 21 3 0
BITMAP
01F0
07FC
0F3C
1C0E
380E
380E
700E
700E
600E
E7CE
E7CE
E7CC
E01C
C01C
C018
C038
E070
E070
F1E0
7FC0
3F80
ENDCHAR
STARTCHAR 0399
ENCODING 921
SWIDTH 480 0
DWIDTH 16 0
BBX 16 21 2 0
BITMAP
07FF
07FF
07FF
0060
00E0
00E0
00E0
00C0
01C0
01C0
01C0
0180
0380
0380
0380
0300
0700
0700
0700
7FE0
FFE0
ENDCHAR
STARTCHAR 039A
ENCODING 922
SWIDTH 480 0
DWIDTH 16 0
BBX 17 21 2 0
BITMAP
0E0380
0E0780
0E0F00
0C1E00
1C3C00
1C7800
1CF000
19C000
3B8000
3F0000
3F0000
370000
338000
71C000
71C000
70E000
607000
E07000
E03800
E03800
C03800
ENDCHAR
STARTCHAR 039B
ENCODING 923
SWIDTH 480 0
DWIDTH 16 0
BBX 16 21 0 0
BITMAP
001C
003C
003C
006E
00EE
00CE
01CE
018E
038E
030E
0706
0E06
0C06
1C06
1806
3806
3006
7007
6007
E007
E007
ENDCHAR
STARTCHAR 039C
ENCODING 924
SWIDTH 480 0
DWIDTH 16 0
BBX 18 21 1 0
BITMAP
0381C0
038380
078380
078780
078780
0D8D80
0D8D80
0D9B80
1D9B00
19B300
19E300
39E300
31C700
300700
700600
700600
600E00
600E00
E00E00
E00C00
C00C00
ENDCHAR
STARTCHAR 039D
ENCODING 925
SWIDTH 480 0
DWIDTH 16 0
BBX 18 21 1 0
BITMAP
0700C0
0700C0
0781C0
0781C0
0F8180
0FC180
0DC380
0CC380
1CC300
1CE300
186700
186700
386600
386600
307E00
303E00
703C00
703C00
603C00
603C00
E01800
ENDCHAR
STARTCHAR 039E
ENCODING 926
SWIDTH 480 0
DWIDTH 16 0
BBX 18 21 1 0
BITMAP
07FFC0
07FFC0
07FFC0
000000
000000
000000
000000
000000
000000
0FFE00
0FFE00
000000
000000
000000
000000
000000
000000
000000
000000
FFFC00
FFFC00
ENDCHAR
STARTCHAR 039F
ENCODING 927
SWIDTH 480 0
DWIDTH 16 0
BBX 15 21 3 0
BITMAP
01F0
07FC
0F3C
1C0E
380E
380E
700E
700E
600E
E00E
E00E
E00C
E01C
C01C
C018
C038
E070
E070
F1E0
7FC0
3F80
ENDCHAR
STARTCHAR 03A0
ENCODING 928
SWIDTH 480 0
DWIDTH 16 0
BBX 18 21 1 0
BITMAP
07FFC0
07FFC0
07FFC0
0E0180
0E0380
0E0380
0C0380
1C0380
1C0300
1C0700
180700
380700
380600
380E00
300E00
300E00
700C00
701C00
701C00
601C00
E01800
ENDCHAR
STARTCHAR 03A1
ENCODING 929
SWIDTH 480 0
DWIDTH 16 0
BBX 16 21 2 0
BITMAP
03F0
0FFC
0FFE
0E0F
0E07
1C07
1C07
1C07
1C06
180E
383C
3FF8
3FE0
3000
7000
7000
7000
6000
E000
E000
E000
ENDCHAR
STARTCHAR 03A3
ENCODING 931
SWIDTH 480 0
DWIDTH 16 0
BBX 18 21 1 0
BITMAP
07FFC0
07FFC0
07FFC0
070000
030000
038000
018000
01C000
00E000
00E000
00F000
01E000
03C000
078000
0F0000
1C0000
380000
700000
E00000
FFFC00
FFF800
ENDCHAR
STARTCHAR 03A4
ENCODING 932
SWIDTH 480 0
DWIDTH 16 0
BBX 15 21 5 0
BITMAP
7FFE
FFFC
FFFC
0700
0700
0700
0700
0600
0E00
0E00
0E00
0C00
1C00
1C00
1C00
1800
3800
3800
3800
3000
7000
ENDCHAR
STARTCHAR 03A5
ENCODING 933
SWIDTH 480 0
DWIDTH 16 0
BBX 16 21 5 0
BITMAP
E007
E00E
E01C
E01C
6038
7070
7070
70E0
31C0
3B80
3B00
1F00
1E00
1C00
1C00
1C00
1800
3800
3800
3800
3000
ENDCHAR
STARTCHAR 03A6
ENCODING 934
SWIDTH 480 0
DWIDTH 16 0
BBX 15 22 3 0
BITMAP
0060
00E0
00E0
07F8
0FFC
1DDC
39CE
718E
718E
E18E
E38E
E38E
E30C
E31C
E71C
E738
7670
7FE0
3FC0
0E00
0C00
0C00
ENDCHAR
STARTCHAR 03A7
ENCODING 935
SWIDTH 480 0
DWIDTH 16 0
BBX 19 21 1 0
BITMAP
0700E0
0701C0
0381C0
038380
038700
01CE00
01CE00
01DC00
00F800
00F000
00F000
01F000
03B000
07B800
073800
0E3800
1C1C00
381C00
781C00
700C00
E00E00
ENDCHAR
STARTCHAR 03A8
ENCODING 936
SWIDTH 480 0
DWIDTH 16 0
BBX 16 21 3 0
BITMAP
1803
3803
3807
3007
3006
71C6
718E
618E
638C
638C
E31C
E318
6738
7FF0
7FE0
1F80
0E00
0E00
0E00
0C00
1C00
ENDCHAR
STARTCHAR 03A9
ENCODING 937
SWIDTH 480 0
DWIDTH 16 0
BBX 18 21 0 0
BITMAP
003E00
00FF80
01FF80
0383C0
0701C0
0E01C0
0E01C0
1C01C0
1C01C0
1C01C0
1C0380
1C0380
180380
180700
180700
1C0E00
1C0C00
1C1C00
0C3800
FE7F00
FE7E00
ENDCHAR
STARTCHAR 03AA
ENCODING 938
SWIDTH 480 0
DWIDTH 16 0
BBX 16 26 2 0
BITMAP
01C7
01C7
01C6
0000
0000
07FF
07FF
07FF
0060
00E0
00E0
00E0
00C0
01C0
01C0
01C0
0180
0380
0380
0380
0300
0700
0700
0700
7FE0
FFE0
ENDCHAR
STARTCHAR 03AB
ENCODING 939
SWIDTH 480 0
DWIDTH 16 0
BBX 16 26 5 0
BITMAP
0E38
0E38
0E30
0000
0000
E007
E00E
E01C
E01C
6038
7070
7070
70E0
31C0
3B80
3B00
1F00
1E00
1C00
1C00
1C00
1800
3800
3800
3800
3000
ENDCHAR
STARTCHAR 03AC
ENCODING 940
SWIDTH 480 0
DWIDTH 16 0
BBX 14 23 3 0
BITMAP
0018
001C
0038
0070
00E0
0040
0000
00F8
07FC
1FFC
3C1C
3838
7038
E038
E030
E070
E070
C070
C070
E070
F0F0
7FF8
3F38
ENDCHAR
STARTCHAR 03AD
ENCODING 941
SWIDTH 480 0
DWIDTH 16 0
BBX 14 23 3 0
BITMAP
0008
001C
0038
0070
00E0
0040
0000
03F8
0FFC
1F38
3800
3800
3800
3800
1FC0
3FC0
7000
E000
E000
E000
F030
7FF0
3FE0
ENDCHAR
STARTCHAR 03AE
ENCODING 942
SWIDTH 480 0
DWIDTH 16 0
BBX 15 29 2 -6
BITMAP
0004
000E
001C
0038
0070
0020
0000
03F0
0FF8
1FFC
1C1C
1C0C
180C
380C
381C
381C
301C
7018
7038
7038
6038
E030
E070
0070
0070
0060
00E0
00E0
00E0
ENDCHAR
STARTCHAR 03AF
ENCODING 943
SWIDTH 480 0
DWIDTH 16 0
BBX 10 23 5 0
BITMAP
0080
01C0
0380
0700
0E00
0400
0000
0000
FE00
FE00
0E00
0C00
1C00
1C00
1C00
1800
3800
3800
3800
3800
3C00
1F80
0F80
ENDCHAR
STARTCHAR 03B0
ENCODING 944
SWIDTH 480 0
DWIDTH 16 0
BBX 15 23 3 0
BITMAP
0060
0C66
1EEE
1CCE
0980
0000
0000
0000
381C
381C
701C
7018
7038
7038
6038
E030
E070
E070
E070
E0E0
E1E0
7FC0
3F80
ENDCHAR
STARTCHAR 03B1
ENCODING 945
SWIDTH 480 0
DWIDTH 16 0
BBX 14 16 3 0
BITMAP
00F8
07FC
1FFC
3C1C
3838
7038
E038
E030
E070
E070
C070
C070
E070
F0F0
7FF8
3F38
ENDCHAR
STARTCHAR 03B2
ENCODING 946
SWIDTH 480 0
DWIDTH 16 0
BBX 16 29 1 -6
BITMAP
007C
00FE
01E7
0387
0303
0703
0707
0607
0E0E
0E7C
0E70
0CFC
1C1E
1C0E
1C0E
1C0E
180E
380E
380E
381C
3878
7FF0
7FE0
7000
6000
E000
E000
E000
C000
ENDCHAR
STARTCHAR 03B3
ENCODING 947
SWIDTH 480 0
DWIDTH 16 0
BBX 13 21 5 -6
BITMAP
C038
C070
E070
E060
E0E0
E0C0
E1C0
E380
E380
E700
EE00
FE00
FC00
F800
F000
E000
E000
E000
E000
E000
E000
ENDCHAR
STARTCHAR 03B4
ENCODING 948
SWIDTH 480 0
DWIDTH 16 0
BBX 15 23 3 0
BITMAP
01FC
03FE
078E
0600
0600
0700
0700
0380
03E0
0FF0
1E70
3838
7038
7018
E01C
E018
E038
E038
E038
E070
70F0
7FE0
3F80
ENDCHAR
STARTCHAR 03B5
ENCODING 949
SWIDTH 480 0
DWIDTH 16 0
BBX 14 16 3 0
BITMAP
03F8
0FFC
1F38
3800
3800
3800
3800
1FC0
3FC0
7000
E000
E000
E000
F030
7FF0
3FE0
ENDCHAR
STARTCHAR 03B6
ENCODING 950
SWIDTH 480 0
DWIDTH 16 0
BBX 16 29 3 -6
BITMAP
07FF
07FF
000E
001C
0078
00E0
01C0
0380
0700
0E00
1C00
3800
3800
7000
7000
E000
E000
E000
E000
7000
7E00
3FC0
07E0
00E0
00E0
00E0
01C0
03C0
0080
ENDCHAR
STARTCHAR 03B7
ENCODING 951
SWIDTH 480 0
DWIDTH 16 0
BBX 14 22 2 -6
BITMAP
03F0
0FF8
1FFC
1C1C
1C0C
180C
380C
381C
381C
301C
7018
7038
7038
6038
E030
E070
0070
0070
0060
00E0
00E0
00E0
ENDCHAR
STARTCHAR 03B8
ENCODING 952
SWIDTH 480 0
DWIDTH 16 0
BBX 15 23 3 0
BITMAP
01F0
03F8
07BC
0E1C
1C0E
1C0E
380E
380E
300E
700C
7FFC
7FFC
7FFC
E01C
E01C
E038
E038
E030
E070
E0E0
71C0
7FC0
3F00
ENDCHAR
STARTCHAR 03B9
ENCODING 953
SWIDTH 480 0
DWIDTH 16 0
BBX 9 15 5 0
BITMAP
FE00
FE00
0E00
0C00
1C00
1C00
1C00
1800
3800
3800
3800
3800
3C00
1F80
0F80
ENDCHAR
STARTCHAR 03BA
ENCODING 954
SWIDTH 480 0
DWIDTH 16 0
BBX 16 15 2 0
BITMAP
0C0F
1C1C
1C78
1CF0
19C0
3F80
3F00
3F00
3380
71C0
70E0
70F0
6070
E078
E038
ENDCHAR
STARTCHAR 03BB
ENCODING 955
SWIDTH 480 0
DWIDTH 16 0
BBX 14 23 1 0
BITMAP
07C0
07E0
00E0
0070
0070
0070
0030
0030
0078
00F8
01F8
01B8
0398
0718
0618
0E18
1C1C
1C1C
381C
301C
701C
701C
E01C
ENDCHAR
STARTCHAR 03BC
ENCODING 956
SWIDTH 480 0
DWIDTH 16 0
BBX 17 21 0 -6
BITMAP
070380
060380
0E0300
0E0700
0E0700
0C0700
1C0600
1C0E00
1C0E00
1C0E00
1C0E00
3C0C00
3C3E00
3FFF00
37E700
700000
700000
700000
600000
E00000
E00000
ENDCHAR
STARTCHAR 03BD
ENCODING 957
SWIDTH 480 0
DWIDTH 16 0
BBX 13 15 4 0
BITMAP
E018
6038
6038
6070
7070
70E0
70E0
71C0
7180
7380
3700
3700
3E00
3C00
3800
ENDCHAR
STARTCHAR 03BE
ENCODING 958
SWIDTH 480 0
DWIDTH 16 0
BBX 15 29 3 -6
BITMAP
00FE
03FE
07C2
0700
0E00
0E00
0C00
0E00
0E00
07F8
03F8
0FF0
3E00
7800
7000
E000
E000
E000
E000
F000
7E00
3FC0
07E0
00E0
00E0
00E0
01C0
01C0
0080
ENDCHAR
STARTCHAR 03BF
ENCODING 959
SWIDTH 480 0
DWIDTH 16 0
BBX 14 16 3 0
BITMAP
03E0
0FF0
1FF8
3C3C
701C
701C
E01C
E01C
E01C
E038
C038
C070
E070
F1E0
7FC0
3F80
ENDCHAR
STARTCHAR 03C0
ENCODING 960
SWIDTH 480 0
DWIDTH 16 0
BBX 15 15 2 0
BITMAP
1FFE
1FFE
1C0E
180C
381C
381C
381C
3018
7038
7038
7038
6030
E070
E070
E070
ENDCHAR
STARTCHAR 03C1
ENCODING 961
SWIDTH 480 0
DWIDTH 16 0
BBX 16 22 1 -6
BITMAP
0078
03FC
07FE
0F0E
0E07
0C07
1C07
1C07
1C07
180E
380E
380E
381C
3878
7FF0
7FE0
7000
6000
E000
E000
E000
C000
ENDCHAR
STARTCHAR 03C2
ENCODING 962
SWIDTH 480 0
DWIDTH 16 0
BBX 14 21 3 -6
BITMAP
01F8
07FC
1FF8
3C00
3800
7000
7000
E000
E000
E000
E000
E000
F000
7E00
3F80
07C0
00E0
00E0
00C0
01C0
0380
ENDCHAR
STARTCHAR 03C3
ENCODING 963
SWIDTH 480 0
DWIDTH 16 0
BBX 17 15 2 0
BITMAP
07FF80
0FFF00
1E1C00
381C00
701C00
701C00
701C00
601C00
E01C00
E01C00
E03800
E07800
70F000
7FE000
3FC000
ENDCHAR
STARTCHAR 03C4
ENCODING 964
SWIDTH 480 0
DWIDTH 16 0
BBX 13 15 4 0
BITMAP
FFF8
FFF8
1C00
1C00
1C00
1800
3800
3800
3800
3000
7000
7000
3820
3FE0
1FE0
ENDCHAR
STARTCHAR 03C5
ENCODING 965
SWIDTH 480 0
DWIDTH 16 0
BBX 14 15 3 0
BITMAP
381C
381C
701C
7018
7038
7038
6038
E030
E070
E070
E070
E0E0
E1E0
7FC0
3F80
ENDCHAR
STARTCHAR 03C6
ENCODING 966
SWIDTH 480 0
DWIDTH 16 0
BBX 16 22 2 -6
BITMAP
01E0
07F8
1FFC
3CCE
78CE
71C7
6187
E187
E186
E38E
E38E
E30E
E31C
7F78
3FF0
1FC0
0600
0E00
0E00
0C00
0C00
1C00
ENDCHAR
STARTCHAR 03C7
ENCODING 967
SWIDTH 480 0
DWIDTH 16 0
BBX 17 15 1 0
BITMAP
0E0780
070E00
070E00
039C00
03B800
01F000
01E000
01E000
03E000
077000
0E7000
1C3800
383800
701800
E01C00
ENDCHAR
STARTCHAR 03C8
ENCODING 968
SWIDTH 480 0
DWIDTH 16 0
BBX 16 21 2 -6
BITMAP
3803
3807
3007
71C7
7186
718E
638E
E38E
E30C
E31C
E71C
E738
F678
7FF0
3FE0
0E00
0E00
0C00
0C00
1C00
1C00
ENDCHAR
STARTCHAR 03C9
ENCODING 969
SWIDTH 480 0
DWIDTH 16 0
BBX 15 16 2 0
BITMAP
0800
1C1C
1C1C
380C
700C
600C
E00E
E38E
C38C
C30C
C30C
C71C
C71C
EFB8
FDF8
79F0
ENDCHAR
STARTCHAR 03CA
ENCODING 970
SWIDTH 480 0
DWIDTH 16 0
BBX 11 22 5 0
BITMAP
18C0
38E0
38E0
1040
0000
0000
0000
FE00
FE00
0E00
0C00
1C00
1C00
1C00
1800
3800
3800
3800
3800
3C00
1F80
0F80
ENDCHAR
STARTCHAR 03CB
ENCODING 971
SWIDTH 480 0
DWIDTH 16 0
BBX 14 22 3 0
BITMAP
0618
073C
0F38
0210
0000
0000
0000
381C
381C
701C
7018
7038
7038
6038
E030
E070
E070
E070
E0E0
E1E0
7FC0
3F80
ENDCHAR
STARTCHAR 03CC
ENCODING 972
SWIDTH 480 0
DWIDTH 16 0
BBX 14 23 3 0
BITMAP
0008
001C
0038
0070
00E0
0040
0000
03E0
0FF0
1FF8
3C3C
701C
701C
E01C
E01C
E01C
E038
C038
C070
E070
F1E0
7FC0
3F80
ENDCHAR
STARTCHAR 03CD
ENCODING 973
SWIDTH 480 0
DWIDTH 16 0
BBX 14 23 3 0
BITMAP
0030
0038
0070
00E0
01C0
0080
0000
0000
381C
381C
701C
7018
7038
7038
6038
E030
E070
E070
E070
E0E0
E1E0
7FC0
3F80
ENDCHAR
STARTCHAR 03CE
ENCODING 974
SWIDTH 480 0
DWIDTH 16 0
BBX 15 23 2 0
BITMAP
0018
003C
0038
0070
00E0
0040
0000
0800
1C1C
1C1C
380C
700C
600C
E00E
E38E
C38C
C30C
C30C
C71C
C71C
EFB8
FDF8
79F0
ENDCHAR
STARTCHAR 0400
ENCODING 1024
SWIDTH 480 0
DWIDTH 16 0
BBX 17 27 2 1
BITMAP
006000
00F000
007000
003800
001800
000000
07FF80
07FF80
07FF00
060000
0E0000
0E0000
0E0000
0C0000
1C0000
1FFC00
1FF800
180000
380000
380000
380000
300000
700000
700000
700000
7FF800
FFF800
ENDCHAR
STARTCHAR 0401
ENCODING 1025
SWIDTH 480 0
DWIDTH 16 0
BBX 17 26 2 0
BITMAP
01E700
01E700
00C700
000000
000000
07FF80
07FF80
07FF00
060000
0E0000
0E0000
0E0000
0C0000
1C0000
1FFC00
1FF800
180000
380000
380000
380000
300000
700000
700000
700000
7FF800
FFF800
ENDCHAR
STARTCHAR 0402
ENCODING 1026
SWIDTH 480 0
DWIDTH 16 0
BBX 14 21 3 0
BITMAP
3FFC
3FFC
7FFC
0E00
0E00
0C00
1C00
1C00
1FE0
1FF0
3CF8
3838
3818
381C
3018
7018
7038
7038
60F0
E7E0
E780
ENDCHAR
STARTCHAR 0403
ENCODING 1027
SWIDTH 480 0
DWIDTH 16 0
BBX 18 27 1 1
BITMAP
000180
0003C0
000700
000E00
000C00
000000
00FFC0
00FFC0
01FFC0
01C000
01C000
018000
038000
038000
038000
030000
070000
070000
070000
060000
0E0000
0E0000
0E0000
0C0000
1C0000
FFC000
FFC000
ENDCHAR
STARTCHAR 0404
ENCODING 1028
SWIDTH 480 0
DWIDTH 16 0
BBX 16 21 3 0
BITMAP
00FC
03FF
07CF
0E00
1C00
3800
3000
7000
7000
FFE0
FFE0
FFE0
E000
E000
E000
E000
E000
7000
7830
3FF0
1FE0
ENDCHAR
STARTCHAR 0405
ENCODING 1029
SWIDTH 480 0
DWIDTH 16 0
BBX 16 21 2 0
BITMAP
01FE
03FF
078E
0E00
0E00
0C00
0C00
0E00
0F00
07C0
03E0
00F0
0078
0038
001C
001C
0018
0038
6078
FFF0
7FC0
ENDCHAR
STARTCHAR 0406
ENCODING 1030
SWIDTH 480 0
DWIDTH 16 0
BBX 16 21 2 0
BITMAP
07FF
07FF
07FF
0060
00E0
00E0
00E0
00C0
01C0
01C0
01C0
0180
0380
0380
0380
0300
0700
0700
0700
7FE0
FFE0
ENDCHAR
STARTCHAR 0407
ENCODING 1031
SWIDTH 480 0
DWIDTH 16 0
BBX 16 26 2 0
BITMAP
01E7
01E7
00C7
0000
0000
07FF
07FF
07FF
0060
00E0
00E0
00E0
00C0
01C0
01C0
01C0
0180
0380
0380
0380
0300
0700
0700
0700
7FE0
FFE0
ENDCHAR
STARTCHAR 0408
ENCODING 1032
SWIDTH 480 0
DWIDTH 16 0
BBX 16 21 2 0
BITMAP
01FF
03FF
03FF
0007
0006
000E
000E
000E
000E
000C
001C
001C
001C
0018
0038
0038
0038
0070
60F0
FFE0
3FC0
ENDCHAR
STARTCHAR 0409
ENCODING 1033
SWIDTH 480 0
DWIDTH 16 0
BBX 17 21 0 0
BITMAP
00FE00
00FC00
01FC00
01CC00
019C00
019C00
039800
039800
033F00
033F80
073380
073180
067180
0E7180
0E6180
0C6180
1CE380
18E300
78C700
F0FE00
61F800
ENDCHAR
STARTCHAR 040A
ENCODING 1034
SWIDTH 480 0
DWIDTH 16 0
BBX 16 21 1 0
BITMAP
061C
0E18
0E18
0C18
0C38
0C38
1C30
1C30
1FFE
1FFF
3FE7
3863
30E3
30E3
70C3
70C3
61C7
61C6
E18E
E1FC
C3F0
ENDCHAR
STARTCHAR 040B
ENCODING 1035
SWIDTH 480 0
DWIDTH 16 0
BBX 13 21 3 0
BITMAP
3FF8
3FF8
3FF8
0E00
0E00
0C00
1C00
1C00
1FE0
1FF0
3E78
3838
3838
3838
3038
7038
7038
7030
6070
E070
E070
ENDCHAR
STARTCHAR 040C
ENCODING 1036
SWIDTH 480 0
DWIDTH 16 0
BBX 17 27 2 1
BITMAP
000600
000E00
001C00
003800
003000
000000
0E0380
0E0780
0E0F00
0C1E00
1C3C00
1C7800
1CF000
19C000
3B8000
3F0000
3F0000
370000
338000
71C000
71C000
70E000
607000
E07000
E03800
E03800
C03800
ENDCHAR
STARTCHAR 040D
ENCODING 1037
SWIDTH 480 0
DWIDTH 16 0
BBX 18 27 1 1
BITMAP
007000
007000
003800
001C00
000C00
000000
0701C0
0701C0
0603C0
0607C0
0E0F80
0E1D80
0C1B80
0C3380
1C7300
1C6300
18C700
19C700
3B8600
3B0600
360E00
3E0E00
7C0C00
780C00
781C00
701C00
E01800
ENDCHAR
STARTCHAR 040E
ENCODING 1038
SWIDTH 480 0
DWIDTH 16 0
BBX 20 27 1 0
BITMAP
002100
00E180
007F80
007E00
000000
000000
0E0070
0E0060
0600E0
0601C0
0701C0
070380
070380
030700
038600
038E00
019C00
019C00
01F800
01F000
00F000
00E000
01C000
01C000
078000
7F0000
FC0000
ENDCHAR
STARTCHAR 040F
ENCODING 1039
SWIDTH 480 0
DWIDTH 16 0
BBX 18 27 1 -6
BITMAP
0701C0
0701C0
0601C0
0E01C0
0E0380
0E0380
0C0380
1C0380
1C0300
1C0700
180700
380700
380600
380E00
300E00
700E00
700C00
701C00
601C00
7FFC00
FFF800
070000
070000
060000
060000
0E0000
0E0000
ENDCHAR
STARTCHAR 0410
ENCODING 1040
SWIDTH 480 0
DWIDTH 16 0
BBX 16 21 0 0
BITMAP
001C
003C
003C
006E
00EE
00CE
01CE
018E
038E
0306
0706
0E06
0C06
1FFE
1FFE
3FFE
3006
7007
7007
E007
E007
ENDCHAR
STARTCHAR 0411
ENCODING 1041
SWIDTH 480 0
DWIDTH 16 0
BBX 16 21 2 0
BITMAP
0FFF
0FFE
0FFE
0C00
1C00
1C00
1C00
1800
3FE0
3FF8
38FC
301C
701C
700C
701C
601C
E01C
E038
E0F0
FFE0
FF80
ENDCHAR
STARTCHAR 0412
ENCODING 1042
SWIDTH 480 0
DWIDTH 16 0
BBX 15 21 2 0
BITMAP
07F0
0FFC
0FFE
0C0E
1C06
1C06
1C0E
180E
383C
3FF8
3FF0
3078
701C
701C
701C
601C
E01C
E038
E0F8
FFE0
FF80
ENDCHAR
STARTCHAR 0413
ENCODING 1043
SWIDTH 480 0
DWIDTH 16 0
BBX 18 21 1 0
BITMAP
00FFC0
00FFC0
01FFC0
01C000
01C000
018000
038000
038000
038000
030000
070000
070000
070000
060000
0E0000
0E0000
0E0000
0C0000
1C0000
FFC000
FFC000
ENDCHAR
STARTCHAR 0414
ENCODING 1044
SWIDTH 480 0
DWIDTH 16 0
BBX 20 27 -1 -6
BITMAP
003FF0
003FF0
003FE0
0038E0
0070E0
0070E0
0070C0
0061C0
00E1C0
00E1C0
00E180
01C380
01C380
038380
038300
070700
070700
0E0700
1E0600
3FFF80
3FFF00
700700
700700
700700
600600
E00E00
E00E00
ENDCHAR
STARTCHAR 0415
ENCODING 1045
SWIDTH 480 0
DWIDTH 16 0
BBX 17 21 2 0
BITMAP
07FF80
07FF80
07FF00
060000
0E0000
0E0000
0E0000
0C0000
1C0000
1FFC00
1FF800
180000
380000
380000
380000
300000
700000
700000
700000
7FF800
FFF800
ENDCHAR
STARTCHAR 0416
ENCODING 1046
SWIDTH 480 0
DWIDTH 16 0
BBX 21 21 0 0
BITMAP
070C38
071C70
031C60
0318E0
0319C0
03B980
01BB00
01B700
01BE00
01FC00
01FC00
03EC00
076C00
0EEE00
0CE600
1CC600
38C600
31C700
71C700
E18700
E18700
ENDCHAR
STARTCHAR 0417
ENCODING 1047
SWIDTH 480 0
DWIDTH 16 0
BBX 17 21 1 0
BITMAP
01FC00
07FE00
078F00
000700
000380
000300
000700
000E00
003E00
07F800
07F800
007C00
001E00
000E00
000E00
000E00
000E00
001C00
607C00
FFF800
7FE000
ENDCHAR
STARTCHAR 0418
ENCODING 1048
SWIDTH 480 0
DWIDTH 16 0
BBX 18 21 1 0
BITMAP
0701C0
0701C0
0603C0
0607C0
0E0F80
0E1D80
0C1B80
0C3380
1C7300
1C6300
18C700
19C700
3B8600
3B0600
360E00
3E0E00
7C0C00
780C00
781C00
701C00
E01800
ENDCHAR
STARTCHAR 0419
ENCODING 1049
SWIDTH 480 0
DWIDTH 16 0
BBX 18 27 1 0
BITMAP
002100
006180
007F80
003F00
000000
000000
0701C0
0701C0
0603C0
0607C0
0E0F80
0E1D80
0C1B80
0C3380
1C7300
1C6300
18C700
19C700
3B8600
3B0600
360E00
3E0E00
7C0C00
780C00
781C00
701C00
E01800
ENDCHAR
STARTCHAR 041A
ENCODING 1050
SWIDTH 480 0
DWIDTH 16 0
BBX 17 21 2 0
BITMAP
0E0380
0E0780
0E0F00
0C1E00
1C3C00
1C7800
1CF000
19C000
3B8000
3F0000
3F0000
370000
338000
71C000
71C000
70E000
607000
E07000
E03800
E03800
C03800
ENDCHAR
STARTCHAR 041B
ENCODING 1051
SWIDTH 480 0
DWIDTH 16 0
BBX 19 21 0 0
BITMAP
007FE0
007FE0
007FE0
0060E0
00E1C0
00E1C0
00E1C0
00C1C0
01C180
01C380
018380
038380
038300
030700
070700
060700
0E0600
1C0E00
3C0E00
F80E00
600C00
ENDCHAR
STARTCHAR 041C
ENCODING 1052
SWIDTH 480 0
DWIDTH 16 0
BBX 18 21 1 0
BITMAP
0381C0
038380
078380
078780
078780
0D8D80
0D8D80
0D9B80
1D9B00
19B300
19E300
39E300
31C700
300700
700600
700600
600E00
600E00
E00E00
E00C00
C00C00
ENDCHAR
STARTCHAR 041D
ENCODING 1053
SWIDTH 480 0
DWIDTH 16 0
BBX 18 21 1 0
BITMAP
0701C0
0701C0
0601C0
0E0180
0E0380
0E0380
0C0380
1C0380
1C0300
1FFF00
1FFF00
380700
380600
380E00
380E00
300E00
700C00
701C00
701C00
601C00
E01800
ENDCHAR
STARTCHAR 041E
ENCODING 1054
SWIDTH 480 0
DWIDTH 16 0
BBX 15 21 3 0
BITMAP
01F0
07FC
0F3C
1C0E
380E
380E
700E
700E
600E
E00E
E00E
E00C
E01C
C01C
C018
C038
E070
E070
F1E0
7FC0
3F80
ENDCHAR
STARTCHAR 041F
ENCODING 1055
SWIDTH 480 0
DWIDTH 16 0
BBX 18 21 1 0
BITMAP
07FFC0
07FFC0
07FFC0
0E0180
0E0380
0E0380
0C0380
1C0380
1C0300
1C0700
180700
380700
380600
380E00
300E00
300E00
700C00
701C00
701C00
601C00
E01800
ENDCHAR
STARTCHAR 0420
ENCODING 1056
SWIDTH 480 0
DWIDTH 16 0
BBX 16 21 2 0
BITMAP
03F0
0FFC
0FFE
0E0F
0E07
1C07
1C07
1C07
1C06
180E
383C
3FF8
3FE0
3000
7000
7000
7000
6000
E000
E000
E000
ENDCHAR
STARTCHAR 0421
ENCODING 1057
SWIDTH 480 0
DWIDTH 16 0
BBX 16 21 3 0
BITMAP
00FC
03FF
07CF
0E00
1C00
3800
3800
7000
7000
6000
E000
E000
E000
E000
E000
E000
E000
F000
7830
3FF0
1FE0
ENDCHAR
STARTCHAR 0422
ENCODING 1058
SWIDTH 480 0
DWIDTH 16 0
BBX 15 21 5 0
BITMAP
7FFE
FFFC
FFFC
0700
0700
0700
0700
0600
0E00
0E00
0E00
0C00
1C00
1C00
1C00
1800
3800
3800
3800
3000
7000
ENDCHAR
STARTCHAR 0423
ENCODING 1059
SWIDTH 480 0
DWIDTH 16 0
BBX 20 21 1 0
BITMAP
0E0070
0E0060
0600E0
0601C0
0701C0
070380
070380
030700
038600
038E00
019C00
019C00
01F800
01F000
00F000
00E000
01C000
01C000
078000
7F0000
FC0000
ENDCHAR
STARTCHAR 0424
ENCODING 1060
SWIDTH 480 0
DWIDTH 16 0
BBX 15 22 3 0
BITMAP
0060
00E0
00E0
07F8
0FFC
1DDC
39CE
718E
718E
E18E
E38E
E38E
E30C
E31C
E71C
E738
7670
7FE0
3FC0
0E00
0C00
0C00
ENDCHAR
STARTCHAR 0425
ENCODING 1061
SWIDTH 480 0
DWIDTH 16 0
BBX 19 21 1 0
BITMAP
0700E0
0701C0
0381C0
038380
038700
01CE00
01CE00
01DC00
00F800
00F000
00F000
01F000
03B000
07B800
073800
0E3800
1C1C00
381C00
781C00
700C00
E00E00
ENDCHAR
STARTCHAR 0426
ENCODING 1062
SWIDTH 480 0
DWIDTH 16 0
BBX 18 27 1 -6
BITMAP
0701C0
0701C0
060180
0E0380
0E0380
0E0380
0C0300
1C0700
1C0700
1C0700
180600
380E00
380E00
380E00
300C00
701C00
701C00
701C00
601800
7FFE00
FFFC00
001C00
001C00
001C00
001800
003800
003800
ENDCHAR
STARTCHAR 0427
ENCODING 1063
SWIDTH 480 0
DWIDTH 16 0
BBX 15 21 4 0
BITMAP
380E
380E
300E
700C
701C
701C
601C
E01C
E018
E038
F038
7FF8
7FF0
0F70
0070
0070
0060
00E0
00E0
00E0
00C0
ENDCHAR
STARTCHAR 0428
ENCODING 1064
SWIDTH 480 0
DWIDTH 16 0
BBX 18 21 1 0
BITMAP
0700C0
0601C0
0601C0
0E0180
0E0180
0C0380
0C0380
1C0380
1CE300
18E700
18C700
38C700
39C600
31C600
31CE00
718E00
718C00
638C00
639C00
7FFC00
FFF800
ENDCHAR
STARTCHAR 0429
ENCODING 1065
SWIDTH 480 0
DWIDTH 16 0
BBX 18 27 1 -6
BITMAP
0701C0
0601C0
060180
0E0180
0E0380
0C0380
0C0300
1C0300
1CE700
18E700
18C600
38C600
39CE00
31CE00
318C00
718C00
739C00
639C00
631800
7FFE00
FFFC00
001C00
001C00
001C00
001800
003800
003800
ENDCHAR
STARTCHAR 042A
ENCODING 1066
SWIDTH 480 0
DWIDTH 16 0
BBX 13 21 3 0
BITMAP
3F00
3F00
3E00
0E00
0E00
0E00
0C00
1C00
1FE0
1FF0
1878
3838
3818
3818
3818
7038
7038
7070
70F0
7FE0
FF80
ENDCHAR
STARTCHAR 042B
ENCODING 1067
SWIDTH 480 0
DWIDTH 16 0
BBX 19 21 1 0
BITMAP
0E00E0
0E00C0
0E00C0
0C01C0
1C01C0
1C01C0
1C0180
180380
3F8380
3FC380
39E300
30E700
30E700
70E700
70E600
60EE00
60CE00
E1CE00
E38C00
FF1C00
FE1C00
ENDCHAR
STARTCHAR 042C
ENCODING 1068
SWIDTH 480 0
DWIDTH 16 0
BBX 15 21 2 0
BITMAP
0E00
0E00
0E00
0C00
1C00
1C00
1C00
1800
3FF0
3FF8
387C
301E
700E
700E
700E
600E
E01C
E03C
E0F8
FFF0
FFC0
ENDCHAR
STARTCHAR 042D
ENCODING 1069
SWIDTH 480 0
DWIDTH 16 0
BBX 16 21 2 0
BITMAP
03F0
0FFC
0E3C
000E
0006
0007
0007
0007
0007
07FF
07FF
07FE
000E
000E
000C
001C
0038
0078
C0F0
FFE0
7F80
ENDCHAR
STARTCHAR 042E
ENCODING 1070
SWIDTH 480 0
DWIDTH 16 0
BBX 18 21 1 0
BITMAP
060F00
061F80
0E3B80
0E71C0
0C61C0
0CE1C0
1CE1C0
1CC180
19C180
1FC180
3F8380
398380
3B8380
338300
738700
738700
738600
638E00
E39C00
E1F800
E1F000
ENDCHAR
STARTCHAR 042F
ENCODING 1071
SWIDTH 480 0
DWIDTH 16 0
BBX 18 21 1 0
BITMAP
003FC0
00FFC0
03FBC0
0781C0
070180
0E0380
0E0380
0E0380
0E0300
0E0700
078700
03FF00
03FE00
070E00
070E00
0E0E00
1C0C00
381C00
381C00
701C00
E01800
ENDCHAR
STARTCHAR 0430
ENCODING 1072
SWIDTH 480 0
DWIDTH 16 0
BBX 15 16 2 0
BITMAP
00FC
03FE
0FFE
1E0C
3C0C
381C
701C
701C
6018
E038
E038
E038
6030
70F0
7FF8
3FB8
ENDCHAR
STARTCHAR 0431
ENCODING 1073
SWIDTH 480 0
DWIDTH 16 0
BBX 16 23 3 0
BITMAP
000F
00FF
03FE
07C0
0F00
1E00
1C00
3800
3FF0
3FF8
7C38
7018
701C
601C
E01C
E018
E038
E038
E078
E070
71E0
7FC0
3F80
ENDCHAR
STARTCHAR 0432
ENCODING 1074
SWIDTH 480 0
DWIDTH 16 0
BBX 14 16 2 0
BITMAP
01F0
07F8
0F3C
1C1C
381C
381C
3878
3FF0
7FF0
7038
7018
6018
E038
E078
FFF0
FFC0
ENDCHAR
STARTCHAR 0433
ENCODING 1075
SWIDTH 480 0
DWIDTH 16 0
BBX 13 16 3 0
BITMAP
0FC0
1FF0
1EF8
0038
0038
0038
00F0
07E0
3F80
7C00
F000
E000
C000
E020
FFE0
7FE0
ENDCHAR
STARTCHAR 0434
ENCODING 1076
SWIDTH 480 0
DWIDTH 16 0
BBX 14 23 3 0
BITMAP
1F80
1FE0
10F0
0078
0038
0018
001C
001C
07FC
1FFC
3C1C
781C
701C
6018
E018
E038
E038
E030
E070
E0F0
F1E0
7FC0
3F80
ENDCHAR
STARTCHAR 0435
ENCODING 1077
SWIDTH 480 0
DWIDTH 16 0
BBX 15 16 2 0
BITMAP
01F0
07FC
0FBC
1C0E
380E
700E
701C
70F8
7FF0
FF80
E000
E000
7000
7810
3FF0
1FF0
ENDCHAR
STARTCHAR 0436
ENCODING 1078
SWIDTH 480 0
DWIDTH 16 0
BBX 19 16 0 0
BITMAP
180060
1C31E0
0E33C0
063300
067600
066600
066600
07FC00
07FC00
04CC00
0CCC00
0CCC00
1DCC00
198C00
F98F00
F18700
ENDCHAR
STARTCHAR 0437
ENCODING 1079
SWIDTH 480 0
DWIDTH 16 0
BBX 15 16 2 0
BITMAP
03F0
0FFC
0FFC
000E
000C
001C
003C
07F8
0FF0
0038
0018
0018
0038
4078
7FF0
FFC0
ENDCHAR
STARTCHAR 0438
ENCODING 1080
SWIDTH 480 0
DWIDTH 16 0
BBX 14 15 3 0
BITMAP
381C
301C
7018
7038
7038
6038
E038
E070
E070
E070
E070
E0E0
E1E0
FFF0
7F70
ENDCHAR
STARTCHAR 0439
ENCODING 1081
SWIDTH 480 0
DWIDTH 16 0
BBX 14 22 3 0
BITMAP
061C
0638
07F0
03E0
0000
0000
0000
381C
301C
7018
7038
7038
6038
E038
E070
E070
E070
E070
E0E0
E1E0
FFF0
7F70
ENDCHAR
STARTCHAR 043A
ENCODING 1082
SWIDTH 480 0
DWIDTH 16 0
BBX 16 15 2 0
BITMAP
0C0F
1C1C
1C78
1CF0
19C0
3F80
3F00
3F00
3380
71C0
70E0
70F0
6070
E078
E038
ENDCHAR
STARTCHAR 043B
ENCODING 1083
SWIDTH 480 0
DWIDTH 16 0
BBX 17 15 0 0
BITMAP
00FF80
00FF80
00C380
01C300
01C700
018700
038700
038600
030E00
070E00
0E0E00
1E0C00
3C1C00
F81C00
E01C00
ENDCHAR
STARTCHAR 043C
ENCODING 1084
SWIDTH 480 0
DWIDTH 16 0
BBX 17 15 1 0
BITMAP
0E0380
0E0780
1E0F80
1F0F80
1F1F00
3B1B00
3B3300
337700
736700
73C700
63C600
638600
E00E00
E00E00
C00E00
ENDCHAR
STARTCHAR 043D
ENCODING 1085
SWIDTH 480 0
DWIDTH 16 0
BBX 15 15 2 0
BITMAP
1C0E
1C0E
1C0E
180C
381C
381C
3FFC
3FF8
7038
7038
7038
6030
E070
E070
E070
ENDCHAR
STARTCHAR 043E
ENCODING 1086
SWIDTH 480 0
DWIDTH 16 0
BBX 14 16 3 0
BITMAP
03E0
0FF0
1FF8
3C3C
701C
701C
E01C
E01C
E01C
E038
C038
C070
E070
F1E0
7FC0
3F80
ENDCHAR
STARTCHAR 043F
ENCODING 1087
SWIDTH 480 0
DWIDTH 16 0
BBX 14 16 2 0
BITMAP
03F0
0FF8
1FFC
1C1C
1C0C
180C
380C
381C
381C
301C
7018
7038
7038
6038
E030
E070
ENDCHAR
STARTCHAR 0440
ENCODING 1088
SWIDTH 480 0
DWIDTH 16 0
BBX 16 22 1 -6
BITMAP
01F0
0FFC
0FFE
0E0F
0C07
1C07
1C07
1C07
1807
380E
380E
381C
383C
70F8
7FF0
7FC0
7000
6000
E000
E000
E000
C000
ENDCHAR
STARTCHAR 0441
ENCODING 1089
SWIDTH 480 0
DWIDTH 16 0
BBX 15 16 2 0
BITMAP
00FC
07FE
0FDC
1E00
3800
7800
7000
7000
6000
E000
E000
E000
7000
7810
3FF0
1FF0
ENDCHAR
STARTCHAR 0442
ENCODING 1090
SWIDTH 480 0
DWIDTH 16 0
BBX 16 16 1 0
BITMAP
078E
1FFF
1FF7
1CE3
18E3
18E3
38C7
38C7
31C6
31C6
700E
700E
600C
600C
E01C
E01C
ENDCHAR
STARTCHAR 0443
ENCODING 1091
SWIDTH 480 0
DWIDTH 16 0
BBX 18 21 0 -6
BITMAP
0601C0
060380
070380
070380
070700
070700
070E00
030E00
038C00
039C00
039800
03B800
01F000
01F000
01E000
01C000
038000
078000
FF0000
FC0000
600000
ENDCHAR
STARTCHAR 0444
ENCODING 1092
SWIDTH 480 0
DWIDTH 16 0
BBX 16 29 2 -6
BITMAP
0038
0030
0030
0070
0070
0060
0060
00E0
0FFC
1FFE
3CCE
78CE
71C7
6187
E187
E186
E38E
E38E
E30E
E31C
7F78
3FF0
1FC0
0600
0E00
0E00
0C00
0C00
1C00
ENDCHAR
STARTCHAR 0445
ENCODING 1093
SWIDTH 480 0
DWIDTH 16 0
BBX 17 15 1 0
BITMAP
0E0780
070E00
070E00
039C00
03B800
01F000
01E000
01E000
03E000
077000
0E7000
1C3800
383800
701800
E01C00
ENDCHAR
STARTCHAR 0446
ENCODING 1094
SWIDTH 480 0
DWIDTH 16 0
BBX 13 19 3 -4
BITMAP
3038
7038
7038
7030
7070
6070
E070
E060
E0E0
C0E0
C0E0
E0E0
E1F0
FFF0
7E70
0070
0070
0060
0060
ENDCHAR
STARTCHAR 0447
ENCODING 1095
SWIDTH 480 0
DWIDTH 16 0
BBX 13 15 4 0
BITMAP
6038
E038
E038
E030
C070
C070
E070
FFE0
7FE0
18E0
00E0
00C0
01C0
01C0
01C0
ENDCHAR
STARTCHAR 0448
ENCODING 1096
SWIDTH 480 0
DWIDTH 16 0
BBX 16 15 1 0
BITMAP
1803
1803
3807
38C7
31C6
31C6
71C6
718E
718E
638C
638C
E39C
639C
7FFC
7DEC
ENDCHAR
STARTCHAR 0449
ENCODING 1097
SWIDTH 480 0
DWIDTH 16 0
BBX 16 19 1 -4
BITMAP
1803
1803
3807
38C7
31C6
31C6
71C6
718E
718E
638C
638C
E39C
639E
7FFF
7DE7
0006
000E
000E
000E
ENDCHAR
STARTCHAR 044A
ENCODING 1098
SWIDTH 480 0
DWIDTH 16 0
BBX 13 15 3 0
BITMAP
7E00
7C00
1C00
1C00
1C00
1FE0
3FF0
3878
3838
3018
7018
7038
7070
7FF0
FFC0
ENDCHAR
STARTCHAR 044B
ENCODING 1099
SWIDTH 480 0
DWIDTH 16 0
BBX 17 15 1 0
BITMAP
1C0380
1C0380
180380
180300
380700
3F0700
3FC700
39C600
70E600
70EE00
70EE00
60CC00
E1CC00
FF9C00
FF1C00
ENDCHAR
STARTCHAR 044C
ENCODING 1100
SWIDTH 480 0
DWIDTH 16 0
BBX 14 15 2 0
BITMAP
0E00
0C00
1C00
1C00
1C00
1FE0
3FF8
387C
381C
301C
701C
701C
7078
7FF0
FFE0
ENDCHAR
STARTCHAR 044D
ENCODING 1101
SWIDTH 480 0
DWIDTH 16 0
BBX 15 16 2 0
BITMAP
07C0
1FF0
0FF8
001C
001C
000C
000E
07FC
0FFC
001C
001C
0038
0078
40F0
7FE0
FF80
ENDCHAR
STARTCHAR 044E
ENCODING 1102
SWIDTH 480 0
DWIDTH 16 0
BBX 17 16 1 0
BITMAP
001E00
0C3F00
1C7F00
1CE300
1CE380
18C380
39C300
3FC300
3FC300
318700
718700
718600
718E00
61CC00
61FC00
E0F800
ENDCHAR
STARTCHAR 044F
ENCODING 1103
SWIDTH 480 0
DWIDTH 16 0
BBX 15 16 2 0
BITMAP
00FC
07FE
0F8E
1C0E
1C0E
380C
181C
1C1C
1FFC
07F8
0E38
1C38
3838
7030
7070
E070
ENDCHAR
STARTCHAR 0450
ENCODING 1104
SWIDTH 480 0
DWIDTH 16 0
BBX 15 23 2 0
BITMAP
0040
00E0
00E0
0070
0038
0010
0000
01F0
07FC
0FBC
1C0E
380E
700E
701C
70F8
7FF0
FF80
E000
E000
7000
7810
3FF0
1FF0
ENDCHAR
STARTCHAR 0451
ENCODING 1105
SWIDTH 480 0
DWIDTH 16 0
BBX 16 22 2 0
BITMAP
0086
01CF
01CF
0186
0000
0000
01F0
07FC
0FBC
1C0E
380E
700E
701C
70F8
7FF0
FF80
E000
E000
7000
7810
3FF0
1FF0
ENDCHAR
STARTCHAR 0452
ENCODING 1106
SWIDTH 480 0
DWIDTH 16 0
BBX 13 29 3 -6
BITMAP
0700
0700
0600
3FF0
3FF0
0E00
0C00
1DE0
1FF0
1FF8
1838
3818
3818
3818
3038
7038
7038
7030
7070
6070
E070
E060
E0E0
00E0
00E0
01C0
0FC0
0F80
0400
ENDCHAR
STARTCHAR 0453
ENCODING 1107
SWIDTH 480 0
DWIDTH 16 0
BBX 13 23 3 0
BITMAP
0010
0030
0070
00E0
01C0
0100
0000
0FC0
1FF0
1EF8
0038
0038
0038
00F0
07E0
3F80
7C00
F000
E000
C000
E020
FFE0
7FE0
ENDCHAR
STARTCHAR 0454
ENCODING 1108
SWIDTH 480 0
DWIDTH 16 0
BBX 14 16 3 0
BITMAP
01F8
07FC
1FF8
3C00
7800
7000
E000
FFC0
FFC0
C000
C000
E000
E000
F020
7FE0
3FE0
ENDCHAR
STARTCHAR 0455
ENCODING 1109
SWIDTH 480 0
DWIDTH 16 0
BBX 13 16 3 0
BITMAP
03F0
0FF8
1FF8
1C00
1800
1800
1E00
0F80
07C0
01E0
0070
0070
0070
C0E0
FFE0
FF80
ENDCHAR
STARTCHAR 0456
ENCODING 1110
SWIDTH 480 0
DWIDTH 16 0
BBX 9 22 5 0
BITMAP
0700
0F00
0F00
0F00
0000
0000
0000
FE00
FE00
0E00
0C00
1C00
1C00
1C00
1800
3800
3800
3800
3800
3C00
1F80
0F80
ENDCHAR
STARTCHAR 0457
ENCODING 1111
SWIDTH 480 0
DWIDTH 16 0
BBX 11 22 5 0
BITMAP
18C0
38E0
38E0
1040
0000
0000
0000
FE00
FE00
0E00
0C00
1C00
1C00
1C00
1800
3800
3800
3800
3800
3C00
1F80
0F80
ENDCHAR
STARTCHAR 0458
ENCODING 1112
SWIDTH 480 0
DWIDTH 16 0
BBX 16 28 1 -6
BITMAP
000E
001F
001F
000E
0000
0000
0000
03FE
07FC
001C
001C
001C
0018
0038
0038
0038
0038
0030
0070
0070
0070
0060
00E0
00E0
01C0
FFC0
FF00
1C00
ENDCHAR
STARTCHAR 0459
ENCODING 1113
SWIDTH 480 0
DWIDTH 16 0
BBX 17 15 0 0
BITMAP
03F800
03F800
033800
033800
073000
063E00
067F00
067700
0E6380
0C6380
1C6300
38E300
78E700
F0FE00
E0FC00
ENDCHAR
STARTCHAR 045A
ENCODING 1114
SWIDTH 480 0
DWIDTH 16 0
BBX 16 15 1 0
BITMAP
0C30
1C30
1C70
1870
1860
187C
3FFE
3FEE
30C7
30C7
70C6
71C6
61CE
61FC
E1F8
ENDCHAR
STARTCHAR 045B
ENCODING 1115
SWIDTH 480 0
DWIDTH 16 0
BBX 13 23 3 0
BITMAP
0700
0700
0600
3FF0
3FF0
0E00
0C00
1DE0
1FF0
1FF8
1838
3818
3818
3818
3038
7038
7038
7030
7070
6070
E070
E060
E0E0
ENDCHAR
STARTCHAR 045C
ENCODING 1116
SWIDTH 480 0
DWIDTH 16 0
BBX 16 23 2 0
BITMAP
0008
001C
003C
0078
00E0
0040
0000
0000
0C0F
1C1C
1C78
1CF0
19C0
3F80
3F00
3F00
3380
71C0
70E0
70F0
6070
E078
E038
ENDCHAR
STARTCHAR 045D
ENCODING 1117
SWIDTH 480 0
DWIDTH 16 0
BBX 14 23 3 0
BITMAP
0100
0700
0380
01C0
00E0
0040
0000
0000
381C
301C
7018
7038
7038
6038
E038
E070
E070
E070
E070
E0E0
E1E0
FFF0
7F70
ENDCHAR
STARTCHAR 045E
ENCODING 1118
SWIDTH 480 0
DWIDTH 16 0
BBX 18 28 0 -6
BITMAP
00C380
00C700
00FE00
007C00
000000
000000
000000
0601C0
060380
070380
070380
070700
070700
070E00
030E00
038C00
039C00
039800
03B800
01F000
01F000
01E000
01C000
038000
078000
FF0000
FC0000
600000
ENDCHAR
STARTCHAR 045F
ENCODING 1119
SWIDTH 480 0
DWIDTH 16 0
BBX 14 21 3 -6
BITMAP
381C
301C
7018
7038
7038
6038
E038
E070
E070
E070
E070
E0E0
E1E0
FFF0
7F70
0000
0C00
1C00
1C00
1800
3800
ENDCHAR
STARTCHAR 0462
ENCODING 1122
SWIDTH 480 0
DWIDTH 16 0
BBX 13 22 3 0
BITMAP
0700
0700
3FF8
3FF8
3FF0
0E00
0E00
0C00
1C00
1FC0
1FF0
19F8
3838
3818
3818
3818
7038
7038
7070
70F0
7FE0
FF80
ENDCHAR
STARTCHAR 0463
ENCODING 1123
SWIDTH 480 0
DWIDTH 16 0
BBX 17 16 0 0
BITMAP
03C000
0FE000
0EF000
1C7000
1C7000
187000
187E00
387F00
38E780
30E380
30E180
70C380
71C380
71C700
61FF00
E1FE00
ENDCHAR
STARTCHAR 0472
ENCODING 1138
SWIDTH 480 0
DWIDTH 16 0
BBX 15 21 3 0
BITMAP
01F0
07F8
0F3C
1C1E
380E
380E
700E
700E
600E
FE0E
FF8C
E3FC
C0FC
C01C
C038
C038
C070
E070
F1E0
7FC0
3F80
ENDCHAR
STARTCHAR 0473
ENCODING 1139
SWIDTH 480 0
DWIDTH 16 0
BBX 14 16 3 0
BITMAP
03E0
0FF0
1FF8
383C
701C
701C
EC1C
FF1C
F3FC
C1F8
C038
C070
E070
E1E0
7FC0
3F80
ENDCHAR
STARTCHAR 0474
ENCODING 1140
SWIDTH 480 0
DWIDTH 16 0
BBX 17 21 4 0
BITMAP
E00F00
E01F80
E01F00
E03800
E03000
E07000
E06000
E0E000
E0C000
E1C000
E18000
E38000
630000
670000
660000
6E0000
6C0000
7C0000
780000
780000
780000
ENDCHAR
STARTCHAR 0475
ENCODING 1141
SWIDTH 480 0
DWIDTH 16 0
BBX 14 16 4 0
BITMAP
001C
E07C
E074
E0E0
E0E0
E1C0
E180
E380
E300
E700
6600
6E00
6C00
7C00
7800
7800
ENDCHAR
STARTCHAR 048A
ENCODING 1162
SWIDTH 480 0
DWIDTH 16 0
BBX 17 33 1 -6
BITMAP
004100
00C300
00FF00
007E00
000000
000000
070380
070380
060780
060F80
0E0F00
0E1B00
0C3700
0C7700
1C6600
1CC600
18CE00
198E00
3B0E00
3B0C00
360C00
3E1C00
7C1C00
781800
781800
703C00
E03C00
001C00
003800
003800
007000
00E000
004000
ENDCHAR
STARTCHAR 048B
ENCODING 1163
SWIDTH 480 0
DWIDTH 16 0
BBX 14 27 3 -5
BITMAP
061C
0638
07F0
03E0
0000
0000
0000
3818
3038
7038
7038
7030
6070
E070
E070
E060
E0E0
E0E0
E0E0
E1E0
FFF8
7E70
0070
0060
00E0
01C0
0180
ENDCHAR
STARTCHAR 048C
ENCODING 1164
SWIDTH 480 0
DWIDTH 16 0
BBX 13 21 3 0
BITMAP
0600
0E00
0E00
7FC0
7FC0
1C00
1C00
1C00
1FE0
3FF0
3870
3838
3038
7038
7038
7038
6070
E070
E1E0
FFC0
FF00
ENDCHAR
STARTCHAR 048D
ENCODING 1165
SWIDTH 480 0
DWIDTH 16 0
BBX 14 17 2 0
BITMAP
0E00
0E00
7FE0
7FC0
1C00
1C00
1800
3FE0
3FF8
3878
301C
701C
701C
7038
7078
7FF0
FFC0
ENDCHAR
STARTCHAR 048E
ENCODING 1166
SWIDTH 480 0
DWIDTH 16 0
BBX 16 21 2 0
BITMAP
03F0
0FFC
0FFE
0E0F
0E07
1C07
1C07
1C47
1CC6
18CE
387C
3FF8
3FE0
3030
7030
7030
7000
6000
E000
E000
E000
ENDCHAR
STARTCHAR 048F
ENCODING 1167
SWIDTH 480 0
DWIDTH 16 0
BBX 16 22 1 -6
BITMAP
01F0
0FFC
0FFE
0E0E
0C06
1C07
1C07
1C06
180E
380E
39CE
38DC
38F8
70F8
7FE0
7FE0
7070
6030
E020
E000
E000
C000
ENDCHAR
STARTCHAR 0490
ENCODING 1168
SWIDTH 480 0
DWIDTH 16 0
BBX 19 25 1 0
BITMAP
0000E0
0000E0
0000E0
0000C0
01FFC0
01FFC0
01FFC0
01C000
038000
038000
038000
038000
030000
070000
070000
070000
060000
0E0000
0E0000
0E0000
0C0000
1C0000
1C0000
FFC000
FFC000
ENDCHAR
STARTCHAR 0491
ENCODING 1169
SWIDTH 480 0
DWIDTH 16 0
BBX 14 19 3 0
BITMAP
001C
001C
001C
0018
0FF8
0FF8
1C00
1C00
1C00
1800
3800
3800
3800
3000
7000
7000
7000
6000
E000
ENDCHAR
STARTCHAR 0492
ENCODING 1170
SWIDTH 480 0
DWIDTH 16 0
BBX 18 21 1 0
BITMAP
00FFC0
00FFC0
01FFC0
01C000
01C000
018000
038000
038000
038000
1FF000
1FF000
3FF000
070000
060000
0E0000
0E0000
0E0000
0C0000
1C0000
FFC000
FFC000
ENDCHAR
STARTCHAR 0493
ENCODING 1171
SWIDTH 480 0
DWIDTH 16 0
BBX 13 16 3 0
BITMAP
07E0
1FF0
1EF8
0018
0018
2038
3CF0
1FE0
1FC0
7CF0
F030
E000
E000
E020
FFE0
3FE0
ENDCHAR
STARTCHAR 0494
ENCODING 1172
SWIDTH 480 0
DWIDTH 16 0
BBX 15 27 2 -6
BITMAP
0FFE
0FFE
0FFC
0C00
1C00
1C00
1C00
1800
3BE0
3FF0
3FF8
3838
301C
701C
701C
701C
601C
E01C
E038
E038
C038
0070
00F0
01E0
1FC0
3F00
1000
ENDCHAR
STARTCHAR 0495
ENCODING 1173
SWIDTH 480 0
DWIDTH 16 0
BBX 13 20 2 -6
BITMAP
0FF8
1FF8
1C00
1C00
1800
3800
3FE0
3FF0
3078
7038
7038
7038
6038
E038
E038
0070
0070
01E0
0FC0
0F80
ENDCHAR
STARTCHAR 0496
ENCODING 1174
SWIDTH 480 0
DWIDTH 16 0
BBX 21 27 0 -6
BITMAP
070C38
071C70
031C60
0318E0
0319C0
03B980
01BB00
01B700
01BE00
01FC00
01FC00
03EC00
076C00
0EEE00
0CEE00
1CC600
38C600
31C600
71C600
E18780
E18700
000700
000700
000700
000600
000E00
000E00
ENDCHAR
STARTCHAR 0497
ENCODING 1175
SWIDTH 480 0
DWIDTH 16 0
BBX 19 20 0 -4
BITMAP
180060
1C31E0
0E33C0
063300
067600
066600
066600
07FC00
07FC00
04CC00
0CCC00
0CCC00
1DCC00
198E00
F98780
F18780
000380
000300
000300
000700
ENDCHAR
STARTCHAR 0498
ENCODING 1176
SWIDTH 480 0
DWIDTH 16 0
BBX 17 27 1 -6
BITMAP
01FC00
07FE00
078F00
000700
000380
000300
000700
000E00
003E00
07F800
07F800
007C00
001E00
000E00
000E00
000E00
000E00
001C00
607C00
FFF800
7FE000
030000
070000
070000
030000
1F0000
1C0000
ENDCHAR
STARTCHAR 0499
ENCODING 1177
SWIDTH 480 0
DWIDTH 16 0
BBX 15 22 2 -6
BITMAP
03F0
0FFC
0FFC
000E
000C
001C
003C
07F8
0FF0
0038
0018
0018
0038
4078
7FF0
FFC0
0600
0E00
0700
0700
3E00
1800
ENDCHAR
STARTCHAR 049A
ENCODING 1178
SWIDTH 480 0
DWIDTH 16 0
BBX 17 27 2 -6
BITMAP
0E0380
0E0780
0E0F00
0C1E00
1C3C00
1C7800
1CF000
19C000
3B8000
3F0000
3F0000
370000
338000
71C000
71C000
70E000
60E000
E07000
E07000
E07C00
C03800
003800
003800
003800
003000
007000
007000
ENDCHAR
STARTCHAR 049B
ENCODING 1179
SWIDTH 480 0
DWIDTH 16 0
BBX 15 19 2 -4
BITMAP
0C1E
1C3C
1C70
1CE0
19C0
3F80
3E00
3F00
3380
71C0
71C0
70E0
60E0
E078
E078
0038
0038
0030
0070
ENDCHAR
STARTCHAR 049C
ENCODING 1180
SWIDTH 480 0
DWIDTH 16 0
BBX 19 21 1 0
BITMAP
0601E0
0E01C0
0E0380
0E0700
0C0700
1CCE00
1D9C00
1DB800
19F800
3FF000
3FE000
3BE000
337000
737000
773800
763800
603800
E01C00
E01C00
E01C00
E01C00
ENDCHAR
STARTCHAR 049D
ENCODING 1181
SWIDTH 480 0
DWIDTH 16 0
BBX 17 15 1 0
BITMAP
1C0780
1C0E00
1C0E00
199C00
39B800
3BF000
3FE000
3FE000
73F000
777000
763800
703800
603800
E01C00
E01C00
ENDCHAR
STARTCHAR 049E
ENCODING 1182
SWIDTH 480 0
DWIDTH 16 0
BBX 18 21 2 0
BITMAP
0703C0
060780
0E0700
3F8E00
3F1C00
0C3800
1C7000
1CE000
1FC000
1F8000
3F0000
3B8000
3BC000
31C000
70E000
707000
707000
703800
603800
E01C00
E01C00
ENDCHAR
STARTCHAR 049F
ENCODING 1183
SWIDTH 480 0
DWIDTH 16 0
BBX 16 16 2 0
BITMAP
0E00
0C0F
7F1C
7F38
1C70
19E0
3BC0
3F00
3F00
3380
71C0
70E0
70E0
6070
E078
E038
ENDCHAR
STARTCHAR 04A0
ENCODING 1184
SWIDTH 480 0
DWIDTH 16 0
BBX 17 21 3 0
BITMAP
3F0780
3F0700
3E0E00
0E1C00
0E3800
0E7800
0CF000
1DE000
1DC000
1F8000
1F0000
3B8000
3B8000
39C000
39C000
30E000
70E000
707000
707000
607000
E03800
ENDCHAR
STARTCHAR 04A1
ENCODING 1185
SWIDTH 480 0
DWIDTH 16 0
BBX 15 15 3 0
BITMAP
7E1E
7C38
1C70
1CE0
1DC0
1B80
3F00
3F00
3B80
31C0
71C0
70E0
70E0
6070
E070
ENDCHAR
STARTCHAR 04A2
ENCODING 1186
SWIDTH 480 0
DWIDTH 16 0
BBX 18 27 1 -6
BITMAP
0701C0
0701C0
0601C0
0E0180
0E0380
0E0380
0C0380
1C0300
1C0700
1FFF00
1FFF00
380600
380E00
380E00
300E00
700C00
701C00
701C00
701C00
601E00
E01E00
000C00
001C00
001C00
001C00
001800
003800
ENDCHAR
STARTCHAR 04A3
ENCODING 1187
SWIDTH 480 0
DWIDTH 16 0
BBX 15 19 2 -4
BITMAP
1C0E
1C0E
1C0E
180C
381C
381C
3FFC
3FF8
7038
7038
7038
6030
E070
E078
E078
0038
0038
0030
0070
ENDCHAR
STARTCHAR 04A4
ENCODING 1188
SWIDTH 480 0
DWIDTH 16 0
BBX 20 21 1 0
BITMAP
0703F0
0703F0
0603E0
0E0300
0E0700
0E0700
0C0700
1C0600
1C0E00
1FFE00
1FFE00
380C00
381C00
381C00
381C00
301800
703800
703800
703800
603000
E07000
ENDCHAR
STARTCHAR 04A5
ENCODING 1189
SWIDTH 480 0
DWIDTH 16 0
BBX 17 15 2 0
BITMAP
1C1F80
181F80
381800
383800
383800
383800
3FF800
7FF000
707000
707000
607000
E06000
E0E000
E0E000
C0E000
ENDCHAR
STARTCHAR 04A6
ENCODING 1190
SWIDTH 480 0
DWIDTH 16 0
BBX 16 27 1 -6
BITMAP
07F8
07F0
0FF0
0E70
0C70
0C60
1C60
1CE0
18FC
18FE
38CE
39C7
31C7
3187
3187
7387
7386
6306
630E
E30E
E70C
001C
0038
0078
01F0
01E0
0100
ENDCHAR
STARTCHAR 04A7
ENCODING 1191
SWIDTH 480 0
DWIDTH 16 0
BBX 16 22 1 -6
BITMAP
0780
1FC0
1DE0
18E0
3860
38E0
30E0
30FE
70FE
71C7
71C7
61C7
E187
E387
E386
C38E
000E
001C
001C
00F8
01F0
0080
ENDCHAR
STARTCHAR 04A8
ENCODING 1192
SWIDTH 480 0
DWIDTH 16 0
BBX 15 26 2 -5
BITMAP
00FE
03FE
07C6
0E00
1C00
3810
38FC
71FE
71CE
738E
638E
E30E
E70E
E70E
E70C
E71C
671C
7738
7770
3FE0
1FC0
0700
0380
03C0
01F8
00F8
ENDCHAR
STARTCHAR 04A9
ENCODING 1193
SWIDTH 480 0
DWIDTH 16 0
BBX 14 20 2 -4
BITMAP
01F0
07F0
0F00
1C00
3830
70FC
71DC
638C
E30C
E30C
E70C
E71C
E718
7778
7FF0
1FC0
0300
0380
01F0
00E0
ENDCHAR
STARTCHAR 04AA
ENCODING 1194
SWIDTH 480 0
DWIDTH 16 0
BBX 16 27 3 -6
BITMAP
00FC
03FF
07CF
0E00
1C00
3800
3800
7000
7000
6000
E000
E000
E000
E000
E000
E000
E000
F000
7830
3FF0
1FE0
0600
0E00
0600
0600
3E00
1800
ENDCHAR
STARTCHAR 04AB
ENCODING 1195
SWIDTH 480 0
DWIDTH 16 0
BBX 15 22 2 -6
BITMAP
00FC
07FE
0FDC
1E00
3800
7800
7000
7000
6000
E000
E000
E000
7000
7810
3FF0
1FF0
0600
0600
0700
0700
3E00
1800
ENDCHAR
STARTCHAR 04AC
ENCODING 1196
SWIDTH 480 0
DWIDTH 16 0
BBX 15 27 5 -6
BITMAP
7FFE
FFFC
FFFC
0700
0700
0700
0700
0600
0E00
0E00
0E00
0C00
1C00
1C00
1C00
1800
3800
3800
3800
3C00
7800
1800
3800
3800
3000
3000
7000
ENDCHAR
STARTCHAR 04AD
ENCODING 1197
SWIDTH 480 0
DWIDTH 16 0
BBX 16 20 1 -4
BITMAP
078E
1FFF
1FF7
1CE3
18E3
18E3
38C7
38C7
31C6
31C6
700E
700E
600C
600C
E01E
E01E
000E
000C
000C
001C
ENDCHAR
STARTCHAR 04AE
ENCODING 1198
SWIDTH 480 0
DWIDTH 16 0
BBX 16 21 5 0
BITMAP
E007
E00E
E01C
E01C
6038
7070
7070
70E0
31C0
3B80
3B00
1F00
1E00
1C00
1C00
1C00
1800
3800
3800
3800
3000
ENDCHAR
STARTCHAR 04AF
ENCODING 1199
SWIDTH 480 0
DWIDTH 16 0
BBX 13 21 4 -6
BITMAP
E018
6038
6038
6070
7070
70E0
70E0
71C0
71C0
7380
3700
3700
3E00
3C00
3800
3800
3800
3000
7000
7000
7000
ENDCHAR
STARTCHAR 04B0
ENCODING 1200
SWIDTH 480 0
DWIDTH 16 0
BBX 17 21 4 0
BITMAP
700380
700700
700E00
300E00
301C00
383800
383800
187000
18E000
1DC000
0D8000
0F0000
FFE000
FFE000
FFE000
0E0000
0C0000
1C0000
1C0000
1C0000
180000
ENDCHAR
STARTCHAR 04B1
ENCODING 1201
SWIDTH 480 0
DWIDTH 16 0
BBX 15 21 2 -6
BITMAP
3806
180E
180E
181C
1C1C
1C38
1C38
1C70
1C60
1CE0
0DC0
0D80
0F80
7FE0
FFE0
0E00
0E00
0C00
1C00
1C00
1C00
ENDCHAR
STARTCHAR 04B2
ENCODING 1202
SWIDTH 480 0
DWIDTH 16 0
BBX 19 27 1 -6
BITMAP
0701E0
0701C0
030380
038700
038700
038E00
01DC00
01F800
01F000
00F000
01E000
01E000
03F000
077000
0E3000
0E3800
1C3800
383800
703800
F01E00
E01C00
001C00
001C00
001C00
001800
003800
003800
ENDCHAR
STARTCHAR 04B3
ENCODING 1203
SWIDTH 480 0
DWIDTH 16 0
BBX 16 19 1 -4
BITMAP
0E07
0E0E
071C
0738
03F0
03E0
01E0
03C0
03E0
07E0
0E70
1C70
3830
703C
E03C
001C
001C
0018
0038
ENDCHAR
STARTCHAR 04B4
ENCODING 1204
SWIDTH 480 0
DWIDTH 16 0
BBX 16 27 3 -6
BITMAP
3FC7
3FC7
7FC6
0E0E
0E0E
0C0E
1C0C
1C1C
1C1C
181C
3818
3838
3838
3038
7030
7070
7070
6070
E060
FFF8
FFF0
0070
0070
0070
0060
00E0
00E0
ENDCHAR
STARTCHAR 04B5
ENCODING 1205
SWIDTH 480 0
DWIDTH 16 0
BBX 14 19 3 -4
BITMAP
FF1C
FF1C
3818
3838
3838
3038
7038
7070
7070
6070
E070
E060
71F0
7FF8
3F38
0030
0070
0070
0070
ENDCHAR
STARTCHAR 04B6
ENCODING 1206
SWIDTH 480 0
DWIDTH 16 0
BBX 15 27 4 -6
BITMAP
380E
380E
300C
701C
701C
701C
6018
E038
E038
E038
F030
7FF0
7FF0
0F70
0060
00E0
00E0
00E0
00C0
01F0
01E0
00E0
00E0
00E0
00C0
01C0
01C0
ENDCHAR
STARTCHAR 04B7
ENCODING 1207
SWIDTH 480 0
DWIDTH 16 0
BBX 13 19 4 -4
BITMAP
6038
E038
E038
E030
C070
C070
E070
FFE0
7FE0
08E0
00E0
00C0
01C0
01E0
01E0
00E0
00E0
00C0
01C0
ENDCHAR
STARTCHAR 04B8
ENCODING 1208
SWIDTH 480 0
DWIDTH 16 0
BBX 15 21 4 0
BITMAP
380E
380E
300E
700C
701C
701C
601C
E31C
E318
E738
F638
7FF8
7FF0
1F70
0C70
0C70
0C60
0CE0
00E0
00E0
00C0
ENDCHAR
STARTCHAR 04B9
ENCODING 1209
SWIDTH 480 0
DWIDTH 16 0
BBX 13 15 4 0
BITMAP
6038
E038
E038
E030
C670
C670
EC70
FFE0
7FE0
1CE0
18E0
18C0
01C0
01C0
01C0
ENDCHAR
STARTCHAR 04BA
ENCODING 1210
SWIDTH 480 0
DWIDTH 16 0
BBX 14 21 2 0
BITMAP
0E00
0E00
0E00
0C00
1C00
1C00
1C00
19E0
3FF8
3FFC
381C
381C
300C
700C
701C
701C
601C
E018
E038
E038
C038
ENDCHAR
STARTCHAR 04BB
ENCODING 1211
SWIDTH 480 0
DWIDTH 16 0
BBX 14 23 2 0
BITMAP
0700
0600
0E00
0E00
0E00
0C00
1C00
1DE0
1FF8
1FF8
381C
381C
381C
381C
301C
7018
7038
7038
6038
E030
E070
E070
C070
ENDCHAR
STARTCHAR 04BC
ENCODING 1212
SWIDTH 480 0
DWIDTH 16 0
BBX 16 21 3 0
BITMAP
007C
00FE
01CE
0387
0387
4707
C707
CE07
EE06
FFFE
7FFE
1C00
1C00
1C00
1C00
1C00
1C00
1C00
1E10
0FF0
07F0
ENDCHAR
STARTCHAR 04BD
ENCODING 1213
SWIDTH 480 0
DWIDTH 16 0
BBX 16 16 2 0
BITMAP
007C
01FE
03FF
0387
E707
CE07
EE0E
FE3E
7FF8
1FE0
1C00
1C00
0C00
0E08
0FF8
07F8
ENDCHAR
STARTCHAR 04BE
ENCODING 1214
SWIDTH 480 0
DWIDTH 16 0
BBX 16 27 3 -6
BITMAP
007C
00FE
01CE
0387
0387
4707
C707
CE07
EE06
FFFE
7FFE
1C00
1C00
1C00
1C00
1C00
1C00
1C00
1E10
0FF0
07F0
0380
0380
0300
0300
0700
0700
ENDCHAR
STARTCHAR 04BF
ENCODING 1215
SWIDTH 480 0
DWIDTH 16 0
BBX 16 20 2 -4
BITMAP
007C
01FE
03FF
0387
E707
CE07
EE0E
FE3E
7FF8
1FE0
1C00
1C00
0C00
0E08
0FF8
07F8
01C0
0180
0380
0380
ENDCHAR
STARTCHAR 04C0
ENCODING 1216
SWIDTH 480 0
DWIDTH 16 0
BBX 16 21 2 0
BITMAP
07FF
07FF
07FF
0060
00E0
00E0
00E0
00C0
01C0
01C0
01C0
0180
0380
0380
0380
0300
0700
0700
0700
7FE0
FFE0
ENDCHAR
STARTCHAR 04C1
ENCODING 1217
SWIDTH 480 0
DWIDTH 16 0
BBX 21 27 0 0
BITMAP
001080
0030C0
003FC0
001F80
000000
000000
070C38
071C70
031C60
0318E0
0319C0
03B980
01BB00
01B700
01BE00
01FC00
01FC00
03EC00
076C00
0EEE00
0CE600
1CC600
38C600
31C700
71C700
E18700
E18700
ENDCHAR
STARTCHAR 04C2
ENCODING 1218
SWIDTH 480 0
DWIDTH 16 0
BBX 19 22 0 0
BITMAP
00E180
006380
007F00
003E00
000000
000000
180060
1C31E0
0E33C0
063300
067600
066600
066600
07FC00
07FC00
04CC00
0CCC00
0CCC00
1DCC00
198C00
F98F00
F18700
ENDCHAR
STARTCHAR 04C3
ENCODING 1219
SWIDTH 480 0
DWIDTH 16 0
BBX 18 27 2 -6
BITMAP
0E03C0
0E0380
0E0700
0C0E00
1C1C00
1C3800
1C7000
18E000
3BC000
3F8000
3FE000
3FF000
307800
703800
701C00
701C00
601C00
E01C00
E01C00
E03800
C03800
007000
00F000
01E000
1FC000
1F0000
180000
ENDCHAR
STARTCHAR 04C4
ENCODING 1220
SWIDTH 480 0
DWIDTH 16 0
BBX 15 21 2 -6
BITMAP
0C0E
1C3C
1C78
1CF0
19C0
3B80
3FC0
3FE0
30F0
7038
7038
7038
6038
E038
E038
0070
0070
00E0
0FC0
0F80
0C00
ENDCHAR
STARTCHAR 04C5
ENCODING 1221
SWIDTH 480 0
DWIDTH 16 0
BBX 18 26 0 -6
BITMAP
003FC0
007FC0
007FC0
0071C0
006180
00E380
00E380
00C380
01C300
01C700
018700
038700
038600
030E00
070E00
060E00
0E0C00
1C1C00
3C1C00
F81E00
E01E00
000E00
001C00
003C00
007800
007000
ENDCHAR
STARTCHAR 04C6
ENCODING 1222
SWIDTH 480 0
DWIDTH 16 0
BBX 17 20 0 -5
BITMAP
00FF80
00FF00
00C700
01C700
01C700
018600
038E00
038E00
030E00
070C00
0E1C00
1E1C00
3C1C00
F81E00
E03E00
000C00
001C00
003800
007000
002000
ENDCHAR
STARTCHAR 04C7
ENCODING 1223
SWIDTH 480 0
DWIDTH 16 0
BBX 18 27 1 -6
BITMAP
0701C0
0701C0
0601C0
0E0180
0E0380
0E0380
0C0380
1C0380
1C0300
1FFF00
1FFF00
380700
380600
380E00
380E00
300E00
700C00
701C00
701C00
601C00
E01800
003800
003800
003800
03F000
03E000
010000
ENDCHAR
STARTCHAR 04C8
ENCODING 1224
SWIDTH 480 0
DWIDTH 16 0
BBX 15 21 2 -6
BITMAP
1C0E
1C0E
1C0E
180C
381C
381C
3FFC
3FFC
7038
7038
7038
6038
E030
E070
E070
0070
00E0
00E0
07E0
0FC0
0200
ENDCHAR
STARTCHAR 04C9
ENCODING 1225
SWIDTH 480 0
DWIDTH 16 0
BBX 18 27 1 -6
BITMAP
0701C0
070180
060380
0E0380
0E0380
0E0300
0C0700
1C0700
1C0700
1FFE00
1FFE00
380E00
380E00
380C00
381C00
301C00
701C00
701C00
701800
603E00
E03C00
001C00
003800
003800
007000
00E000
004000
ENDCHAR
STARTCHAR 04CA
ENCODING 1226
SWIDTH 480 0
DWIDTH 16 0
BBX 15 20 2 -5
BITMAP
1C0E
1C0C
1C1C
181C
381C
3818
3FF8
3FF8
7038
7030
7070
6070
E070
E078
E0F8
0030
0070
00E0
01C0
0080
ENDCHAR
STARTCHAR 04CB
ENCODING 1227
SWIDTH 480 0
DWIDTH 16 0
BBX 15 27 4 -6
BITMAP
380E
380E
300E
700C
701C
701C
601C
E01C
E018
E038
F038
7FF8
7FF0
0F70
0070
0070
0060
00E0
00E0
01E0
03C0
0380
0300
0300
0700
0700
0700
ENDCHAR
STARTCHAR 04CC
ENCODING 1228
SWIDTH 480 0
DWIDTH 16 0
BBX 13 19 4 -4
BITMAP
6038
E038
E038
E030
C070
C070
E070
FFE0
7FE0
18E0
00E0
00C0
01C0
03C0
03C0
0700
0700
0700
0600
ENDCHAR
STARTCHAR 04CD
ENCODING 1229
SWIDTH 480 0
DWIDTH 16 0
BBX 17 26 1 -6
BITMAP
070380
070700
070700
0F0F00
0F0F00
0F1B00
1B1B00
1BB700
1BB600
19E600
39E600
31C600
31CE00
700E00
700C00
600C00
601C00
E01C00
E01C00
E01E00
C01E00
001C00
001C00
003800
007000
00E000
ENDCHAR
STARTCHAR 04CE
ENCODING 1230
SWIDTH 480 0
DWIDTH 16 0
BBX 16 20 1 -5
BITMAP
1C0F
1E0E
1E1E
1E1E
3E36
363E
366E
766E
76CC
67CC
639C
E39C
E01C
E01E
C01E
000C
001C
0038
0070
0020
ENDCHAR
STARTCHAR 04CF
ENCODING 1231
SWIDTH 480 0
DWIDTH 16 0
BBX 16 21 2 0
BITMAP
07FF
07FF
07FF
0060
00E0
00E0
00E0
00C0
01C0
01C0
01C0
0180
0380
0380
0380
0300
0700
0700
0700
7FE0
FFE0
ENDCHAR
STARTCHAR 04D0
ENCODING 1232
SWIDTH 480 0
DWIDTH 16 0
BBX 18 27 0 0
BITMAP
002080
0071C0
003F80
003F00
000000
000000
001C00
003C00
003C00
006E00
00EE00
00CE00
01CE00
018E00
038E00
030600
070600
0E0600
0C0600
1FFE00
1FFE00
3FFE00
300600
700700
700700
E00700
E00700
ENDCHAR
STARTCHAR 04D1
ENCODING 1233
SWIDTH 480 0
DWIDTH 16 0
BBX 16 22 2 0
BITMAP
0183
01C7
00FE
007C
0000
0000
00FC
03FE
0FFE
1E0C
3C0C
381C
701C
701C
6018
E038
E038
E038
6030
70F0
7FF8
3FB8
ENDCHAR
STARTCHAR 04D2
ENCODING 1234
SWIDTH 480 0
DWIDTH 16 0
BBX 18 26 0 0
BITMAP
0071C0
0073C0
007180
000000
000000
001C00
003C00
003C00
006E00
00EE00
00CE00
01CE00
018E00
038E00
030600
070600
0E0600
0C0600
1FFE00
1FFE00
3FFE00
300600
700700
700700
E00700
E00700
ENDCHAR
STARTCHAR 04D3
ENCODING 1235
SWIDTH 480 0
DWIDTH 16 0
BBX 16 22 2 0
BITMAP
00C6
01C7
01C7
0082
0000
0000
00FC
03FE
0FFE
1E0C
3C0C
381C
701C
701C
6018
E038
E038
E038
6030
70F0
7FF8
3FB8
ENDCHAR
STARTCHAR 04D4
ENCODING 1236
SWIDTH 480 0
DWIDTH 16 0
BBX 20 21 0 0
BITMAP
001FF0
001FF0
003FF0
003E00
006E00
00EE00
00CC00
01DC00
019C00
039F80
031F80
073800
063800
0FF800
0FF000
1FF000
387000
387000
706000
707F00
E0FF00
ENDCHAR
STARTCHAR 04D5
ENCODING 1237
SWIDTH 480 0
DWIDTH 16 0
BBX 16 16 2 0
BITMAP
1E0E
3F3F
3FFF
03E7
01C3
01C7
0186
1FBE
3FFC
73F0
E380
C380
C780
CFC4
FDF8
F8F8
ENDCHAR
STARTCHAR 04D6
ENCODING 1238
SWIDTH 480 0
DWIDTH 16 0
BBX 17 27 2 0
BITMAP
004100
00C300
00FF00
007E00
000000
000000
07FF80
07FF80
07FF00
060000
0E0000
0E0000
0E0000
0C0000
1C0000
1FFC00
1FF800
180000
380000
380000
380000
300000
700000
700000
700000
7FF800
FFF800
ENDCHAR
STARTCHAR 04D7
ENCODING 1239
SWIDTH 480 0
DWIDTH 16 0
BBX 16 22 2 0
BITMAP
0187
018E
01FC
00F8
0000
0000
01F0
07FC
0FBC
1C0E
380E
700E
701C
70F8
7FF0
FF80
E000
E000
7000
7810
3FF0
1FF0
ENDCHAR
STARTCHAR 04D8
ENCODING 1240
SWIDTH 480 0
DWIDTH 16 0
BBX 16 21 2 0
BITMAP
03F0
0FFC
0E3E
000E
0006
0007
0007
0007
0007
0007
7FFF
7FFE
600E
600E
E00E
E01C
601C
7038
7070
3FE0
1FC0
ENDCHAR
STARTCHAR 04D9
ENCODING 1241
SWIDTH 480 0
DWIDTH 16 0
BBX 14 16 3 0
BITMAP
07C0
3FF0
3FF8
201C
001C
000C
000C
0FFC
3FFC
781C
E018
E038
E070
E0F0
FFE0
3F80
ENDCHAR
STARTCHAR 04DA
ENCODING 1242
SWIDTH 480 0
DWIDTH 16 0
BBX 16 26 2 0
BITMAP
01C7
01CF
0186
0000
0000
03F0
0FFC
0E3E
000E
0006
0007
0007
0007
0007
0007
7FFF
7FFE
600E
600E
E00E
E01C
601C
7038
7070
3FE0
1FC0
ENDCHAR
STARTCHAR 04DB
ENCODING 1243
SWIDTH 480 0
DWIDTH 16 0
BBX 14 22 3 0
BITMAP
0308
071C
071C
0208
0000
0000
07C0
3FF0
3FF8
201C
001C
000C
000C
0FFC
3FFC
781C
E018
E038
E070
E0F0
FFE0
3F80
ENDCHAR
STARTCHAR 04DC
ENCODING 1244
SWIDTH 480 0
DWIDTH 16 0
BBX 21 26 0 0
BITMAP
0079C0
0079C0
0031C0
000000
000000
070C38
071C70
031C60
0318E0
0319C0
03B980
01BB00
01B700
01BE00
01FC00
01FC00
03EC00
076C00
0EEE00
0CE600
1CC600
38C600
31C700
71C700
E18700
E18700
ENDCHAR
STARTCHAR 04DD
ENCODING 1245
SWIDTH 480 0
DWIDTH 16 0
BBX 19 22 0 0
BITMAP
004300
00E780
00E780
00C300
000000
000000
180060
1C31E0
0E33C0
063300
067600
066600
066600
07FC00
07FC00
04CC00
0CCC00
0CCC00
1DCC00
198C00
F98F00
F18700
ENDCHAR
STARTCHAR 04DE
ENCODING 1246
SWIDTH 480 0
DWIDTH 16 0
BBX 17 26 1 0
BITMAP
00E700
01E700
00C700
000000
000000
01FC00
07FE00
078F00
000700
000380
000300
000700
000E00
003E00
07F800
07F800
007C00
001E00
000E00
000E00
000E00
000E00
001C00
607C00
FFF800
7FE000
ENDCHAR
STARTCHAR 04DF
ENCODING 1247
SWIDTH 480 0
DWIDTH 16 0
BBX 15 22 2 0
BITMAP
0184
038E
038E
0104
0000
0000
03F0
0FFC
0FFC
000E
000C
001C
003C
07F8
0FF0
0038
0018
0018
0038
4078
7FF0
FFC0
ENDCHAR
STARTCHAR 04E0
ENCODING 1248
SWIDTH 480 0
DWIDTH 16 0
BBX 17 21 2 0
BITMAP
07FF80
0FFF80
0FFF00
000E00
001C00
003800
007000
00E000
01C000
03C000
03F800
003800
001C00
001C00
001C00
001C00
001C00
003800
C07800
FFF000
FFC000
ENDCHAR
STARTCHAR 04E1
ENCODING 1249
SWIDTH 480 0
DWIDTH 16 0
BBX 16 21 1 -6
BITMAP
07FF
0FFE
000C
0018
0038
0060
00C0
0380
0780
07F0
00F0
0038
0038
0018
0038
0038
0078
40F0
FFE0
FFC0
0800
ENDCHAR
STARTCHAR 04E2
ENCODING 1250
SWIDTH 480 0
DWIDTH 16 0
BBX 18 26 1 0
BITMAP
007F80
00FF80
000000
000000
000000
0701C0
0701C0
0603C0
0607C0
0E0F80
0E1D80
0C1B80
0C3380
1C7300
1C6300
18C700
19C700
3B8600
3B0600
360E00
3E0E00
7C0C00
780C00
781C00
701C00
E01800
ENDCHAR
STARTCHAR 04E3
ENCODING 1251
SWIDTH 480 0
DWIDTH 16 0
BBX 14 21 3 0
BITMAP
07F8
07F8
0000
0000
0000
0000
381C
301C
7018
7038
7038
6038
E038
E070
E070
E070
E070
E0E0
E1E0
FFF0
7F70
ENDCHAR
STARTCHAR 04E4
ENCODING 1252
SWIDTH 480 0
DWIDTH 16 0
BBX 18 26 1 0
BITMAP
00E380
00E780
00E300
000000
000000
0701C0
0701C0
0603C0
0607C0
0E0F80
0E1D80
0C1B80
0C3380
1C7300
1C6300
18C700
19C700
3B8600
3B0600
360E00
3E0E00
7C0C00
780C00
781C00
701C00
E01800
ENDCHAR
STARTCHAR 04E5
ENCODING 1253
SWIDTH 480 0
DWIDTH 16 0
BBX 14 22 3 0
BITMAP
0618
073C
0F38
0210
0000
0000
0000
381C
301C
7018
7038
7038
6038
E038
E070
E070
E070
E070
E0E0
E1E0
FFF0
7F70
ENDCHAR
STARTCHAR 04E6
ENCODING 1254
SWIDTH 480 0
DWIDTH 16 0
BBX 15 26 3 0
BITMAP
038E
038E
038C
0000
0000
01F0
07FC
0F3C
1C0E
380E
380E
700E
700E
600E
E00E
E00E
E00C
E01C
C01C
C018
C038
E070
E070
F1E0
7FC0
3F80
ENDCHAR
STARTCHAR 04E7
ENCODING 1255
SWIDTH 480 0
DWIDTH 16 0
BBX 14 22 3 0
BITMAP
030C
079C
079C
0308
0000
0000
03E0
0FF0
1FF8
3C3C
701C
701C
E01C
E01C
E01C
E038
C038
C070
E070
F1E0
7FC0
3F80
ENDCHAR
STARTCHAR 04E8
ENCODING 1256
SWIDTH 480 0
DWIDTH 16 0
BBX 15 21 3 0
BITMAP
01F0
07F8
0F3C
1C1E
380E
380E
700E
700E
600E
FFFE
FFFC
FFFC
C01C
C01C
C038
C038
C070
E070
F1E0
7FC0
3F80
ENDCHAR
STARTCHAR 04E9
ENCODING 1257
SWIDTH 480 0
DWIDTH 16 0
BBX 14 16 3 0
BITMAP
03E0
0FF0
1FF8
3C3C
781C
701C
E01C
FFFC
FFFC
E038
C038
C070
E070
F1E0
7FC0
3F80
ENDCHAR
STARTCHAR 04EA
ENCODING 1258
SWIDTH 480 0
DWIDTH 16 0
BBX 15 26 3 0
BITMAP
038E
03CE
038E
0000
0000
01F0
07F8
0F3C
1C1E
380E
380E
700E
700E
600E
FFFE
FFFC
FFFC
C01C
C01C
C038
C038
C070
E070
F1E0
7FC0
3F80
ENDCHAR
STARTCHAR 04EB
ENCODING 1259
SWIDTH 480 0
DWIDTH 16 0
BBX 14 22 3 0
BITMAP
030C
079C
079C
0308
0000
0000
03E0
0FF0
1FF8
3C3C
781C
701C
E01C
FFFC
FFFC
E038
C038
C070
E070
F1E0
7FC0
3F80
ENDCHAR
STARTCHAR 04EC
ENCODING 1260
SWIDTH 480 0
DWIDTH 16 0
BBX 16 26 2 0
BITMAP
01C7
01CF
0186
0000
0000
03F0
0FFC
0E3C
000E
0006
0007
0007
0007
0007
07FF
07FF
07FE
000E
000E
000C
001C
0038
0078
C0F0
FFE0
7F80
ENDCHAR
STARTCHAR 04ED
ENCODING 1261
SWIDTH 480 0
DWIDTH 16 0
BBX 15 22 2 0
BITMAP
010C
039E
039E
010C
0000
0000
07C0
1FF0
0FF8
001C
001C
000C
000E
07FC
0FFC
001C
001C
0038
0078
40F0
7FE0
FF80
ENDCHAR
STARTCHAR 04EE
ENCODING 1262
SWIDTH 480 0
DWIDTH 16 0
BBX 20 26 1 0
BITMAP
00FF80
00FF80
000000
000000
000000
0E0070
0E0060
0600E0
0601C0
0701C0
070380
070380
030700
038600
038E00
019C00
019C00
01F800
01F000
00F000
00E000
01C000
01C000
078000
7F0000
FC0000
ENDCHAR
STARTCHAR 04EF
ENCODING 1263
SWIDTH 480 0
DWIDTH 16 0
BBX 18 27 0 -6
BITMAP
00FF00
00FF00
000000
000000
000000
000000
0601C0
060380
070380
070380
070700
070700
070E00
030E00
038C00
039C00
039800
03B800
01F000
01F000
01E000
01C000
038000
078000
FF0000
FC0000
600000
ENDCHAR
STARTCHAR 04F0
ENCODING 1264
SWIDTH 480 0
DWIDTH 16 0
BBX 20 26 1 0
BITMAP
00F380
00F380
006380
000000
000000
0E0070
0E0060
0600E0
0601C0
0701C0
070380
070380
030700
038600
038E00
019C00
019C00
01F800
01F000
00F000
00E000
01C000
01C000
078000
7F0000
FC0000
ENDCHAR
STARTCHAR 04F1
ENCODING 1265
SWIDTH 480 0
DWIDTH 16 0
BBX 18 28 0 -6
BITMAP
00C300
01E700
01C700
008200
000000
000000
000000
0601C0
060380
070380
070380
070700
070700
070E00
030E00
038C00
039C00
039800
03B800
01F000
01F000
01E000
01C000
038000
078000
FF0000
FC0000
600000
ENDCHAR
STARTCHAR 04F2
ENCODING 1266
SWIDTH 480 0
DWIDTH 16 0
BBX 20 27 1 1
BITMAP
000C60
001CE0
0039C0
007380
004200
000000
0E0070
0E0060
0600E0
0601C0
0701C0
070380
070380
030700
038600
038E00
019C00
019C00
01F800
01F000
00F000
00E000
01C000
01C000
078000
7F0000
FC0000
ENDCHAR
STARTCHAR 04F3
ENCODING 1267
SWIDTH 480 0
DWIDTH 16 0
BBX 18 29 0 -6
BITMAP
000840
0018C0
0039C0
007380
00E700
000000
000000
000000
0601C0
060380
070380
070380
070700
070700
070E00
030E00
038C00
039C00
039800
03B800
01F000
01F000
01E000
01C000
038000
078000
FF0000
FC0000
600000
ENDCHAR
STARTCHAR 04F4
ENCODING 1268
SWIDTH 480 0
DWIDTH 16 0
BBX 15 26 4 0
BITMAP
0738
0F38
0638
0000
0000
380E
380E
300E
700C
701C
701C
601C
E01C
E018
E038
F038
7FF8
7FF0
0F70
0070
0070
0060
00E0
00E0
00E0
00C0
ENDCHAR
STARTCHAR 04F5
ENCODING 1269
SWIDTH 480 0
DWIDTH 16 0
BBX 13 22 4 0
BITMAP
0430
0E78
0E78
0C30
0000
0000
0000
6038
E038
E038
E030
C070
C070
E070
FFE0
7FE0
18E0
00E0
00C0
01C0
01C0
01C0
ENDCHAR
STARTCHAR 04F6
ENCODING 1270
SWIDTH 480 0
DWIDTH 16 0
BBX 18 27 1 -6
BITMAP
00FFC0
00FFC0
01FFC0
01C000
01C000
018000
038000
038000
038000
030000
070000
070000
070000
060000
0E0000
0E0000
0E0000
0C0000
1C0000
FFC000
FFC000
01C000
01C000
018000
018000
038000
038000
ENDCHAR
STARTCHAR 04F7
ENCODING 1271
SWIDTH 480 0
DWIDTH 16 0
BBX 13 20 3 -4
BITMAP
0FC0
1FF0
1EF8
0038
0038
0038
00F0
07E0
3F80
7C00
F000
E000
C000
E000
FFE0
7FE0
00E0
00C0
01C0
01C0
ENDCHAR
STARTCHAR 04F8
ENCODING 1272
SWIDTH 480 0
DWIDTH 16 0
BBX 19 26 1 0
BITMAP
00E700
01E700
00C700
000000
000000
0E00E0
0E00C0
0E00C0
0C01C0
1C01C0
1C01C0
1C0180
180380
3F8380
3FC380
39E300
30E700
30E700
70E700
70E600
60EE00
60CE00
E1CE00
E38C00
FF1C00
FE1C00
ENDCHAR
STARTCHAR 04F9
ENCODING 1273
SWIDTH 480 0
DWIDTH 16 0
BBX 17 22 1 0
BITMAP
008600
01CF00
01CF00
008600
000000
000000
000000
1C0380
1C0380
180380
180300
380700
3F0700
3FC700
39C600
70E600
70EE00
70EE00
60CC00
E1CC00
FF9C00
FF1C00
ENDCHAR
STARTCHAR 1E80
ENCODING 7808
SWIDTH 480 0
DWIDTH 16 0
BBX 18 27 2 1
BITMAP
006000
00F000
007000
003800
001800
000000
1C01C0
1C01C0
1C0180
180180
180380
380380
380300
380700
31C700
31C600
73C600
73CE00
66CC00
66CC00
6CCC00
7C5800
787800
F07800
F07000
E07000
E07000
ENDCHAR
STARTCHAR 1E81
ENCODING 7809
SWIDTH 480 0
DWIDTH 16 0
BBX 16 23 3 0
BITMAP
0100
0380
01C0
01E0
00E0
0060
0000
0000
6007
6007
E006
E18E
E38E
E38C
E79C
CF98
CD98
D9B8
D9B0
F1F0
F1E0
E0E0
C0C0
ENDCHAR
STARTCHAR 1E82
ENCODING 7810
SWIDTH 480 0
DWIDTH 16 0
BBX 18 27 2 1
BITMAP
000600
000F00
001C00
003800
003000
000000
1C01C0
1C01C0
1C0180
180180
180380
380380
380300
380700
31C700
31C600
73C600
73CE00
66CC00
66CC00
6CCC00
7C5800
787800
F07800
F07000
E07000
E07000
ENDCHAR
STARTCHAR 1E83
ENCODING 7811
SWIDTH 480 0
DWIDTH 16 0
BBX 16 23 3 0
BITMAP
0010
0038
0078
00E0
01C0
0080
0000
0000
6007
6007
E006
E18E
E38E
E38C
E79C
CF98
CD98
D9B8
D9B0
F1F0
F1E0
E0E0
C0C0
ENDCHAR
STARTCHAR 1E84
ENCODING 7812
SWIDTH 480 0
DWIDTH 16 0
BBX 18 26 2 0
BITMAP
01E700
01E700
00C700
000000
000000
1C01C0
1C01C0
1C0180
180180
180380
380380
380300
380700
31C700
31C600
73C600
73CE00
66CC00
66CC00
6CCC00
7C5800
787800
F07800
F07000
E07000
E07000
ENDCHAR
STARTCHAR 1E85
ENCODING 7813
SWIDTH 480 0
DWIDTH 16 0
BBX 16 22 3 0
BITMAP
0308
071C
071C
0208
0000
0000
0000
6007
6007
E006
E18E
E38E
E38C
E79C
CF98
CD98
D9B8
D9B0
F1F0
F1E0
E0E0
C0C0
ENDCHAR
STARTCHAR 1EF2
ENCODING 7922
SWIDTH 480 0
DWIDTH 16 0
BBX 16 28 5 0
BITMAP
0200
0600
0700
0380
01C0
00C0
0000
E007
E00E
E01C
E01C
6038
7070
7070
70E0
31C0
3B80
3B00
1F00
1E00
1C00
1C00
1C00
1800
3800
3800
3800
3000
ENDCHAR
STARTCHAR 1EF3
ENCODING 7923
SWIDTH 480 0
DWIDTH 16 0
BBX 18 29 0 -6
BITMAP
004000
00E000
007000
003800
001C00
000800
000000
000000
0601C0
060380
070380
070380
070700
070700
070E00
030E00
038C00
039C00
039800
03B800
01F000
01F000
01E000
01C000
038000
078000
FF0000
FC0000
600000
ENDCHAR
STARTCHAR 1F00
ENCODING 7936
SWIDTH 480 0
DWIDTH 16 0
BBX 14 23 3 0
BITMAP
0070
0070
0070
0060
00C0
0080
0000
00F8
07FC
1FFC
3C1C
3838
7038
E038
E030
E070
E070
C070
C070
E070
F0F0
7FF8
3F38
ENDCHAR
STARTCHAR 1F01
ENCODING 7937
SWIDTH 480 0
DWIDTH 16 0
BBX 14 23 3 0
BITMAP
00E0
00E0
00E0
00C0
0060
0020
0000
00F8
07FC
1FFC
3C1C
3838
7038
E038
E030
E070
E070
C070
C070
E070
F0F0
7FF8
3F38
ENDCHAR
STARTCHAR 1F02
ENCODING 7938
SWIDTH 480 0
DWIDTH 16 0
BBX 14 23 3 0
BITMAP
0198
03D8
019C
038C
070C
0404
0000
00F8
07FC
1FFC
3C1C
3838
7038
E038
E030
E070
E070
C070
C070
E070
F0F0
7FF8
3F38
ENDCHAR
STARTCHAR 1F03
ENCODING 7939
SWIDTH 480 0
DWIDTH 16 0
BBX 14 23 3 0
BITMAP
0730
0770
0630
0638
0318
0110
0000
00F8
07FC
1FFC
3C1C
3838
7038
E038
E030
E070
E070
C070
C070
E070
F0F0
7FF8
3F38
ENDCHAR
STARTCHAR 1F04
ENCODING 7940
SWIDTH 480 0
DWIDTH 16 0
BBX 16 23 3 0
BITMAP
01C6
01C7
00CE
019C
0338
0210
0000
00F8
07FC
1FFC
3C1C
3838
7038
E038
E030
E070
E070
C070
C070
E070
F0F0
7FF8
3F38
ENDCHAR
STARTCHAR 1F05
ENCODING 7941
SWIDTH 480 0
DWIDTH 16 0
BBX 15 23 3 0
BITMAP
0304
078E
071C
0338
0370
0120
0000
00F8
07FC
1FFC
3C1C
3838
7038
E038
E030
E070
E070
C070
C070
E070
F0F0
7FF8
3F38
ENDCHAR
STARTCHAR 1F06
ENCODING 7942
SWIDTH 480 0
DWIDTH 16 0
BBX 14 26 3 0
BITMAP
0078
01FC
0184
0104
0070
0070
0060
00C0
0080
0000
00F8
07FC
1FFC
3C1C
3838
7038
E038
E030
E070
E070
C070
C070
E070
F0F0
7FF8
3F38
ENDCHAR
STARTCHAR 1F07
ENCODING 7943
SWIDTH 480 0
DWIDTH 16 0
BBX 14 26 3 0
BITMAP
0078
01FC
0184
0104
0070
00E0
0060
0060
0020
0000
00F8
07FC
1FFC
3C1C
3838
7038
E038
E030
E070
E070
C070
C070
E070
F0F0
7FF8
3F38
ENDCHAR
STARTCHAR 1F08
ENCODING 7944
SWIDTH 480 0
DWIDTH 16 0
BBX 16 21 0 0
BITMAP
071C
073C
073E
067E
0C6E
08CE
01CE
0186
0386
0306
0706
0606
0E06
0FFE
1FFF
1FFF
3807
7007
7007
E007
E007
ENDCHAR
STARTCHAR 1F09
ENCODING 7945
SWIDTH 480 0
DWIDTH 16 0
BBX 16 21 0 0
BITMAP
0E1C
1E3C
1C3E
0C7E
0C6E
04CE
01CE
0186
0386
0306
0706
0606
0E06
0FFE
1FFF
1FFF
3807
7007
7007
E007
E007
ENDCHAR
STARTCHAR 1F0A
ENCODING 7946
SWIDTH 480 0
DWIDTH 16 0
BBX 18 21 -2 0
BITMAP
720700
770F00
730F80
631F80
C19B80
813380
007380
006180
00E180
00C180
01C180
018180
038180
03FF80
07FFC0
07FFC0
0E01C0
1C01C0
1C01C0
3801C0
3801C0
ENDCHAR
STARTCHAR 1F0B
ENCODING 7947
SWIDTH 480 0
DWIDTH 16 0
BBX 17 21 -1 0
BITMAP
E40E00
EE1E00
C61F00
C63F00
433700
426700
00E700
00C300
01C300
018300
038300
030300
070300
07FF00
0FFF80
0FFF80
1C0380
380380
380380
700380
700380
ENDCHAR
STARTCHAR 1F0C
ENCODING 7948
SWIDTH 480 0
DWIDTH 16 0
BBX 17 21 -1 0
BITMAP
718E00
71DE00
739F00
673F00
CE3700
846700
00E700
00C300
01C300
018300
038300
030300
070300
07FF00
0FFF80
0FFF80
1C0380
380380
380380
700380
700380
ENDCHAR
STARTCHAR 1F0D
ENCODING 7949
SWIDTH 480 0
DWIDTH 16 0
BBX 17 21 -1 0
BITMAP
618E00
E1DE00
E39F00
C73F00
6E3700
246700
00E700
00C300
01C300
018300
038300
030300
070300
07FF00
0FFF80
0FFF80
1C0380
380380
380380
700380
700380
ENDCHAR
STARTCHAR 1F0E
ENCODING 7950
SWIDTH 480 0
DWIDTH 16 0
BBX 16 23 0 0
BITMAP
0F00
3F80
319C
60BC
0C3E
0E7E
0C6E
18CE
31CE
0186
0386
0306
0706
0606
0E06
0FFE
1FFF
1FFF
3807
7007
7007
E007
E007
ENDCHAR
STARTCHAR 1F0F
ENCODING 7951
SWIDTH 480 0
DWIDTH 16 0
BBX 16 23 0 0
BITMAP
1F00
3F80
719C
61BC
1C3E
1C7E
186E
0CCE
0DCE
0186
0386
0306
0706
0606
0E06
0FFE
1FFF
1FFF
3807
7007
7007
E007
E007
ENDCHAR
STARTCHAR 1F10
ENCODING 7952
SWIDTH 480 0
DWIDTH 16 0
BBX 14 23 3 0
BITMAP
0070
0078
0070
0070
00E0
0080
0000
03F8
0FFC
1F38
3800
3800
3800
3800
1FC0
3FC0
7000
E000
E000
E000
F030
7FF0
3FE0
ENDCHAR
STARTCHAR 1F11
ENCODING 7953
SWIDTH 480 0
DWIDTH 16 0
BBX 14 23 3 0
BITMAP
00E0
00F0
00E0
0040
0060
0020
0000
03F8
0FFC
1F38
3800
3800
3800
3800
1FC0
3FC0
7000
E000
E000
E000
F030
7FF0
3FE0
ENDCHAR
STARTCHAR 1F12
ENCODING 7954
SWIDTH 480 0
DWIDTH 16 0
BBX 15 23 3 0
BITMAP
01D8
01D8
01DC
018C
030E
0204
0000
03F8
0FFC
1F38
3800
3800
3800
3800
1FC0
3FC0
7000
E000
E000
E000
F030
7FF0
3FE0
ENDCHAR
STARTCHAR 1F13
ENCODING 7955
SWIDTH 480 0
DWIDTH 16 0
BBX 14 23 3 0
BITMAP
0730
0730
0738
0618
0318
0108
0000
03F8
0FFC
1F38
3800
3800
3800
3800
1FC0
3FC0
7000
E000
E000
E000
F030
7FF0
3FE0
ENDCHAR
STARTCHAR 1F14
ENCODING 7956
SWIDTH 480 0
DWIDTH 16 0
BBX 16 23 3 0
BITMAP
00C2
01E7
00CE
00DC
0398
0010
0000
03F8
0FFC
1F38
3800
3800
3800
3800
1FC0
3FC0
7000
E000
E000
E000
F030
7FF0
3FE0
ENDCHAR
STARTCHAR 1F15
ENCODING 7957
SWIDTH 480 0
DWIDTH 16 0
BBX 15 23 3 0
BITMAP
0384
038E
031C
0338
0130
0120
0000
03F8
0FFC
1F38
3800
3800
3800
3800
1FC0
3FC0
7000
E000
E000
E000
F030
7FF0
3FE0
ENDCHAR
STARTCHAR 1F18
ENCODING 7960
SWIDTH 480 0
DWIDTH 16 0
BBX 17 21 1 0
BITMAP
73FF80
73FF80
77FF80
670000
C70000
860000
0E0000
0E0000
0E0000
0FFC00
1FFC00
1C0000
1C0000
180000
380000
380000
380000
300000
700000
7FF800
7FF800
ENDCHAR
STARTCHAR 1F19
ENCODING 7961
SWIDTH 480 0
DWIDTH 16 0
BBX 17 21 1 0
BITMAP
E3FF80
E3FF80
E7FF80
C70000
670000
260000
0E0000
0E0000
0E0000
0FFC00
1FFC00
1C0000
1C0000
180000
380000
380000
380000
300000
700000
7FF800
7FF800
ENDCHAR
STARTCHAR 1F1A
ENCODING 7962
SWIDTH 480 0
DWIDTH 16 0
BBX 23 21 -5 0
BITMAP
330FFE
7B0FFE
339FFE
319C00
E19C00
809800
003800
003800
003800
003FF0
007FF0
007000
007000
006000
00E000
00E000
00E000
00C000
01C000
01FFE0
01FFE0
ENDCHAR
STARTCHAR 1F1B
ENCODING 7963
SWIDTH 480 0
DWIDTH 16 0
BBX 22 21 -4 0
BITMAP
661FFC
E61FFC
E73FFC
C33800
633800
213000
007000
007000
007000
007FE0
00FFE0
00E000
00E000
00C000
01C000
01C000
01C000
018000
038000
03FFC0
03FFC0
ENDCHAR
STARTCHAR 1F1C
ENCODING 7964
SWIDTH 480 0
DWIDTH 16 0
BBX 22 21 -4 0
BITMAP
711FFC
739FFC
733FFC
673800
CE3800
843000
007000
007000
007000
007FE0
00FFE0
00E000
00E000
00C000
01C000
01C000
01C000
018000
038000
03FFC0
03FFC0
ENDCHAR
STARTCHAR 1F1D
ENCODING 7965
SWIDTH 480 0
DWIDTH 16 0
BBX 22 21 -4 0
BITMAP
E11FFC
E39FFC
E73FFC
C73800
6E3800
243000
007000
007000
007000
007FE0
00FFE0
00E000
00E000
00C000
01C000
01C000
01C000
018000
038000
03FFC0
03FFC0
ENDCHAR
STARTCHAR 1F20
ENCODING 7968
SWIDTH 480 0
DWIDTH 16 0
BBX 14 29 2 -6
BITMAP
0038
0038
0038
0030
0060
0040
0000
03F0
0FF8
1FFC
1C1C
1C0C
180C
380C
381C
381C
301C
7018
7038
7038
6038
E030
E070
0070
0070
0060
00E0
00E0
00E0
ENDCHAR
STARTCHAR 1F21
ENCODING 7969
SWIDTH 480 0
DWIDTH 16 0
BBX 14 29 2 -6
BITMAP
0070
0070
0070
0060
0030
0010
0000
03F0
0FF8
1FFC
1C1C
1C0C
180C
380C
381C
381C
301C
7018
7038
7038
6038
E030
E070
0070
0070
0060
00E0
00E0
00E0
ENDCHAR
STARTCHAR 1F22
ENCODING 7970
SWIDTH 480 0
DWIDTH 16 0
BBX 15 29 2 -6
BITMAP
01CC
01CC
01CE
01C6
0306
0202
0000
03F0
0FF8
1FFC
1C1C
1C0C
180C
380C
381C
381C
301C
7018
7038
7038
6038
E030
E070
0070
0070
0060
00E0
00E0
00E0
ENDCHAR
STARTCHAR 1F23
ENCODING 7971
SWIDTH 480 0
DWIDTH 16 0
BBX 14 29 2 -6
BITMAP
0398
03B8
0318
031C
018C
0008
0000
03F0
0FF8
1FFC
1C1C
1C0C
180C
380C
381C
381C
301C
7018
7038
7038
6038
E030
E070
0070
0070
0060
00E0
00E0
00E0
ENDCHAR
STARTCHAR 1F24
ENCODING 7972
SWIDTH 480 0
DWIDTH 16 0
BBX 17 29 2 -6
BITMAP
00E300
00E380
00E700
00CE00
019C00
010800
000000
03F000
0FF800
1FFC00
1C1C00
1C0C00
180C00
380C00
381C00
381C00
301C00
701800
703800
703800
603800
E03000
E07000
007000
007000
006000
00E000
00E000
00E000
ENDCHAR
STARTCHAR 1F25
ENCODING 7973
SWIDTH 480 0
DWIDTH 16 0
BBX 16 29 2 -6
BITMAP
0186
03C7
038E
011C
01B8
0090
0000
03F0
0FF8
1FFC
1C1C
1C0C
180C
380C
381C
381C
301C
7018
7038
7038
6038
E030
E070
0070
0070
0060
00E0
00E0
00E0
ENDCHAR
STARTCHAR 1F26
ENCODING 7974
SWIDTH 480 0
DWIDTH 16 0
BBX 15 32 2 -6
BITMAP
007C
00FE
00C6
0082
0038
0038
0030
0060
0040
0000
03F0
0FF8
1FFC
1C1C
1C0C
180C
380C
381C
381C
301C
7018
7038
7038
6038
E030
E070
0070
0070
0060
00E0
00E0
00E0
ENDCHAR
STARTCHAR 1F27
ENCODING 7975
SWIDTH 480 0
DWIDTH 16 0
BBX 15 32 2 -6
BITMAP
007C
00FE
00C6
0082
0030
0070
0020
0030
0010
0000
03F0
0FF8
1FFC
1C1C
1C0C
180C
380C
381C
381C
301C
7018
7038
7038
6038
E030
E070
0070
0070
0060
00E0
00E0
00E0
ENDCHAR
STARTCHAR 1F28
ENCODING 7976
SWIDTH 480 0
DWIDTH 16 0
BBX 19 21 0 0
BITMAP
7380E0
7380E0
7300E0
6700C0
C701C0
8701C0
0601C0
0E01C0
0E0180
0FFF80
0FFF80
1C0380
1C0300
1C0700
1C0700
180700
380600
380E00
380E00
300E00
700C00
ENDCHAR
STARTCHAR 1F29
ENCODING 7977
SWIDTH 480 0
DWIDTH 16 0
BBX 19 21 0 0
BITMAP
7380E0
F380E0
E300E0
6700C0
6701C0
2701C0
0601C0
0E01C0
0E0180
0FFF80
0FFF80
1C0380
1C0300
1C0700
1C0700
180700
380600
380E00
380E00
300E00
700C00
ENDCHAR
STARTCHAR 1F2A
ENCODING 7978
SWIDTH 480 0
DWIDTH 16 0
BBX 24 21 -5 0
BITMAP
721C07
771C07
771807
633806
C3B80E
81380E
00300E
00700E
00700C
007FFC
007FFC
00E01C
00E018
00E038
00E038
00C038
01C030
01C070
01C070
018070
038060
ENDCHAR
STARTCHAR 1F2B
ENCODING 7979
SWIDTH 480 0
DWIDTH 16 0
BBX 23 21 -4 0
BITMAP
E4380E
EE380E
CE300E
C6700C
C7701C
42701C
00601C
00E01C
00E018
00FFF8
00FFF8
01C038
01C030
01C070
01C070
018070
038060
0380E0
0380E0
0300E0
0700C0
ENDCHAR
STARTCHAR 1F2C
ENCODING 7980
SWIDTH 480 0
DWIDTH 16 0
BBX 24 21 -5 0
BITMAP
319C07
71DC07
739807
773806
EE380E
84380E
00300E
00700E
00700C
007FFC
007FFC
00E01C
00E018
00E038
00E038
00C038
01C030
01C070
01C070
018070
038060
ENDCHAR
STARTCHAR 1F2D
ENCODING 7981
SWIDTH 480 0
DWIDTH 16 0
BBX 24 21 -5 0
BITMAP
619C07
E1DC07
E39807
473806
6E380E
24380E
00300E
00700E
00700C
007FFC
007FFC
00E01C
00E018
00E038
00E038
00C038
01C030
01C070
01C070
018070
038060
ENDCHAR
STARTCHAR 1F2E
ENCODING 7982
SWIDTH 480 0
DWIDTH 16 0
BBX 22 23 -3 0
BITMAP
3E0000
7E0000
C3701C
C3701C
38601C
38E018
38E038
70E038
40C038
01C038
01C030
01FFF0
01FFF0
038070
038060
0380E0
0380E0
0300E0
0700C0
0701C0
0701C0
0601C0
0E0180
ENDCHAR
STARTCHAR 1F2F
ENCODING 7983
SWIDTH 480 0
DWIDTH 16 0
BBX 22 23 -3 0
BITMAP
3E0000
7E0000
C3701C
C3701C
38601C
38E018
30E038
30E038
18C038
01C038
01C030
01FFF0
01FFF0
038070
038060
0380E0
0380E0
0300E0
0700C0
0701C0
0701C0
0601C0
0E0180
ENDCHAR
STARTCHAR 1F30
ENCODING 7984
SWIDTH 480 0
DWIDTH 16 0
BBX 9 23 5 0
BITMAP
0700
0700
0700
0600
0C00
0800
0000
0000
FE00
FE00
0E00
0C00
1C00
1C00
1C00
1800
3800
3800
3800
3800
3C00
1F80
0F80
ENDCHAR
STARTCHAR 1F31
ENCODING 7985
SWIDTH 480 0
DWIDTH 16 0
BBX 9 23 5 0
BITMAP
0E00
0E00
0C00
0C00
0600
0000
0000
0000
FE00
FE00
0E00
0C00
1C00
1C00
1C00
1800
3800
3800
3800
3800
3C00
1F80
0F80
ENDCHAR
STARTCHAR 1F32
ENCODING 7986
SWIDTH 480 0
DWIDTH 16 0
BBX 10 23 5 0
BITMAP
3980
3B80
3980
31C0
60C0
4080
0000
0000
FE00
FE00
0E00
0C00
1C00
1C00
1C00
1800
3800
3800
3800
3800
3C00
1F80
0F80
ENDCHAR
STARTCHAR 1F33
ENCODING 7987
SWIDTH 480 0
DWIDTH 16 0
BBX 9 23 5 0
BITMAP
7600
7700
6300
6300
2180
2100
0000
0000
FE00
FE00
0E00
0C00
1C00
1C00
1C00
1800
3800
3800
3800
3800
3C00
1F80
0F80
ENDCHAR
STARTCHAR 1F34
ENCODING 7988
SWIDTH 480 0
DWIDTH 16 0
BBX 11 23 5 0
BITMAP
1C60
1CE0
1CE0
19C0
3380
2100
0000
0000
FE00
FE00
0E00
0C00
1C00
1C00
1C00
1800
3800
3800
3800
3800
3C00
1F80
0F80
ENDCHAR
STARTCHAR 1F35
ENCODING 7989
SWIDTH 480 0
DWIDTH 16 0
BBX 11 23 5 0
BITMAP
70C0
71E0
71C0
6380
3700
1200
0000
0000
FE00
FE00
0E00
0C00
1C00
1C00
1C00
1800
3800
3800
3800
3800
3C00
1F80
0F80
ENDCHAR
STARTCHAR 1F36
ENCODING 7990
SWIDTH 480 0
DWIDTH 16 0
BBX 10 26 5 0
BITMAP
0F80
1FC0
18C0
30C0
0600
0E00
0600
0C00
1000
0000
0000
FE00
FE00
0E00
0C00
1C00
1C00
1C00
1800
3800
3800
3800
3800
3C00
1F80
0F80
ENDCHAR
STARTCHAR 1F37
ENCODING 7991
SWIDTH 480 0
DWIDTH 16 0
BBX 10 26 5 0
BITMAP
0F80
1FC0
18C0
30C0
0600
0E00
0C00
0600
0200
0000
0000
FE00
FE00
0E00
0C00
1C00
1C00
1C00
1800
3800
3800
3800
3800
3C00
1F80
0F80
ENDCHAR
STARTCHAR 1F38
ENCODING 7992
SWIDTH 480 0
DWIDTH 16 0
BBX 17 21 1 0
BITMAP
33FF80
7BFF80
73FF80
703000
E07000
807000
007000
006000
00E000
00E000
00E000
00C000
01C000
01C000
01C000
018000
038000
038000
038000
3FF000
7FF000
ENDCHAR
STARTCHAR 1F39
ENCODING 7993
SWIDTH 480 0
DWIDTH 16 0
BBX 16 21 2 0
BITMAP
E7FF
E7FF
C7FF
C060
60E0
60E0
00E0
00C0
01C0
01C0
01C0
0180
0380
0380
0380
0300
0700
0700
0700
7FE0
FFE0
ENDCHAR
STARTCHAR 1F3A
ENCODING 7994
SWIDTH 480 0
DWIDTH 16 0
BBX 22 21 -4 0
BITMAP
721FFC
771FFC
731FFC
638180
C18380
810380
000380
000300
000700
000700
000700
000600
000E00
000E00
000E00
000C00
001C00
001C00
001C00
01FF80
03FF80
ENDCHAR
STARTCHAR 1F3B
ENCODING 7995
SWIDTH 480 0
DWIDTH 16 0
BBX 21 21 -3 0
BITMAP
E43FF8
EE3FF8
C63FF8
C70300
430700
620700
000700
000600
000E00
000E00
000E00
000C00
001C00
001C00
001C00
001800
003800
003800
003800
03FF00
07FF00
ENDCHAR
STARTCHAR 1F3C
ENCODING 7996
SWIDTH 480 0
DWIDTH 16 0
BBX 22 21 -4 0
BITMAP
309FFC
79DFFC
339FFC
370180
660380
840380
000380
000300
000700
000700
000700
000600
000E00
000E00
000E00
000C00
001C00
001C00
001C00
01FF80
03FF80
ENDCHAR
STARTCHAR 1F3D
ENCODING 7997
SWIDTH 480 0
DWIDTH 16 0
BBX 22 21 -4 0
BITMAP
609FFC
F1DFFC
E39FFC
670180
660380
240380
000380
000300
000700
000700
000700
000600
000E00
000E00
000E00
000C00
001C00
001C00
001C00
01FF80
03FF80
ENDCHAR
STARTCHAR 1F3E
ENCODING 7998
SWIDTH 480 0
DWIDTH 16 0
BBX 20 23 -2 0
BITMAP
3E0000
7F0000
E37FF0
C37FF0
187FF0
380600
180E00
300E00
600E00
000C00
001C00
001C00
001C00
001800
003800
003800
003800
003000
007000
007000
007000
07FE00
0FFE00
ENDCHAR
STARTCHAR 1F3F
ENCODING 7999
SWIDTH 480 0
DWIDTH 16 0
BBX 20 23 -2 0
BITMAP
3E0000
7F0000
E37FF0
C37FF0
387FF0
380600
300E00
180E00
080E00
000C00
001C00
001C00
001C00
001800
003800
003800
003800
003000
007000
007000
007000
07FE00
0FFE00
ENDCHAR
STARTCHAR 1F40
ENCODING 8000
SWIDTH 480 0
DWIDTH 16 0
BBX 14 23 3 0
BITMAP
0070
0070
0070
0060
00C0
0080
0000
03E0
0FF0
1FF8
3C3C
701C
701C
E01C
E01C
E01C
E038
C038
C070
E070
F1E0
7FC0
3F80
ENDCHAR
STARTCHAR 1F41
ENCODING 8001
SWIDTH 480 0
DWIDTH 16 0
BBX 14 23 3 0
BITMAP
00E0
00E0
00C0
00C0
0060
0020
0000
03E0
0FF0
1FF8
3C3C
701C
701C
E01C
E01C
E01C
E038
C038
C070
E070
F1E0
7FC0
3F80
ENDCHAR
STARTCHAR 1F42
ENCODING 8002
SWIDTH 480 0
DWIDTH 16 0
BBX 14 23 3 0
BITMAP
0398
03B8
039C
031C
060C
0404
0000
03E0
0FF0
1FF8
3C3C
701C
701C
E01C
E01C
E01C
E038
C038
C070
E070
F1E0
7FC0
3F80
ENDCHAR
STARTCHAR 1F43
ENCODING 8003
SWIDTH 480 0
DWIDTH 16 0
BBX 14 23 3 0
BITMAP
0720
0770
0630
0638
0318
0010
0000
03E0
0FF0
1FF8
3C3C
701C
701C
E01C
E01C
E01C
E038
C038
C070
E070
F1E0
7FC0
3F80
ENDCHAR
STARTCHAR 1F44
ENCODING 8004
SWIDTH 480 0
DWIDTH 16 0
BBX 16 23 3 0
BITMAP
01C6
01C7
01CE
019C
0338
0210
0000
03E0
0FF0
1FF8
3C3C
701C
701C
E01C
E01C
E01C
E038
C038
C070
E070
F1E0
7FC0
3F80
ENDCHAR
STARTCHAR 1F45
ENCODING 8005
SWIDTH 480 0
DWIDTH 16 0
BBX 15 23 3 0
BITMAP
030C
070E
071C
0238
0370
0120
0000
03E0
0FF0
1FF8
3C3C
701C
701C
E01C
E01C
E01C
E038
C038
C070
E070
F1E0
7FC0
3F80
ENDCHAR
STARTCHAR 1F48
ENCODING 8008
SWIDTH 480 0
DWIDTH 16 0
BBX 17 21 1 0
BITMAP
70FC00
71FE00
73CF00
670700
CE0380
8E0380
1C0380
1C0380
380380
380380
380300
300700
300700
700600
700E00
700E00
301C00
383C00
387800
1FF000
0FC000
ENDCHAR
STARTCHAR 1F49
ENCODING 8009
SWIDTH 480 0
DWIDTH 16 0
BBX 18 21 0 0
BITMAP
607E00
F0FF00
E1E780
438380
6701C0
2701C0
0E01C0
0E01C0
1C01C0
1C01C0
1C0180
180380
180380
380300
380700
380700
180E00
1C1E00
1C3C00
0FF800
07E000
ENDCHAR
STARTCHAR 1F4A
ENCODING 8010
SWIDTH 480 0
DWIDTH 16 0
BBX 23 21 -5 0
BITMAP
7203F0
7707F8
770F3C
631C1C
C3B80E
81380E
00700E
00700E
00E00E
00E00E
00E00C
00C01C
00C01C
01C018
01C038
01C038
00C070
00E0F0
00E1E0
007FC0
003F00
ENDCHAR
STARTCHAR 1F4B
ENCODING 8011
SWIDTH 480 0
DWIDTH 16 0
BBX 23 21 -5 0
BITMAP
7603F0
F707F8
670F3C
631C1C
63B80E
21380E
00700E
00700E
00E00E
00E00E
00E00C
00C01C
00C01C
01C018
01C038
01C038
00C070
00E0F0
00E1E0
007FC0
003F00
ENDCHAR
STARTCHAR 1F4C
ENCODING 8012
SWIDTH 480 0
DWIDTH 16 0
BBX 22 21 -4 0
BITMAP
3087E0
79CFF0
339E78
373838
EE701C
84701C
00E01C
00E01C
01C01C
01C01C
01C018
018038
018038
038030
038070
038070
0180E0
01C1E0
01C3C0
00FF80
007E00
ENDCHAR
STARTCHAR 1F4D
ENCODING 8013
SWIDTH 480 0
DWIDTH 16 0
BBX 22 21 -4 0
BITMAP
6087E0
F1CFF0
E39E78
473838
6E701C
24701C
00E01C
00E01C
01C01C
01C01C
01C018
018038
018038
038030
038070
038070
0180E0
01C1E0
01C3C0
00FF80
007E00
ENDCHAR
STARTCHAR 1F50
ENCODING 8016
SWIDTH 480 0
DWIDTH 16 0
BBX 14 23 3 0
BITMAP
0070
00F0
0070
0060
01C0
0100
0000
0000
381C
381C
701C
7018
7038
7038
6038
E030
E070
E070
E070
E0E0
E1E0
7FC0
3F80
ENDCHAR
STARTCHAR 1F51
ENCODING 8017
SWIDTH 480 0
DWIDTH 16 0
BBX 14 23 3 0
BITMAP
00E0
01E0
01C0
00C0
00C0
0040
0000
0000
381C
381C
701C
7018
7038
7038
6038
E030
E070
E070
E070
E0E0
E1E0
7FC0
3F80
ENDCHAR
STARTCHAR 1F52
ENCODING 8018
SWIDTH 480 0
DWIDTH 16 0
BBX 14 23 3 0
BITMAP
03B0
03B8
0398
0318
060C
0408
0000
0000
381C
381C
701C
7018
7038
7038
6038
E030
E070
E070
E070
E0E0
E1E0
7FC0
3F80
ENDCHAR
STARTCHAR 1F53
ENCODING 8019
SWIDTH 480 0
DWIDTH 16 0
BBX 14 23 3 0
BITMAP
0660
0F60
0E70
0430
0638
0210
0000
0000
381C
381C
701C
7018
7038
7038
6038
E030
E070
E070
E070
E0E0
E1E0
7FC0
3F80
ENDCHAR
STARTCHAR 1F54
ENCODING 8020
SWIDTH 480 0
DWIDTH 16 0
BBX 15 23 3 0
BITMAP
01C4
01CE
01DC
0198
0330
0210
0000
0000
381C
381C
701C
7018
7038
7038
6038
E030
E070
E070
E070
E0E0
E1E0
7FC0
3F80
ENDCHAR
STARTCHAR 1F55
ENCODING 8021
SWIDTH 480 0
DWIDTH 16 0
BBX 14 23 3 0
BITMAP
070C
071C
0638
0630
0370
0120
0000
0000
381C
381C
701C
7018
7038
7038
6038
E030
E070
E070
E070
E0E0
E1E0
7FC0
3F80
ENDCHAR
STARTCHAR 1F56
ENCODING 8022
SWIDTH 480 0
DWIDTH 16 0
BBX 14 26 3 0
BITMAP
00F8
01FC
030C
030C
00E0
00E0
00E0
01C0
0100
0000
0000
381C
381C
701C
7018
7038
7038
6038
E030
E070
E070
E070
E0E0
E1E0
7FC0
3F80
ENDCHAR
STARTCHAR 1F57
ENCODING 8023
SWIDTH 480 0
DWIDTH 16 0
BBX 14 26 3 0
BITMAP
00F8
01FC
030C
030C
00E0
00E0
00C0
0060
0020
0000
0000
381C
381C
701C
7018
7038
7038
6038
E030
E070
E070
E070
E0E0
E1E0
7FC0
3F80
ENDCHAR
STARTCHAR 1F59
ENCODING 8025
SWIDTH 480 0
DWIDTH 16 0
BBX 21 21 0 0
BITMAP
670038
F70070
E700E0
4700E0
6301C0
238380
038380
038700
018E00
01DC00
01D800
00F800
00F000
00E000
00E000
00E000
00C000
01C000
01C000
01C000
018000
ENDCHAR
STARTCHAR 1F5B
ENCODING 8027
SWIDTH 480 0
DWIDTH 16 0
BBX 25 21 -4 0
BITMAP
E6700380
EE700700
E6700E00
C7700E00
63301C00
23383800
00383800
00387000
0018E000
001DC000
001D8000
000F8000
000F0000
000E0000
000E0000
000E0000
000C0000
001C0000
001C0000
001C0000
00180000
ENDCHAR
STARTCHAR 1F5D
ENCODING 8029
SWIDTH 480 0
DWIDTH 16 0
BBX 26 21 -5 0
BITMAP
E13801C0
E3B80380
C7380700
CE380700
CC180E00
481C1C00
001C1C00
001C3800
000C7000
000EE000
000EC000
0007C000
00078000
00070000
00070000
00070000
00060000
000E0000
000E0000
000E0000
000C0000
ENDCHAR
STARTCHAR 1F5F
ENCODING 8031
SWIDTH 480 0
DWIDTH 16 0
BBX 25 23 -4 0
BITMAP
3C000000
7E000000
C2700380
C2700700
38700E00
38700E00
30301C00
30383800
18383800
00387000
0018E000
001DC000
001D8000
000F8000
000F0000
000E0000
000E0000
000E0000
000C0000
001C0000
001C0000
001C0000
00180000
ENDCHAR
STARTCHAR 1F60
ENCODING 8032
SWIDTH 480 0
DWIDTH 16 0
BBX 15 23 2 0
BITMAP
0038
0078
0030
0030
00E0
0080
0000
0800
1C1C
1C1C
380C
700C
600C
E00E
E38E
C38C
C30C
C30C
C71C
C71C
EFB8
FDF8
79F0
ENDCHAR
STARTCHAR 1F61
ENCODING 8033
SWIDTH 480 0
DWIDTH 16 0
BBX 15 23 2 0
BITMAP
0060
00F0
00E0
0040
0060
0020
0000
0800
1C1C
1C1C
380C
700C
600C
E00E
E38E
C38C
C30C
C30C
C71C
C71C
EFB8
FDF8
79F0
ENDCHAR
STARTCHAR 1F62
ENCODING 8034
SWIDTH 480 0
DWIDTH 16 0
BBX 15 23 2 0
BITMAP
01D8
01DC
01DC
018C
030E
0204
0000
0800
1C1C
1C1C
380C
700C
600C
E00E
E38E
C38C
C30C
C30C
C71C
C71C
EFB8
FDF8
79F0
ENDCHAR
STARTCHAR 1F63
ENCODING 8035
SWIDTH 480 0
DWIDTH 16 0
BBX 15 23 2 0
BITMAP
0330
0730
0738
0218
0318
0108
0000
0800
1C1C
1C1C
380C
700C
600C
E00E
E38E
C38C
C30C
C30C
C71C
C71C
EFB8
FDF8
79F0
ENDCHAR
STARTCHAR 1F64
ENCODING 8036
SWIDTH 480 0
DWIDTH 16 0
BBX 16 23 2 0
BITMAP
00E2
00E7
00CE
00DC
0198
0110
0000
0800
1C1C
1C1C
380C
700C
600C
E00E
E38E
C38C
C30C
C30C
C71C
C71C
EFB8
FDF8
79F0
ENDCHAR
STARTCHAR 1F65
ENCODING 8037
SWIDTH 480 0
DWIDTH 16 0
BBX 15 23 2 0
BITMAP
0384
038E
031C
0318
01B0
0010
0000
0800
1C1C
1C1C
380C
700C
600C
E00E
E38E
C38C
C30C
C30C
C71C
C71C
EFB8
FDF8
79F0
ENDCHAR
STARTCHAR 1F66
ENCODING 8038
SWIDTH 480 0
DWIDTH 16 0
BBX 15 26 2 0
BITMAP
007C
00FE
0186
0186
0070
0070
0070
00E0
0080
0000
0800
1C1C
1C1C
380C
700C
600C
E00E
E38E
C38C
C30C
C30C
C71C
C71C
EFB8
FDF8
79F0
ENDCHAR
STARTCHAR 1F67
ENCODING 8039
SWIDTH 480 0
DWIDTH 16 0
BBX 15 26 2 0
BITMAP
007C
00FC
0186
0186
0070
0070
0060
0030
0010
0000
0800
1C1C
1C1C
380C
700C
600C
E00E
E38E
C38C
C30C
C30C
C71C
C71C
EFB8
FDF8
79F0
ENDCHAR
STARTCHAR 1F68
ENCODING 8040
SWIDTH 480 0
DWIDTH 16 0
BBX 18 21 0 0
BITMAP
383E00
78FF80
39FF80
3383C0
6701C0
CE01C0
0E01C0
1C01C0
1C01C0
1C01C0
1C0380
1C0380
180380
180700
180700
1C0E00
1C0C00
1C1C00
0C3800
FE7F00
FE7E00
ENDCHAR
STARTCHAR 1F69
ENCODING 8041
SWIDTH 480 0
DWIDTH 16 0
BBX 18 21 0 0
BITMAP
E03E00
E0FF80
E1FF80
C383C0
6701C0
2E01C0
0E01C0
1C01C0
1C01C0
1C01C0
1C0380
1C0380
180380
180700
180700
1C0E00
1C0C00
1C1C00
0C3800
FE7F00
FE7E00
ENDCHAR
STARTCHAR 1F6A
ENCODING 8042
SWIDTH 480 0
DWIDTH 16 0
BBX 24 21 -6 0
BITMAP
3300F8
7B03FE
3387FE
318E0F
619C07
C0B807
003807
007007
007007
007007
00700E
00700E
00600E
00601C
00601C
007038
007030
007070
0030E0
03F9FC
03F9F8
ENDCHAR
STARTCHAR 1F6B
ENCODING 8043
SWIDTH 480 0
DWIDTH 16 0
BBX 23 21 -5 0
BITMAP
6601F0
E607FC
E70FFC
431C1E
63380E
21700E
00700E
00E00E
00E00E
00E00E
00E01C
00E01C
00C01C
00C038
00C038
00E070
00E060
00E0E0
0061C0
07F3F8
07F3F0
ENDCHAR
STARTCHAR 1F6C
ENCODING 8044
SWIDTH 480 0
DWIDTH 16 0
BBX 22 21 -4 0
BITMAP
7183E0
73CFF8
739FF8
67383C
CE701C
84E01C
00E01C
01C01C
01C01C
01C01C
01C038
01C038
018038
018070
018070
01C0E0
01C0C0
01C1C0
00C380
0FE7F0
0FE7E0
ENDCHAR
STARTCHAR 1F6D
ENCODING 8045
SWIDTH 480 0
DWIDTH 16 0
BBX 22 21 -4 0
BITMAP
E183E0
E1CFF8
E39FF8
C7383C
6E701C
24E01C
00E01C
01C01C
01C01C
01C01C
01C038
01C038
018038
018070
018070
01C0E0
01C0C0
01C1C0
00C380
0FE7F0
0FE7E0
ENDCHAR
STARTCHAR 1F6E
ENCODING 8046
SWIDTH 480 0
DWIDTH 16 0
BBX 20 23 -2 0
BITMAP
1E0000
7F0000
630F80
C33FE0
187FE0
38E0F0
19C070
338070
638070
070070
070070
070070
0700E0
0700E0
0600E0
0601C0
0601C0
070380
070300
070700
030E00
3F9FC0
3F9F80
ENDCHAR
STARTCHAR 1F6F
ENCODING 8047
SWIDTH 480 0
DWIDTH 16 0
BBX 20 23 -2 0
BITMAP
3C0000
7E0000
C70F80
C23FE0
387FE0
38E0F0
31C070
338070
1B8070
070070
070070
070070
0700E0
0700E0
0600E0
0601C0
0601C0
070380
070300
070700
030E00
3F9FC0
3F9F80
ENDCHAR
STARTCHAR 1F70
ENCODING 8048
SWIDTH 480 0
DWIDTH 16 0
BBX 14 23 3 0
BITMAP
0100
0380
01C0
00E0
0070
0020
0000
00F8
07FC
1FFC
3C1C
3838
7038
E038
E030
E070
E070
C070
C070
E070
F0F0
7FF8
3F38
ENDCHAR
STARTCHAR 1F71
ENCODING 8049
SWIDTH 480 0
DWIDTH 16 0
BBX 14 23 3 0
BITMAP
0010
0038
0078
00E0
01C0
0000
0000
00F8
07FC
1FFC
3C1C
3838
7038
E038
E030
E070
E070
C070
C070
E070
F0F0
7FF8
3F38
ENDCHAR
STARTCHAR 1F72
ENCODING 8050
SWIDTH 480 0
DWIDTH 16 0
BBX 14 23 3 0
BITMAP
0180
03C0
01C0
00E0
0070
0000
0000
03F8
0FFC
1F38
3800
3800
3800
3800
1FC0
3FC0
7000
E000
E000
E000
F030
7FF0
3FE0
ENDCHAR
STARTCHAR 1F73
ENCODING 8051
SWIDTH 480 0
DWIDTH 16 0
BBX 14 23 3 0
BITMAP
0018
0038
0078
00E0
01C0
0080
0000
03F8
0FFC
1F38
3800
3800
3800
3800
1FC0
3FC0
7000
E000
E000
E000
F030
7FF0
3FE0
ENDCHAR
STARTCHAR 1F74
ENCODING 8052
SWIDTH 480 0
DWIDTH 16 0
BBX 14 29 2 -6
BITMAP
0080
01C0
00E0
0070
0038
0010
0000
03F0
0FF8
1FFC
1C1C
1C0C
180C
380C
381C
381C
301C
7018
7038
7038
6038
E030
E070
0070
0070
0060
00E0
00E0
00E0
ENDCHAR
STARTCHAR 1F75
ENCODING 8053
SWIDTH 480 0
DWIDTH 16 0
BBX 14 29 2 -6
BITMAP
0008
001C
003C
0070
00E0
0000
0000
03F0
0FF8
1FFC
1C1C
1C0C
180C
380C
381C
381C
301C
7018
7038
7038
6038
E030
E070
0070
0070
0060
00E0
00E0
00E0
ENDCHAR
STARTCHAR 1F76
ENCODING 8054
SWIDTH 480 0
DWIDTH 16 0
BBX 9 23 5 0
BITMAP
1000
3800
1C00
0E00
0700
0200
0000
0000
FE00
FE00
0E00
0C00
1C00
1C00
1C00
1800
3800
3800
3800
3800
3C00
1F80
0F80
ENDCHAR
STARTCHAR 1F77
ENCODING 8055
SWIDTH 480 0
DWIDTH 16 0
BBX 9 23 5 0
BITMAP
0180
0380
0780
0E00
1C00
0800
0000
0000
FE00
FE00
0E00
0C00
1C00
1C00
1C00
1800
3800
3800
3800
3800
3C00
1F80
0F80
ENDCHAR
STARTCHAR 1F78
ENCODING 8056
SWIDTH 480 0
DWIDTH 16 0
BBX 14 23 3 0
BITMAP
0100
0380
03C0
00E0
0070
0020
0000
03E0
0FF0
1FF8
3C3C
701C
701C
E01C
E01C
E01C
E038
C038
C070
E070
F1E0
7FC0
3F80
ENDCHAR
STARTCHAR 1F79
ENCODING 8057
SWIDTH 480 0
DWIDTH 16 0
BBX 14 23 3 0
BITMAP
0010
0038
0078
00E0
01C0
0000
0000
03E0
0FF0
1FF8
3C3C
701C
701C
E01C
E01C
E01C
E038
C038
C070
E070
F1E0
7FC0
3F80
ENDCHAR
STARTCHAR 1F7A
ENCODING 8058
SWIDTH 480 0
DWIDTH 16 0
BBX 14 23 3 0
BITMAP
0100
0380
03C0
01E0
0070
0020
0000
0000
381C
381C
701C
7018
7038
7038
6038
E030
E070
E070
E070
E0E0
E1E0
7FC0
3F80
ENDCHAR
STARTCHAR 1F7B
ENCODING 8059
SWIDTH 480 0
DWIDTH 16 0
BBX 14 23 3 0
BITMAP
0010
0078
00F0
01E0
0180
0100
0000
0000
381C
381C
701C
7018
7038
7038
6038
E030
E070
E070
E070
E0E0
E1E0
7FC0
3F80
ENDCHAR
STARTCHAR 1F7C
ENCODING 8060
SWIDTH 480 0
DWIDTH 16 0
BBX 15 23 2 0
BITMAP
0180
01C0
01E0
00F0
0070
0010
0000
0800
1C1C
1C1C
380C
700C
600C
E00E
E38E
C38C
C30C
C30C
C71C
C71C
EFB8
FDF8
79F0
ENDCHAR
STARTCHAR 1F7D
ENCODING 8061
SWIDTH 480 0
DWIDTH 16 0
BBX 15 23 2 0
BITMAP
0008
001C
0078
00F0
00C0
0000
0000
0800
1C1C
1C1C
380C
700C
600C
E00E
E38E
C38C
C30C
C30C
C71C
C71C
EFB8
FDF8
79F0
ENDCHAR
STARTCHAR 1F80
ENCODING 8064
SWIDTH 480 0
DWIDTH 16 0
BBX 14 29 3 -6
BITMAP
0070
0070
0070
0060
00C0
0080
0000
00F8
07FC
1FFC
3C1C
3838
7038
E038
E030
E070
E070
C070
C070
E070
F0F0
7FF8
3F38
0000
0C00
1C00
1C00
0F00
0200
ENDCHAR
STARTCHAR 1F81
ENCODING 8065
SWIDTH 480 0
DWIDTH 16 0
BBX 14 29 3 -6
BITMAP
00E0
00E0
00E0
00C0
0060
0020
0000
00F8
07FC
1FFC
3C1C
3838
7038
E038
E030
E070
E070
C070
C070
E070
F0F0
7FF8
3F38
0000
0C00
1C00
1C00
0F00
0200
ENDCHAR
STARTCHAR 1F82
ENCODING 8066
SWIDTH 480 0
DWIDTH 16 0
BBX 14 29 3 -6
BITMAP
0198
03D8
019C
038C
070C
0404
0000
00F8
07FC
1FFC
3C1C
3838
7038
E038
E030
E070
E070
C070
C070
E070
F0F0
7FF8
3F38
0000
0C00
1C00
1C00
0F00
0200
ENDCHAR
STARTCHAR 1F83
ENCODING 8067
SWIDTH 480 0
DWIDTH 16 0
BBX 14 29 3 -6
BITMAP
0730
0770
0630
0638
0318
0110
0000
00F8
07FC
1FFC
3C1C
3838
7038
E038
E030
E070
E070
C070
C070
E070
F0F0
7FF8
3F38
0000
0C00
1C00
1C00
0F00
0200
ENDCHAR
STARTCHAR 1F84
ENCODING 8068
SWIDTH 480 0
DWIDTH 16 0
BBX 16 29 3 -6
BITMAP
01C6
01C7
00CE
019C
0338
0210
0000
00F8
07FC
1FFC
3C1C
3838
7038
E038
E030
E070
E070
C070
C070
E070
F0F0
7FF8
3F38
0000
0C00
1C00
1C00
0F00
0200
ENDCHAR
STARTCHAR 1F85
ENCODING 8069
SWIDTH 480 0
DWIDTH 16 0
BBX 15 29 3 -6
BITMAP
0304
078E
071C
0338
0370
0120
0000
00F8
07FC
1FFC
3C1C
3838
7038
E038
E030
E070
E070
C070
C070
E070
F0F0
7FF8
3F38
0000
0C00
1C00
1C00
0F00
0200
ENDCHAR
STARTCHAR 1F86
ENCODING 8070
SWIDTH 480 0
DWIDTH 16 0
BBX 14 32 3 -6
BITMAP
0078
01FC
0184
0104
0070
0070
0060
00C0
0080
0000
00F8
07FC
1FFC
3C1C
3838
7038
E038
E030
E070
E070
C070
C070
E070
F0F0
7FF8
3F38
0000
0C00
1C00
1C00
0F00
0200
ENDCHAR
STARTCHAR 1F87
ENCODING 8071
SWIDTH 480 0
DWIDTH 16 0
BBX 14 32 3 -6
BITMAP
0078
01FC
0184
0104
0070
00E0
0060
0060
0020
0000
00F8
07FC
1FFC
3C1C
3838
7038
E038
E030
E070
E070
C070
C070
E070
F0F0
7FF8
3F38
0000
0C00
1C00
1C00
0F00
0200
ENDCHAR
STARTCHAR 1F88
ENCODING 8072
SWIDTH 480 0
DWIDTH 16 0
BBX 17 21 0 0
BITMAP
38E000
39E000
39E000
336000
636000
436000
066180
066180
0EE380
0CE380
0CE300
1CE300
18E700
3FE700
3FE600
3FE600
70E600
70EE00
60EE00
E0E700
E0E300
ENDCHAR
STARTCHAR 1F89
ENCODING 8073
SWIDTH 480 0
DWIDTH 16 0
BBX 17 21 0 0
BITMAP
70E000
F1E000
E1E000
636000
636000
236000
066180
066180
0EE380
0CE380
0CE300
1CE300
18E700
3FE700
3FE600
3FE600
70E600
70EE00
60EE00
E0E700
E0E300
ENDCHAR
STARTCHAR 1F8A
ENCODING 8074
SWIDTH 480 0
DWIDTH 16 0
BBX 22 21 -5 0
BITMAP
720700
770F00
730F00
631B00
C19B00
811B00
00330C
00330C
00771C
00671C
006718
00E718
00C738
01FF38
01FF30
01FF30
038730
038770
030770
070738
070718
ENDCHAR
STARTCHAR 1F8B
ENCODING 8075
SWIDTH 480 0
DWIDTH 16 0
BBX 21 21 -4 0
BITMAP
E40E00
EE1E00
C61E00
C63600
433600
423600
006618
006618
00EE38
00CE38
00CE30
01CE30
018E70
03FE70
03FE60
03FE60
070E60
070EE0
060EE0
0E0E70
0E0E30
ENDCHAR
ENDFONT
